<?xml version="1.0" encoding="UTF-8" standalone="no"?>
<svg
   xml:space="preserve"
   viewBox="0 0 14 14"
   version="1.1"
   id="svg4983"
   sodipodi:docname="armaments.svg"
   inkscape:version="1.2.2 (732a01da63, 2022-12-09)"
   xmlns:inkscape="http://www.inkscape.org/namespaces/inkscape"
   xmlns:sodipodi="http://sodipodi.sourceforge.net/DTD/sodipodi-0.dtd"
   xmlns:xlink="http://www.w3.org/1999/xlink"
   xmlns="http://www.w3.org/2000/svg"
   xmlns:svg="http://www.w3.org/2000/svg"><sodipodi:namedview
     id="namedview4985"
     pagecolor="#ffffff"
     bordercolor="#000000"
     borderopacity="0.25"
     inkscape:showpageshadow="2"
     inkscape:pageopacity="0.0"
     inkscape:pagecheckerboard="0"
     inkscape:deskcolor="#d1d1d1"
     showgrid="false"
     inkscape:zoom="22.627417"
     inkscape:cx="1.0385631"
     inkscape:cy="7.6455921"
     inkscape:window-width="1920"
     inkscape:window-height="1009"
     inkscape:window-x="1912"
     inkscape:window-y="-4"
     inkscape:window-maximized="1"
     inkscape:current-layer="svg4983" /><defs
     id="defs4955"><linearGradient
       inkscape:collect="always"
       id="linearGradient40645"><stop
         style="stop-color:#000000;stop-opacity:0.2;"
         offset="0"
         id="stop40641" /><stop
         style="stop-color:#000000;stop-opacity:0;"
         offset="0.28493148"
         id="stop40643" /><stop
         style="stop-color:#000000;stop-opacity:0.05;"
         offset="0.73424655"
         id="stop40691" /><stop
         style="stop-color:#000000;stop-opacity:0.30000001;"
         offset="1"
         id="stop40663" /></linearGradient><linearGradient
       inkscape:collect="always"
       id="linearGradient35508"><stop
         style="stop-color:#ffffff;stop-opacity:1;"
         offset="0.28"
         id="stop35504" /><stop
         style="stop-color:#bab6b6;stop-opacity:1;"
         offset="1"
         id="stop35506" /></linearGradient><filter
       id="a"
       x="-0.076010118"
       y="-0.074016379"
       width="1.1520202"
       height="1.1480328"
       color-interpolation-filters="sRGB"><feGaussianBlur
         stdDeviation="1.1179821"
         id="feGaussianBlur4952" /></filter><radialGradient
       inkscape:collect="always"
       xlink:href="#linearGradient35508"
       id="radialGradient35510"
       cx="7.1679726"
       cy="6.6375813"
       fx="7.1679726"
       fy="6.6375813"
       r="0.91950321"
       gradientTransform="matrix(1.3862833,-0.5385553,0.47203069,1.2150439,-5.9020103,2.3832894)"
       gradientUnits="userSpaceOnUse" /><linearGradient
       inkscape:collect="always"
       xlink:href="#linearGradient40645"
       id="linearGradient40647"
       x1="4.0117187"
       y1="6.8066405"
       x2="10.605469"
       y2="6.8066405"
       gradientUnits="userSpaceOnUse" /><filter
       inkscape:collect="always"
       style="color-interpolation-filters:sRGB"
       id="filter42022"
       x="-0.19362857"
       y="-0.074883978"
       width="1.3872571"
       height="1.149768"><feGaussianBlur
         inkscape:collect="always"
         stdDeviation="0.17648437"
         id="feGaussianBlur42024" /></filter><filter
       inkscape:collect="always"
       style="color-interpolation-filters:sRGB"
       id="filter42083"
       x="-0.082449396"
       y="-0.068785177"
       width="1.1648988"
       height="1.1375704"><feGaussianBlur
         inkscape:collect="always"
         stdDeviation="0.33963383"
         id="feGaussianBlur42085" /></filter></defs><circle
     cx="7"
     cy="7"
     fill="#ffe34d"
     fill-rule="evenodd"
     r="6.0999999"
     id="circle4957"
     style="display:inline" /><path
     style="display:inline;opacity:1;mix-blend-mode:normal;fill:#000000;fill-opacity:1;fill-rule:evenodd;stroke:none;stroke-width:0.2;stroke-linecap:square;stroke-linejoin:miter;stroke-dasharray:none;stroke-opacity:0.650519;filter:url(#filter42083)"
     d="m 2.1876116,4.3089319 1.1075352,6.4302521 c 0.3206173,1.861476 1.160839,2.438785 3.1239617,2.101675 L 8.2592741,12.524864 C 9.5239308,12.307695 10.516477,11.609148 10.215326,9.6988208 l -0.139054,-0.8820831 0.863126,-2.322875 0.276769,0.014515 c 0.183009,-0.450385 0.261674,-0.9332224 0.09754,-1.1829794 L 11.534679,4.4857086 C 12.292151,4.1091233 12.019426,3.3912574 11.485353,3.1860018 10.951281,2.9807462 10.202246,3.3874153 10.628699,4.1100582 L 10.253048,4.9055533 C 9.7690271,5.0517887 9.7497392,5.261505 9.5459415,5.7231453 L 9.0708541,2.9610094 C 8.7962846,1.3646751 7.8147853,0.92658652 6.4633979,1.1269514 L 4.2315922,1.4578525 c -2.080449,0.30846 -2.2655574,1.564624 -2.0439806,2.8510794 z"
     id="path42026"
     sodipodi:nodetypes="sssssccccczcccssss" /><g
     id="g27460"
     inkscape:label="scutum"
     transform="rotate(-9.7452865,7.9225916,13.386216)"><path
       id="path18688-1"
       style="opacity:1;fill:#ff653f;fill-opacity:1;fill-rule:evenodd;stroke:none;stroke-width:0.269045;stroke-linecap:round;stroke-linejoin:round"
       d="m 0.69533262,14.028403 c -2.46393062,0 -2.70458592,-1.033662 -2.73242192,-2.632813 V 8.4151214 5.4346526 c 0.027836,-1.59915 0.2684914,-2.6328125 2.73242192,-2.6328125 H 1.2597857 1.8242389 c 2.4639306,0 2.7045859,1.0336625 2.7324218,2.6328125 V 8.4151214 11.39559 c -0.027836,1.599151 -0.2684912,2.632813 -2.7324218,2.632813 H 1.2597857 Z"
       transform="matrix(1,0,0,-1,6.048808,15.221762)"
       inkscape:label="shield back" /><path
       style="opacity:1;fill:#ffef4d;fill-opacity:0.9;fill-rule:evenodd;stroke:none;stroke-width:0.261328;stroke-linecap:round;stroke-linejoin:round"
       d="M 6.4804766,7.0418842 C 5.8130317,7.105966 5.2211342,7.4370541 4.9585499,7.7995718 4.4919657,8.4437264 4.5626193,9.7560129 4.8338431,10.321468 5.105067,10.886924 5.6575007,11.192825 5.6575007,11.192825 5.1320902,10.088449 5.4331894,8.5715959 5.8426628,8.2642898 6.2620569,7.9495382 6.5584305,7.7818936 6.6874909,7.3120154 Z"
       id="path18784"
       sodipodi:nodetypes="cszcscc"
       inkscape:label="wing4" /><path
       style="opacity:1;fill:#ffef4d;fill-opacity:0.9;fill-rule:evenodd;stroke:none;stroke-width:0.261328;stroke-linecap:round;stroke-linejoin:round"
       d="M 8.1367184,7.0418842 C 8.8041633,7.105966 9.3960608,7.4370541 9.6586451,7.7995718 10.125229,8.4437264 10.054576,9.7560129 9.7833519,10.321468 9.512128,10.886924 8.9596943,11.192825 8.9596943,11.192825 9.4851048,10.088449 9.1840056,8.5715959 8.7745322,8.2642898 8.3551381,7.9495382 8.0587645,7.7818936 7.9297041,7.3120154 Z"
       id="path18784-1"
       sodipodi:nodetypes="cszcscc"
       inkscape:label="wing3" /><path
       style="opacity:1;fill:#ffef4d;fill-opacity:0.9;fill-rule:evenodd;stroke:none;stroke-width:0.261328;stroke-linecap:round;stroke-linejoin:round"
       d="M 6.4804766,6.5713976 C 5.8130318,6.5073158 5.2211343,6.1762276 4.9585499,5.8137099 4.4919657,5.1695555 4.5626193,3.8572683 4.8338431,3.291813 5.105067,2.7263576 5.6575007,2.4204558 5.6575007,2.4204558 5.1320902,3.5248325 5.4331895,5.0416858 5.8426628,5.3489916 6.262057,5.6637435 6.5584305,5.8313881 6.6874909,6.3012663 Z"
       id="path18784-0"
       sodipodi:nodetypes="cszcscc"
       inkscape:label="wing2" /><path
       style="opacity:1;fill:#ffef4d;fill-opacity:0.9;fill-rule:evenodd;stroke:none;stroke-width:0.261328;stroke-linecap:round;stroke-linejoin:round"
       d="M 8.1367185,6.5713976 C 8.8041634,6.5073157 9.3960609,6.1762276 9.6586452,5.8137099 10.125229,5.1695555 10.054576,3.8572683 9.783352,3.291813 9.512128,2.7263576 8.9596944,2.4204558 8.9596944,2.4204558 9.4851048,3.5248325 9.1840057,5.0416858 8.7745323,5.3489916 8.3551382,5.6637435 8.0587646,5.8313881 7.9297042,6.3012663 Z"
       id="path18784-1-1"
       sodipodi:nodetypes="cszcscc"
       inkscape:label="wing1" /><path
       style="opacity:1;fill:none;fill-opacity:1;fill-rule:evenodd;stroke:#ffef4d;stroke-width:0.191179;stroke-linecap:square;stroke-linejoin:miter;stroke-dasharray:none;stroke-opacity:1"
       d="M 6.9354102,7.6055876 6.1261835,8.767859 6.7918795,8.9622601 6.0994012,10.020054 6.7494338,10.242227 6.0963566,11.27465"
       id="path27573"
       sodipodi:nodetypes="cccccc" /><path
       style="opacity:1;fill:none;fill-opacity:1;fill-rule:evenodd;stroke:#ffef4d;stroke-width:0.191179;stroke-linecap:square;stroke-linejoin:miter;stroke-dasharray:none;stroke-opacity:1"
       d="m 7.3085976,7.6454669 0.00555,3.6641421"
       id="path28355"
       sodipodi:nodetypes="cc" /><path
       style="fill:none;fill-opacity:1;fill-rule:evenodd;stroke:#ffef4d;stroke-width:0.191179;stroke-linecap:square;stroke-linejoin:miter;stroke-dasharray:none;stroke-opacity:1"
       d="m 5.2753732,6.8053772 -0.7141889,0.00253"
       id="path28355-8"
       sodipodi:nodetypes="cc" /><path
       style="opacity:1;fill:none;fill-opacity:1;fill-rule:evenodd;stroke:#ffef4d;stroke-width:0.191179;stroke-linecap:square;stroke-linejoin:miter;stroke-dasharray:none;stroke-opacity:1"
       d="M 7.6820672,7.6055876 8.4912939,8.767859 7.8255979,8.9622601 8.5180762,10.020054 7.8680436,10.242227 8.5211208,11.27465"
       id="path27573-8"
       sodipodi:nodetypes="cccccc" /><path
       style="fill:none;fill-opacity:1;fill-rule:evenodd;stroke:#ffef4d;stroke-width:0.191179;stroke-linecap:square;stroke-linejoin:miter;stroke-dasharray:none;stroke-opacity:1"
       d="m 9.3418218,6.8053772 0.7141892,0.00253"
       id="path28355-8-2"
       sodipodi:nodetypes="cc" /><path
       style="opacity:1;fill:none;fill-opacity:1;fill-rule:evenodd;stroke:#ffef4d;stroke-width:0.191179;stroke-linecap:square;stroke-linejoin:miter;stroke-dasharray:none;stroke-opacity:1"
       d="M 6.9354102,6.0076941 6.1261835,4.8454231 6.7918795,4.6510213 6.0994012,3.5932274 6.7494337,3.3710546 6.0963566,2.3386315"
       id="path27573-0"
       sodipodi:nodetypes="cccccc" /><path
       style="opacity:1;fill:none;fill-opacity:1;fill-rule:evenodd;stroke:#ffef4d;stroke-width:0.191179;stroke-linecap:square;stroke-linejoin:miter;stroke-dasharray:none;stroke-opacity:1"
       d="m 7.3085976,5.9678148 0.00555,-3.6641429"
       id="path28355-5"
       sodipodi:nodetypes="cc" /><path
       style="opacity:1;fill:none;fill-opacity:1;fill-rule:evenodd;stroke:#ffef4d;stroke-width:0.191179;stroke-linecap:square;stroke-linejoin:miter;stroke-dasharray:none;stroke-opacity:1"
       d="M 7.6820672,6.0076941 8.4912939,4.8454231 7.8255979,4.6510213 8.5180762,3.5932274 7.8680435,3.3710546 8.5211208,2.3386315"
       id="path27573-8-4"
       sodipodi:nodetypes="cccccc" /><path
       id="path18688-1-5"
       style="display:inline;fill:url(#linearGradient40647);fill-opacity:1;fill-rule:evenodd;stroke:none;stroke-width:0.269045;stroke-linecap:round;stroke-linejoin:round"
       d="m 6.7441406,1.193359 c -2.4639306,0 -2.7045859,1.033662 -2.7324219,2.632813 v 2.9804686 2.9804688 c 0.027836,1.5991496 0.2684914,2.6328126 2.7324219,2.6328126 h 0.5644531 0.5644532 c 2.4639311,0 2.7045861,-1.033663 2.7324221,-2.6328126 V 6.8066406 3.826172 C 10.577633,2.227021 10.336978,1.193359 7.8730469,1.193359 H 7.3085937 Z"
       inkscape:label="shield shade" /><ellipse
       style="opacity:1;fill:#000000;fill-opacity:0.2;fill-rule:evenodd;stroke:none;stroke-width:0.289356;stroke-linecap:square;stroke-linejoin:miter;stroke-dasharray:none;stroke-opacity:1"
       id="path30762"
       cx="7.3085938"
       cy="6.8066406"
       rx="1.169507"
       ry="1.5132521"
       inkscape:label="boss shadow" /><ellipse
       style="fill:url(#radialGradient35510);fill-opacity:1;fill-rule:evenodd;stroke:none;stroke-width:0.227501;stroke-linecap:square;stroke-linejoin:miter;stroke-dasharray:none;stroke-opacity:1"
       id="path30762-9"
       cx="7.3085976"
       cy="6.8066406"
       rx="0.91950321"
       ry="1.1897664"
       inkscape:label="boss" /></g><path
     style="opacity:1;fill:#000000;fill-opacity:0.89999998;fill-rule:evenodd;stroke:none;stroke-width:0.2;stroke-linecap:square;stroke-linejoin:miter;stroke-dasharray:none;stroke-opacity:0.650519;filter:url(#filter42022)"
     d="M 7.703125,12.4375 7.75,11.046875 9.5,6.78125 9.890625,9 l -0.9375,2.484375 -0.65625,0.859375 z"
     id="path41857" /><g
     id="g41649"
     inkscape:label="gladius"
     transform="matrix(0.40579101,0.9139659,0.9139659,-0.40579101,-2.0812509,3.0150098)"><path
       d="M 7.596365,10.848571 6.56399,11.837663 6.147192,11.452927 7.141094,10.406124 Z"
       fill="#c08c41"
       stroke-width="0.142673"
       id="path41469" /><path
       d="M 12.027241,6.489832 12.865645,5.117607 11.416473,5.86143 7.448882,9.9091736 7.921787,10.491087"
       fill="#f7f7f4"
       stroke-width="0.16191"
       id="path41471" /><path
       d="M 12.864042,5.117607 12.120219,6.563573 8.066063,10.526354 7.700564,10.277879"
       fill="#ccc9b6"
       stroke-width="0.16191"
       id="path41473" /><path
       d="M 8.248813,10.651394 7.319034,9.7328363 C 6.950329,10.101542 6.822083,10.277879 7.065749,10.526354 l 0.426416,0.400767 c 0.254888,0.216414 0.403973,0.07855 0.756648,-0.275727 z"
       fill="#d5b35d"
       stroke-width="0.144276"
       id="path41475" /><path
       d="M 6.554371,11.747891 6.224139,11.425675 c -0.25649,-0.251682 -0.854434,0.245269 -0.387942,0.72138 0.477714,0.456874 0.993902,-0.112215 0.718174,-0.397561 z"
       fill="#d4b35c"
       stroke-width="0.144276"
       id="path41477" /></g></svg>
