<svg viewBox="0 0 12.7 12.7" xmlns:xlink="http://www.w3.org/1999/xlink" xmlns="http://www.w3.org/2000/svg"><defs><linearGradient id="b"><stop offset=".34" stop-color="#fff"/><stop offset="1" stop-color="#e5e5e5"/></linearGradient><linearGradient xlink:href="#a" id="f" x1="2.31" y1="10.56" x2="10.15" y2="7.81" gradientUnits="userSpaceOnUse" gradientTransform="matrix(1 0 0 .91919 -.05 1.05)"/><linearGradient id="a"><stop offset="0" stop-color="#f2f2f2"/><stop offset="1" stop-color="#d9d9d9"/></linearGradient><linearGradient xlink:href="#a" id="d" x1="10.24" y1="10.55" x2="2.45" y2="7.74" gradientUnits="userSpaceOnUse" gradientTransform="matrix(1 0 0 .91919 -.05 1.05)"/><filter id="g" x="-.12" y="-.1" width="1.24" height="1.2" color-interpolation-filters="sRGB"><feGaussianBlur stdDeviation=".27"/></filter><filter id="e" x="-.09" y="-.14" width="1.19" height="1.28" color-interpolation-filters="sRGB"><feGaussianBlur stdDeviation=".25"/></filter><filter id="c" x="-.1" y="-.14" width="1.19" height="1.28" color-interpolation-filters="sRGB"><feGaussianBlur stdDeviation=".25"/></filter><radialGradient xlink:href="#b" id="h" cx="6.31" cy="3.35" fx="6.31" fy="3.35" r="2.67" gradientTransform="matrix(1.49504 .0008 -.00065 1.22151 -3.05 -.32)" gradientUnits="userSpaceOnUse"/></defs><path d="M8.42 9.44c.2.05.46-.38.77-.23.56.25.37 1.1.1 1.4-.16.55-.05 1.1-.69.83-.28-.12-.36-.76-.6-.91a15 15 0 0 0-3.8-1.8c-.37-.1-.49.16-.68-.02-.4-.4-.3-.48-.06-1 .1-.57.24-.64.7-.21 1.04.95 3.14 1.69 4.26 1.94" style="mix-blend-mode:normal" transform="matrix(1.47177 0 0 1.05232 -3.03 -.17)" filter="url(#c)"/><path d="M3.6 8.2a23 23 0 0 0 5.75 1.74c.28.04.64-.27.97-.22.8.12.62.78.2 1.08-.3.22-.03 1.13-.9.8-.4-.14-.35-.68-.68-.83a29 29 0 0 0-5.8-1.94c-.48-.11-.67.15-.94-.06-.46-.36-.1-.4.02-.74.1-.3.2-.62.72-.25.22.16.3.26.66.42" fill="url(#d)"/><path style="mix-blend-mode:normal" d="M4.28 9.44c1.37-.52 2.92-.98 4.15-1.76.58-.76.66-.47.74.04.23.41.5.47-.02.9-.2.16-.25-.05-.53.02-1.25.33-2.7 1.03-4 1.88-.34.22-.42.98-.69 1-.55.06-.46-.46-.63-.85-.47-.48-.36-1.45.19-1.45.23 0 .51.31.8.22Z" transform="matrix(1.47177 0 0 1.05232 -3.03 -.17)" filter="url(#e)"/><path d="M3.3 9.94c1.96-.52 4.35-1.06 5.91-1.8.34-.17.32-.17.58-.34.57-.37.38.14.62.36.3.27.28.36-.07.56-.24.14-.28-.03-.68.06a27 27 0 0 0-6 1.96c-.59.28-.53.93-.93.95-.83.06-.5-.5-.88-.84-.49-.45-.38-1.17.36-1.07.53.07.75.24 1.1.16z" fill="url(#f)"/><path style="mix-blend-mode:normal" d="M5.03 1.4c-1.28.51-1.5 1.78-1.45 2.43.04.7.52.9.47 1.39l-.06.6c-.02.22.13.5.4.51.8-.04.72.16.64.78.54.57 2.12.48 2.56 0-.12-.6-.28-.77.45-.77.63-.14.6-.4.57-.55-.02-.22-.06-.34-.05-.56.02-.52.47-.8.46-1.46-.01-.99-.19-1.8-1.47-2.38a2.9 2.9 0 0 0-2.52 0z" transform="translate(-1.99 -.44)scale(1.32437)" filter="url(#g)"/><path d="M6.21 1.24q-.76.06-1.46.38C3.2 2.25 2.92 3.8 2.95 4.6c.06.9.72 1.2.66 1.8l-.07.72c-.02.27-.06.6.57.63 1.34.08.64.67.76 1.09.7.64 2.27.58 2.94.03.18-.4-.53-1.04.71-1.1.77-.04.7-.5.7-.7-.04-.28-.08-.42-.07-.7.03-.65.64-.95.64-1.8 0-1.22-.3-2.22-1.84-2.96a4 4 0 0 0-1.74-.36zM8.18 5.5c.48.3.34.68.16.92-.16.22-.47.18-.7.13-.35-.07-.77-.17-.77-.6 0-.27.05-.56.5-.6.3-.01.6 0 .81.15M5.3 5.38c.5.05.48.32.48.6 0 .42-.4.54-.76.6-.26.03-.6.03-.7-.13-.16-.26-.3-.6.16-.93.26-.2.57-.16.82-.14m1.43 2.24c.05.18-.27-.02-.38 0-.13 0-.43.18-.39 0 .4-1.16.4-1.16.77 0" fill="url(#h)"/></svg>