<svg viewBox="0 0 12.7 12.7" xmlns="http://www.w3.org/2000/svg"><defs><filter id="a" x="-.077" y="-.164" width="1.153" height="1.329" color-interpolation-filters="sRGB"><feGaussianBlur stdDeviation=".256"/></filter></defs><g fill-rule="evenodd" stroke-linecap="round" stroke-linejoin="round"><path style="mix-blend-mode:normal" d="m6.194 4.03-.776 1.58-.732-1.475-.12-.006-.02-.002-.644 1.457-.482-1.382-.17.011-.006.026-.001-.003-.03.148-.214 1.157-.535-1.157-.17.093-.015-.038.006.042-.006.004.516 3.28h6.973l.537-3.28-.006-.004.006-.042-.016.038-.168-.093-.555 1.178-.225-1.326-.005-.023-.172-.011-.501 1.382-.625-1.457-.02.002-.118.006L7.121 5.6l-.73-1.571-.099.006z" transform="matrix(1.23173 0 0 1.52391 -1.4 -2.766)" filter="url(#a)"/><path d="M6.339 3.677 5.304 6.18 4.286 3.84l-.888 2.345-.677-2.194-.389 2.124-.75-1.841.622 4.608h8.27l.622-4.608-.749 1.84-.39-2.123-.675 2.194-.889-2.345-1.018 2.34Z" fill="#ff4c4c"/><path style="mix-blend-mode:normal" d="m6.292 3.502-.7 2.298-.26.01-.703-2.245-.587 2.245-.27.008-.37-1.393-.24 1.403-.427.034.136 1.317 6.825-.008.134-1.305-.406-.038-.24-1.403-.37 1.393-.27-.008-.61-2.245-.681 2.245-.26-.01z" transform="matrix(1.23173 0 0 .94018 -1.4 1.627)" fill="#e13c3c"/></g></svg>