<?xml version="1.0" encoding="UTF-8"?>
<svg width="48" height="48" version="1.1" viewBox="0 0 12.7 12.7" xmlns="http://www.w3.org/2000/svg" xmlns:xlink="http://www.w3.org/1999/xlink">
<defs>
<filter id="n" x="-.19492" y="-.18913" width="1.3898" height="1.3783" color-interpolation-filters="sRGB">
<feGaussianBlur stdDeviation="0.63871087"/>
</filter>
<linearGradient id="m" x1="7.4344" x2="7.4214" y1="6.596" y2="4.6524" gradientTransform="matrix(.93138 0 0 .93138 .4276 .42237)" gradientUnits="userSpaceOnUse">
<stop stop-opacity=".2" offset="0"/>
<stop stop-opacity="0" offset="1"/>
</linearGradient>
<linearGradient id="l" x1="7.9535" x2="7.917" y1="6.5559" y2="4.0169" gradientTransform="matrix(.93138 0 0 .93138 .4276 .42237)" gradientUnits="userSpaceOnUse">
<stop stop-opacity=".2" offset="0"/>
<stop stop-opacity="0" offset="1"/>
</linearGradient>
<linearGradient id="k" x1="8.4435" x2="8.4473" y1="6.7532" y2="3.393" gradientTransform="matrix(.93138 0 0 .93138 .4276 .42237)" gradientUnits="userSpaceOnUse">
<stop stop-opacity=".2" offset="0"/>
<stop stop-opacity="0" offset="1"/>
</linearGradient>
<linearGradient id="j" x1="8.9629" x2="8.9737" y1="7.2216" y2="3.6218" gradientTransform="matrix(.93138 0 0 .93138 .4276 .42237)" gradientUnits="userSpaceOnUse">
<stop stop-opacity=".2" offset="0"/>
<stop stop-opacity="0" offset="1"/>
</linearGradient>
<linearGradient id="i" x1="7.4344" x2="7.4214" y1="6.596" y2="4.6524" gradientTransform="matrix(-.93138 0 0 .93138 12.051 .36817)" gradientUnits="userSpaceOnUse">
<stop stop-opacity=".2" offset="0"/>
<stop stop-opacity="0" offset="1"/>
</linearGradient>
<linearGradient id="h" x1="7.9535" x2="7.917" y1="6.5559" y2="4.0169" gradientTransform="matrix(-.93138 0 0 .93138 12.051 .36817)" gradientUnits="userSpaceOnUse">
<stop stop-opacity=".2" offset="0"/>
<stop stop-opacity="0" offset="1"/>
</linearGradient>
<linearGradient id="g" x1="8.4435" x2="8.4473" y1="6.7532" y2="3.393" gradientTransform="matrix(-.93138 0 0 .93138 12.051 .36817)" gradientUnits="userSpaceOnUse">
<stop stop-opacity=".2" offset="0"/>
<stop stop-opacity="0" offset="1"/>
</linearGradient>
<linearGradient id="f" x1="8.9629" x2="8.9737" y1="7.2216" y2="3.6218" gradientTransform="matrix(-.93138 0 0 .93138 12.051 .36817)" gradientUnits="userSpaceOnUse">
<stop stop-opacity=".2" offset="0"/>
<stop stop-opacity="0" offset="1"/>
</linearGradient>
<linearGradient id="e" x1="3.9554" x2="4.0235" y1="3.7428" y2="7.7816" gradientTransform="matrix(.93138 0 0 .93138 .4276 .42237)" gradientUnits="userSpaceOnUse">
<stop stop-color="#e99649" offset="0"/>
<stop stop-color="#b56317" offset="1"/>
</linearGradient>
<linearGradient id="d" x1="8.5198" x2="8.4542" y1="3.794" y2="7.7771" gradientTransform="matrix(.93138 0 0 .93138 .4276 .42237)" gradientUnits="userSpaceOnUse">
<stop stop-color="#e99649" offset="0"/>
<stop stop-color="#b56417" offset="1"/>
</linearGradient>
<linearGradient id="c" x1="6.2064" x2="6.1643" y1="3.701" y2="5.1334" gradientTransform="matrix(.93138 0 0 .93138 .4276 .42237)" gradientUnits="userSpaceOnUse">
<stop stop-color="#e99649" offset="0"/>
<stop stop-color="#b56417" offset="1"/>
</linearGradient>
<linearGradient id="b" x1="6.2264" x2="5.348" y1="6.7462" y2="9.2326" gradientTransform="matrix(.93138 0 0 .93138 .4276 .42237)" gradientUnits="userSpaceOnUse">
<stop stop-color="#b46318" offset=".35"/>
<stop stop-color="#e99649" offset=".74204"/>
<stop stop-color="#fdd200" offset="1"/>
</linearGradient>
<linearGradient id="a" x1="6.2823" x2="7.2035" y1="6.7511" y2="9.2288" gradientTransform="matrix(.93138 0 0 .93138 .4276 .42237)" gradientUnits="userSpaceOnUse">
<stop stop-color="#b56417" offset=".35"/>
<stop stop-color="#e99649" offset=".82803"/>
<stop stop-color="#ffd500" offset="1"/>
</linearGradient>
</defs>
<g transform="matrix(1.2317 0 0 1.2081 -1.3921 -1.1404)">
<path transform="matrix(.93138 0 0 .93138 .4276 .42237)" d="m5.0815 3.3674c0.13562-0.062548 0.16166-0.8526 0.54423-1.0738 0.46233-0.26726 0.99138-0.21678 1.4561-0.072011 0.35135 0.10945 0.68441 0.55301 0.88301 0.67245 0.11481 0.06905 0.40921-0.21824 0.99746-0.046482 0.91489 0.26713 1.1808 1.957 1.1984 3.1404 0.02088 1.4041-0.06428 2.4168-0.15964 3.1807-0.042321 0.33903-0.34577 0.35258-0.67555 0.1632-0.6719-0.38584-1.6827-1.447-1.6545-1.2569 0.076382 0.5164 0.62283 0.86393 0.54111 1.4329-0.07978 0.55546-0.62532 0.69072-0.90185 0.69971-0.38605 0.012549-0.746-0.23786-1.106-0.24791-0.35993-0.010056-0.58904 0.2656-0.97109 0.2442-0.26985-0.015112-0.82283-0.086326-0.90382-0.66857-0.099304-0.71392 0.42663-0.86737 0.50314-1.5318 0.022799-0.198-1.0152 1.0205-1.6949 1.3856-0.28046 0.15061-0.59436-0.020559-0.64617-0.32492-0.11415-0.67058-0.2216-2.0533-0.1843-3.303 0.03159-1.0584 0.25799-2.5439 1.0984-2.9065 0.99765-0.43046 1.5264 0.58168 1.6759 0.51274z" filter="url(#n)" stroke-width=".09064"/>
<rect x="2.8733" y="2.0967" width="7.2899" height="8.9125" fill="none"/>
<path d="m6.8686 4.7981s0.29835 0.012189 0.54821-0.27009c0.29378-0.33189 0.50651-0.89525 0.97295-0.8693 1.3058 0.072647 0.77379 4.8534 0.77379 4.8534s-0.88606-0.44217-1.438-1.2411c-0.43884-0.63524-0.85697-0.56587-0.85697-0.56587z" fill="url(#d)" stroke-width=".075953"/>
<path d="m5.6188 4.7975s-0.29835 0.01219-0.54821-0.27009c-0.29378-0.33189-0.50651-0.89525-0.97295-0.8693-1.3058 0.072647-0.77379 4.8534-0.77379 4.8534s0.91732-0.47404 1.438-1.2411c0.43368-0.63892 0.85697-0.56587 0.85697-0.56587z" fill="url(#e)" stroke-width=".075953"/>
<path d="m6.2169 7.4112s0.15089 0.84431 0.31565 0.94914c0.071342 0.045393 0.17044 0.029746 0.17044 0.029746l0.23976 0.52038s-0.18134 0.00761-0.27937 0.099383c-0.17794 0.16657-0.078069 0.44284-0.078069 0.44284s0.065108-0.16117 0.23542-0.24546c0.11648-0.057651 0.24576-0.064875 0.24576-0.064875 0.11879 0.11981 0.27153 0.37172 0.27153 0.37172s0.10747-0.20579-0.02034-0.39819c0 0 0.074287-0.055207 0.1898-0.022786 0.12468 0.034994 0.20556 0.2075 0.20556 0.2075s0.084131-0.35256-0.13127-0.43457c-0.15928-0.060645-0.41621 0.00219-0.41621 0.00219l-0.21244-0.54009s0.13645-0.033638 0.18151-0.15121c0.075456-0.19687-0.21613-1.5393-0.21613-1.5393z" fill="url(#a)" stroke-width=".080131"/>
<path d="m6.2967 7.4275s-0.16918 0.83794-0.33145 0.94276c-0.070267 0.045393-0.16788 0.029747-0.16788 0.029747l-0.23615 0.52038s0.17861 0.00761 0.27516 0.099383c0.17526 0.16657 0.076893 0.44284 0.076893 0.44284s-0.064128-0.16117-0.23187-0.24546c-0.11473-0.057651-0.24206-0.064875-0.24206-0.064875-0.117 0.11981-0.26744 0.37172-0.26744 0.37172s-0.10585-0.20579 0.020034-0.39819c0 0-0.073169-0.055207-0.18694-0.022786-0.1228 0.034994-0.20247 0.2075-0.20247 0.2075s-0.082863-0.35256 0.12929-0.43457c0.15688-0.060645 0.40994 0.00219 0.40994 0.00219l0.20924-0.54009s-0.13439-0.033637-0.17878-0.15121c-0.074319-0.19687 0.18479-1.552 0.18479-1.552z" fill="url(#b)" stroke-width=".079525"/>
<path d="m6.9095 3.2269s0.21316 0.048418 0.30399 0.10632c0.090119 0.05745 0.23758 0.23 0.22508 0.23027-0.34152 0.00717-0.56111 0.10299-0.56111 0.10299z" fill="#ffd500" stroke-width=".07635"/>
<path d="m6.9095 3.2269c-0.044998-0.038998-0.031271-0.10963-0.073583-0.14184-0.05718-0.043535-0.35448-0.090794-0.53295-0.076731-0.14372 0.011325-0.41951 0.12866-0.41951 0.12866l0.11137 0.061971s-0.1352 0.27683-0.18354 0.42289c-0.15811 0.47774-0.3136 0.96807-0.34436 1.4713-0.045948 0.7519 0.043871 1.7624 0.2429 2.2465 0.16006 0.38924 0.87635 0.37652 1.0527-0.00161 0.21877-0.46898 0.30207-1.4582 0.26923-2.2693-0.015033-0.37125-0.13256-0.61507-0.18253-0.78587-0.05783-0.19767-0.12368-0.37175-0.058531-0.54034 0.013974-0.036162 0.086719-0.076021 0.086719-0.076021z" fill="url(#c)" stroke-width=".075953"/>
<path d="m7.1081 5.1326c0.1512-0.042658 0.2774-0.094878 0.40672-0.17578l-0.17242 1.8029z" fill="url(#m)" stroke-width=".07635"/>
<path d="m7.6228 4.8518c0.14808-0.12411 0.25864-0.35978 0.36608-0.55082l-0.17554 2.8613z" fill="url(#l)" stroke-width=".094128"/>
<path d="m8.098 4.1135c0.10431-0.14147 0.30554-0.22557 0.4161-0.0802l-0.21305 3.6744z" fill="url(#k)" stroke-width=".10985"/>
<path d="m8.6317 4.2224s0.32446 0.6104 0.3029 0.93093c-0.049735 0.73925-0.1709 2.8813-0.1709 2.8813z" fill="url(#j)" stroke-width=".103"/>
<path d="m5.37 5.0784c-0.1512-0.042658-0.2774-0.094878-0.40672-0.17578l0.17242 1.8029z" fill="url(#i)" stroke-width=".07635"/>
<path d="m4.8553 4.7976c-0.14808-0.12411-0.25864-0.35978-0.36608-0.55082l0.17554 2.8613z" fill="url(#h)" stroke-width=".094128"/>
<path d="m4.3802 4.0593c-0.10431-0.14147-0.30554-0.22557-0.4161-0.0802l0.21305 3.6744z" fill="url(#g)" stroke-width=".10985"/>
<path d="m3.8465 4.1682s-0.32446 0.6104-0.3029 0.93093c0.049735 0.73925 0.1709 2.8813 0.1709 2.8813z" fill="url(#f)" stroke-width=".103"/>
<path d="m6.7879 3.1885c-0.09093-0.02983-0.13834-0.034304-0.22486-0.021836 0 0 0.011172 0.15914 0.10506 0.16495 0.083033 0.00513 0.11981-0.14311 0.11981-0.14311z" stroke-width=".095604"/>
</g>
</svg>
