<svg xml:space="preserve" viewBox="0 0 14 14" xmlns:xlink="http://www.w3.org/1999/xlink" xmlns="http://www.w3.org/2000/svg"><defs><radialGradient xlink:href="#a" id="d" cx="6.56" cy="5.76" fx="6.56" fy="5.76" r="1.08" gradientTransform="matrix(.8167 -.87555 1.20387 1.12296 -8.31 4.88)" gradientUnits="userSpaceOnUse"/><radialGradient xlink:href="#a" id="e" cx="6.56" cy="5.76" fx="6.56" fy="5.76" r="1.08" gradientTransform="matrix(1.10494 -.4612 .63413 1.51928 -5.95 -.08)" gradientUnits="userSpaceOnUse"/><radialGradient xlink:href="#a" id="f" cx="6.56" cy="5.76" fx="6.56" fy="5.76" r="1.08" gradientTransform="matrix(.27053 -1.16636 1.60373 .37198 -6.3 12.2)" gradientUnits="userSpaceOnUse"/><radialGradient xlink:href="#a" id="g" cx="6.56" cy="5.76" fx="6.56" fy="5.76" r="1.08" gradientTransform="matrix(1.17896 -.20891 .28726 1.62105 -3.57 -1.37)" gradientUnits="userSpaceOnUse"/><radialGradient xlink:href="#a" id="h" cx="6.56" cy="5.76" fx="6.56" fy="5.76" r="1.08" gradientTransform="matrix(.07223 -1.19514 1.64331 .09931 -4.45 14.67)" gradientUnits="userSpaceOnUse"/><radialGradient xlink:href="#a" id="i" cx="6.56" cy="5.76" fx="6.56" fy="5.76" r="1.08" gradientTransform="matrix(1.19454 -.08167 .1123 1.64247 -1.8 -1.44)" gradientUnits="userSpaceOnUse"/><radialGradient xlink:href="#a" id="j" cx="6.56" cy="5.76" fx="6.56" fy="5.76" r="1.08" gradientTransform="matrix(.03405 -1.19684 1.64564 .04682 -3.33 15.86)" gradientUnits="userSpaceOnUse"/><radialGradient xlink:href="#a" id="k" cx="6.56" cy="5.76" fx="6.56" fy="5.76" r="1.08" gradientTransform="matrix(1.19454 -.08167 .1123 1.64247 -.92 -.5)" gradientUnits="userSpaceOnUse"/><radialGradient xlink:href="#b" id="l" cx="6.56" cy="5.76" fx="6.56" fy="5.76" r="1.08" gradientTransform="matrix(.03405 -1.19684 1.64564 .04682 -2.48 16.64)" gradientUnits="userSpaceOnUse"/><radialGradient xlink:href="#a" id="m" cx="6.56" cy="5.76" fx="6.56" fy="5.76" r="1.08" gradientTransform="matrix(.8167 -.87555 1.20387 1.12296 -8.31 4.88)" gradientUnits="userSpaceOnUse"/><radialGradient xlink:href="#a" id="n" cx="6.56" cy="5.76" fx="6.56" fy="5.76" r="1.08" gradientTransform="matrix(1.10494 -.4612 .63413 1.51928 -5.93 -.04)" gradientUnits="userSpaceOnUse"/><radialGradient xlink:href="#a" id="o" cx="6.56" cy="5.76" fx="6.56" fy="5.76" r="1.08" gradientTransform="matrix(.27053 -1.16636 1.60373 .37198 -6.3 12.2)" gradientUnits="userSpaceOnUse"/><radialGradient xlink:href="#a" id="p" cx="6.56" cy="5.76" fx="6.56" fy="5.76" r="1.08" gradientTransform="matrix(1.17896 -.20891 .28726 1.62105 -3.48 -1.32)" gradientUnits="userSpaceOnUse"/><radialGradient xlink:href="#a" id="q" cx="6.56" cy="5.76" fx="6.56" fy="5.76" r="1.08" gradientTransform="matrix(.07223 -1.19514 1.64331 .09931 -4.45 14.67)" gradientUnits="userSpaceOnUse"/><radialGradient xlink:href="#a" id="r" cx="6.56" cy="5.76" fx="6.56" fy="5.76" r="1.08" gradientTransform="matrix(1.19454 -.08167 .1123 1.64247 -1.64 -1.25)" gradientUnits="userSpaceOnUse"/><radialGradient xlink:href="#a" id="s" cx="6.56" cy="5.76" fx="6.56" fy="5.76" r="1.08" gradientTransform="matrix(.03405 -1.19684 1.64564 .04682 -3.33 15.86)" gradientUnits="userSpaceOnUse"/><radialGradient xlink:href="#a" id="t" cx="6.56" cy="5.76" fx="6.56" fy="5.76" r="1.08" gradientTransform="matrix(1.19454 -.08167 .1123 1.64247 -.73 -.36)" gradientUnits="userSpaceOnUse"/><radialGradient xlink:href="#a" id="u" cx="6.56" cy="5.76" fx="6.56" fy="5.76" r="1.08" gradientTransform="matrix(.03405 -1.19684 1.64564 .04682 -2.48 16.64)" gradientUnits="userSpaceOnUse"/><linearGradient id="b"><stop offset="0" stop-color="#b98126"/><stop offset="1" stop-color="#ffdda9"/></linearGradient><linearGradient id="a"><stop offset="0" stop-color="#b98126"/><stop offset="1" stop-color="#ffdda9"/></linearGradient><filter id="c" x="-.13" y="-.09" width="1.26" height="1.18" color-interpolation-filters="sRGB"><feGaussianBlur stdDeviation=".45"/></filter></defs><circle cx="7" cy="7" fill="#ffe34d" fill-rule="evenodd" r="6.1"/><path style="mix-blend-mode:normal" d="M3.87 1.83c-.42.52-.66.9-.49 1.6l-.5.28c.42 1.5.54 2.81 1.16 4.38.73 1.13 1.4 1.19 2.06 1.1.54 1.98.94 3.03 1.01 4.31.58.18 1.02-.02 1.6-.13.05-1.39.16-2.38.33-3.54.73-.12 1.36-.55 1.5-1.6.44-1.53.45-3.2.39-4.07l-.69.13c-.13-.36-.17-.73-.6-1.09-.6.24-.91.76-1.08 1.25l-.38.01a4 4 0 0 0-.69 1.73c-.2-1.48-.91-2.9-1.71-4.23-.5-.08-.63.08-.83.31-.3-.3-.57-.39-1.08-.44m3.31 6.24c-.11 1.2.38 1.43.89 1.72l-.22 2.13L6.82 8.4Z" fill-rule="evenodd" filter="url(#c)"/><path d="M6.12 7.78c.68 1.89 1.3 3.77 1.42 5.48M8.7 8.75c-.26 1.3-.48 3.47-.46 4.49" fill="none" stroke="#dcaf68" stroke-width=".5" stroke-linecap="round" stroke-linejoin="round"/><g fill-rule="evenodd" stroke-width=".32" stroke-linecap="round" stroke-linejoin="round"><path d="M4.28 6.15c-.2.2-.87.21-1.37-.28-.5-.5-.5-1.5-.5-1.5s.97-.09 1.54.44c.58.54.5 1.15.33 1.34" fill="url(#d)" transform="rotate(27.7 8.22 6.06)"/><path d="M5 6.26c-.26.1-.88-.16-1.14-.82s.17-1.58.17-1.58.92.32 1.22 1.05c.3.72-.01 1.25-.25 1.35" fill="url(#e)" transform="rotate(27.7 8.22 6.06)"/><path d="M5.23 7c-.06.27-.64.62-1.32.45-.68-.18-1.19-1.06-1.19-1.06s.8-.56 1.57-.38c.76.17 1 .74.94 1" fill="url(#f)" transform="rotate(27.7 8.22 6.06)"/><path d="M5.73 7.2c-.27.05-.82-.34-.92-1.04s.5-1.5.5-1.5.83.5.97 1.28c.14.77-.3 1.22-.55 1.26" fill="url(#g)" transform="rotate(27.7 8.22 6.06)"/><path d="M6.06 7.63c-.02.28-.53.72-1.23.66S3.5 7.45 3.5 7.45s.69-.68 1.47-.64c.79.04 1.12.56 1.1.82" fill="url(#h)" transform="rotate(27.7 8.22 6.06)"/><path d="M6.54 8.09c-.28.01-.78-.44-.81-1.14s.66-1.44.66-1.44.76.6.82 1.38-.42 1.18-.67 1.2" fill="url(#i)" transform="rotate(27.7 8.22 6.06)"/><path d="M6.95 8.49c-.01.28-.5.73-1.2.7-.71-.04-1.38-.8-1.38-.8s.67-.7 1.45-.69c.79.02 1.14.53 1.13.79" fill="url(#j)" transform="rotate(27.7 8.22 6.06)"/><path d="M7.42 9.02c-.28.01-.78-.43-.81-1.14-.03-.7.66-1.44.66-1.44s.76.6.82 1.38c.06.79-.42 1.18-.67 1.2" fill="url(#k)" transform="rotate(27.7 8.22 6.06)"/><path d="M7.8 9.26c-.01.28-.5.74-1.21.7-.7-.04-1.37-.8-1.37-.8s.67-.7 1.45-.68c.79.02 1.14.53 1.13.78" fill="url(#l)" transform="rotate(27.7 8.22 6.06)"/></g><g fill-rule="evenodd" stroke-width=".32" stroke-linecap="round" stroke-linejoin="round"><path d="M4.28 6.15c-.2.2-.87.21-1.37-.28-.5-.5-.5-1.5-.5-1.5s.97-.09 1.54.44c.58.54.5 1.15.33 1.34" fill="url(#m)" transform="rotate(58.28 6.06 10.39)scale(.85271)"/><path d="M5.02 6.3c-.25.1-.87-.16-1.13-.82s.17-1.58.17-1.58.91.33 1.22 1.05-.02 1.25-.26 1.35" fill="url(#n)" transform="rotate(58.28 6.06 10.39)scale(.85271)"/><path d="M5.23 7c-.06.27-.64.62-1.32.45-.68-.18-1.19-1.06-1.19-1.06s.8-.56 1.57-.38c.76.17 1 .74.94 1" fill="url(#o)" transform="rotate(58.28 6.06 10.39)scale(.85271)"/><path d="M5.82 7.26C5.55 7.3 5 6.9 4.9 6.2s.51-1.5.51-1.5.82.51.96 1.29c.14.77-.28 1.22-.54 1.26" fill="url(#p)" transform="rotate(58.28 6.06 10.39)scale(.85271)"/><path d="M6.06 7.63c-.02.28-.53.72-1.23.66S3.5 7.45 3.5 7.45s.69-.68 1.47-.64c.79.04 1.12.56 1.1.82" fill="url(#q)" transform="rotate(58.28 6.06 10.39)scale(.85271)"/><path d="M6.7 8.27c-.28.02-.79-.43-.82-1.13s.67-1.45.67-1.45.76.6.82 1.39-.42 1.18-.68 1.2" fill="url(#r)" transform="rotate(58.28 6.06 10.39)scale(.85271)"/><path d="M6.95 8.49c-.01.28-.5.73-1.2.7-.71-.04-1.38-.8-1.38-.8s.67-.7 1.45-.69c.79.02 1.14.53 1.13.79" fill="url(#s)" transform="rotate(58.28 6.06 10.39)scale(.85271)"/><path d="M7.6 9.16c-.28.02-.78-.43-.8-1.13-.04-.7.65-1.45.65-1.45s.77.6.83 1.39-.42 1.18-.68 1.2" fill="url(#t)" transform="rotate(58.28 6.06 10.39)scale(.85271)"/><path d="M7.8 9.26c-.01.28-.5.74-1.21.7-.7-.04-1.37-.8-1.37-.8s.67-.7 1.45-.68c.79.02 1.14.53 1.13.78" fill="url(#u)" transform="rotate(58.28 6.06 10.39)scale(.85271)"/></g></svg>