<svg viewBox="0 0 12.7 12.7" xmlns:xlink="http://www.w3.org/1999/xlink" xmlns="http://www.w3.org/2000/svg"><defs><linearGradient id="a"><stop offset="0" stop-color="#dfb269"/><stop offset=".35" stop-color="#ffcb76"/><stop offset=".63" stop-color="#fdca75"/><stop offset="1" stop-color="#c69d5b"/></linearGradient><linearGradient xlink:href="#a" id="c" x1="5.19" y1="5.48" x2="6.84" y2="6.9" gradientUnits="userSpaceOnUse"/><filter id="b" x="-.11" y="-.11" width="1.22" height="1.21" color-interpolation-filters="sRGB"><feGaussianBlur stdDeviation=".37"/></filter></defs><g fill-rule="evenodd" stroke-linejoin="round"><path d="m2.27 8.86.45.57-.36.48.5.44.4-.43.6.39 3.91-4.63c.39.29.43 1.07.33 1.43 1.17-.02 2.27-1.3 2.22-2.6-.33.14-1.15.15-1.46-.18l.66-.77-.4-.55.42-.47-.53-.47-.43.5-.64-.36-.92 1.11-.79-.44-.3.32.55.74Z" filter="url(#b)" transform="matrix(1.23092 -.04462 .04377 1.20736 -1.67 -.85)" style="mix-blend-mode:normal"/><path fill="#e8d2af" d="m2.99 9.6.38.32-1.07 1.32-.38-.3Z"/><path d="M9.22 4.24c.6.33 1.04.36 1.8.2a3.31 3.25-2.07 0 1-2.18 2.7c.05-.8-.07-1.22-.56-1.74a55.17 54.11-2.07 0 1-2.3-2.85S8.06 3.6 9.21 4.24" fill="#f3f2eb"/><path d="M8.91 7.04c.68-.7 1.49-1.83 1.55-2.46l.5-.07a3.33 3.27-2.07 0 1-2.04 2.53Z" fill="#fff"/><path fill="url(#c)" d="M8.27 1.72s.26.34.75.75c.46.38.9.58.9.58L3.5 11.07s-.48-.11-.99-.52c-.5-.4-.67-.83-.67-.83Z"/><ellipse cx="8.66" cy="-3.75" rx="1.06" ry=".19" transform="matrix(.7848 .61975 -.61014 .7923 0 0)" fill="#f1c070"/><path fill="#e8d2af" d="m9.52 1.54.38.3-.61.75-.38-.3Z"/><path d="M3.73 7.34s.28.46.7.83c.44.37.98.53.98.53l.32-.39s-.5-.21-.94-.57c-.5-.39-.72-.81-.72-.81Zm1.8-2.23s.27.47.7.84c.44.36.98.52.98.52l.32-.39s-.5-.2-.95-.56c-.48-.4-.7-.82-.7-.82Z" fill="#cf7e7e"/></g></svg>