<svg viewBox="0 0 12.7 12.7" xmlns="http://www.w3.org/2000/svg"><defs><filter id="a" x="-.11" y="-.11" width="1.22" height="1.21" color-interpolation-filters="sRGB"><feGaussianBlur stdDeviation=".37"/></filter></defs><g fill-rule="evenodd" stroke-linejoin="round"><path d="m2.23 9.07.45.4-.4.46.54.46.37-.43.44.39 4.33-5.06c.39.29.5 1.17.4 1.53 1.01.08 2.23-1.3 2.04-2.4-.33.13-1.21.1-1.52-.23l.67-.77-.43-.4.42-.48-.53-.47-.42.47-.42-.34-.92 1.06-.66-.47-.3.35.51.6Z" filter="url(#a)" transform="matrix(1.23092 -.04462 .04377 1.20736 -1.67 -.85)"/><path d="M9.48 4.11c.54.3.94.33 1.63.19a3 2.94-2.07 0 1-1.97 2.44c.04-.73-.07-1.11-.51-1.58a49.96 49-2.07 0 1-2.09-2.58s1.9.95 2.94 1.53z" fill="#f3f2eb"/><path fill="#e8d2af" d="m9.56 1.51.34.28-7.67 9.45-.33-.28z"/><path fill="#e4bd7f" d="m8.52 1.7 1.43 1.16-6.71 8.29L1.8 9.98z"/><path d="M3.9 1.65v8.82M2.44 1.65v8.82m.17-8.82v8.82m.64-8.82v8.82m-.42-8.82v8.82m1.26-8.82v8.82m-.41-8.82v8.82" transform="matrix(.7729 .6266 -.76084 .93848 7.98 -1.3)" fill="none" stroke="#000" stroke-opacity=".4" stroke-width=".09"/><g transform="matrix(.76197 .61774 -.76084 .93848 4.44 -4.46)" fill="#891d1d"><path d="M7.19 6.12h1.89v.25H7.19zm0 1.87h1.89v.25H7.19zm0 1.86h1.89v.25H7.19z"/><rect width="1.89" height=".25" x="7.19" y="-4.49" transform="scale(1 -1)" ry="0"/><path d="M7.19 2.61h1.89v-.25H7.19zm0 .12v.23L9.08 4.1v-.22Zm.9 1.14z"/><path d="M9.08 2.73v.23L7.18 4.1v-.22Zm-.91 1.14Zm-.98.77v.23L9.08 6v-.22Zm.9 1.14z"/><path d="M9.08 4.64v.23L7.18 6v-.22Zm-.91 1.14Zm-.98.72v.22l1.89 1.14v-.22Zm.9 1.13z"/><path d="M9.08 6.5v.22l-1.9 1.14v-.22Zm-.91 1.13Zm-.98.74v.23l1.89 1.14v-.22Zm.9 1.14z"/><path d="M9.08 8.37v.23l-1.9 1.14v-.22Zm-.91 1.14Z"/></g><path d="M9.2 6.65c.62-.63 1.35-1.66 1.4-2.23l.45-.06a3.02 2.96-2.07 0 1-1.84 2.29Z" fill="#fff"/></g></svg>