<?xml version="1.0" encoding="UTF-8" standalone="no"?>
<svg
   version="1.1"
   viewBox="0 0 50 50"
   id="svg2017"
   sodipodi:docname="influence.svg"
   inkscape:version="1.2.2 (732a01da63, 2022-12-09)"
   xml:space="preserve"
   xmlns:inkscape="http://www.inkscape.org/namespaces/inkscape"
   xmlns:sodipodi="http://sodipodi.sourceforge.net/DTD/sodipodi-0.dtd"
   xmlns:xlink="http://www.w3.org/1999/xlink"
   xmlns="http://www.w3.org/2000/svg"
   xmlns:svg="http://www.w3.org/2000/svg"><sodipodi:namedview
     id="namedview2019"
     pagecolor="#ffffff"
     bordercolor="#000000"
     borderopacity="0.25"
     inkscape:showpageshadow="2"
     inkscape:pageopacity="0.0"
     inkscape:pagecheckerboard="true"
     inkscape:deskcolor="#d1d1d1"
     showgrid="false"
     inkscape:zoom="16.000001"
     inkscape:cx="21.593749"
     inkscape:cy="19.624999"
     inkscape:window-width="1920"
     inkscape:window-height="1009"
     inkscape:window-x="1912"
     inkscape:window-y="-4"
     inkscape:window-maximized="1"
     inkscape:current-layer="svg2017" /><defs
     id="defs1991"><linearGradient
       inkscape:collect="always"
       id="linearGradient55636"><stop
         style="stop-color:#000000;stop-opacity:1;"
         offset="0"
         id="stop55632" /><stop
         style="stop-color:#000000;stop-opacity:0;"
         offset="1"
         id="stop55634" /></linearGradient><linearGradient
       inkscape:collect="always"
       id="linearGradient54896"><stop
         style="stop-color:#000000;stop-opacity:1;"
         offset="0"
         id="stop54894" /><stop
         style="stop-color:#000000;stop-opacity:0;"
         offset="1"
         id="stop54892" /></linearGradient><filter
       id="a"
       x="-0.1079544"
       y="-0.10818149"
       width="1.2159088"
       height="1.216363"
       color-interpolation-filters="sRGB"><feGaussianBlur
         stdDeviation="2.16"
         id="feGaussianBlur1988" /></filter><radialGradient
       inkscape:collect="always"
       xlink:href="#linearGradient55636"
       id="radialGradient57216"
       cx="22.278297"
       cy="38.671135"
       fx="22.278297"
       fy="38.671135"
       r="4.2947268"
       gradientTransform="matrix(0.80406679,-0.23024937,0.07815495,0.27292931,1.277186,33.262543)"
       gradientUnits="userSpaceOnUse" /><radialGradient
       inkscape:collect="always"
       xlink:href="#linearGradient54896"
       id="radialGradient57218"
       cx="27.813192"
       cy="38.842194"
       fx="27.813192"
       fy="38.842194"
       r="4.6226959"
       gradientTransform="matrix(0.72895057,-0.14287457,0.04475325,0.22833247,5.9654123,34.279169)"
       gradientUnits="userSpaceOnUse" /><filter
       inkscape:collect="always"
       style="color-interpolation-filters:sRGB"
       id="filter68738"
       x="-0.098744914"
       y="-0.11916941"
       width="1.1974898"
       height="1.2383388"><feGaussianBlur
         inkscape:collect="always"
         stdDeviation="1.8054011"
         id="feGaussianBlur68740" /></filter></defs><path
     style="opacity:1;fill:#000000;fill-opacity:1;stroke:none;stroke-width:1;stroke-linecap:round;stroke-dasharray:none;stroke-opacity:1;filter:url(#filter68738)"
     d="m 18.010773,43.297985 c 5.972105,-4.589869 8.799219,-4.007722 14.112864,0.04734 0.709354,0.543035 1.564495,0.237736 2.083503,-0.569861 0.341402,-0.531236 0.2866,-1.318118 -0.409946,-1.836423 -0.989055,-0.735963 -3.196683,-1.672895 -2.385915,-2.058138 l 1.587678,-0.7544 c 0.450216,-0.213924 1.006185,0.82215 1.919282,1.455467 2.828306,1.534493 4.873524,0.590629 6.939044,-1.036205 l -1.111136,-2.756013 c 2.406091,-0.360933 2.904404,-0.99264 4.547795,-3.287531 L 43.19437,30.176777 C 44.827449,29.72528 46.689423,28.031589 47.00595,24.0625 L 44.105982,23.179917 C 45.487,21.889909 45.57995,20.55045 44.25687,16.930758 l -2.794194,0.258043 c 0.98019,-2.248499 1.245234,-4.918758 -3.123699,-7.4160535 L 36.938088,10.558709 C 36.239161,7.8503886 34.388101,6.9786883 29.962406,7.3345971 30.11692,13.153829 31.914132,13.860363 34.7872,14.9375 l 0.625,2 -0.897097,0.510073 c 0.333748,1.266011 0.628049,2.827252 2.136374,3.544844 -0.479218,1.200384 -0.872114,2.312532 -0.0404,4.025889 -1.378109,1.534143 -2.312293,3.125567 -1.875,4.893956 -2.465979,1.045689 -3.562629,2.969641 -2.688611,5.668084 -4.269481,2.355647 -9.035047,2.498785 -14.011373,-0.03458 1.352758,-3.239242 -0.503388,-4.727984 -2.65357,-5.788182 0.258686,-1.606682 -0.231593,-3.143148 -1.856694,-4.573224 0.834006,-1.313181 0.533156,-2.720933 -0.03412,-4.150888 1.261014,-0.551702 1.766058,-1.846201 2.144607,-3.574524 L 14.5372,17 l 1,-2.0625 c 3.087488,-1.183459 4.872998,-2.60195 4.53125,-7.625 -2.542803,0.03576 -5.596855,-0.4254834 -6.913833,3.176777 L 11.901477,9.710898 C 9.0716597,11.30657 7.0467523,14.104666 8.5858353,17.321383 L 6.0385003,16.732995 C 4.1636372,21.393148 5.0552125,21.713966 5.8068062,23.0625 l -2.6812185,0.926777 c 0.1469798,2.878504 1.271517,5.36041 3.6084551,6.296875 L 4.840277,32.330806 c 1.2318665,1.79228 2.2250769,3.015834 4.6464466,3.495558 l -1.3147208,2.750651 c 0,-0.125522 3.1243742,3.231463 6.9810752,0.977283 0.924723,-0.540486 1.452008,-1.569952 2.045481,-1.303099 l 1.496594,0.672939 c 0.598614,0.269165 -1.606841,1.417294 -1.952737,1.664796 -1.014593,0.725979 -1.145046,1.453597 -0.989256,1.852886 0.272928,0.699517 1.128238,1.637529 2.257613,0.856165 z"
     id="path57092"
     sodipodi:nodetypes="ccsssscccccccccccccccccccccccccccccccccccccsssssc" /><path
     style="opacity:1;fill:none;fill-opacity:1;stroke:#00b813;stroke-width:1.782;stroke-linecap:round;stroke-dasharray:none;stroke-opacity:1"
     d="m 14.678866,12.914902 c 0,0 -5.0566202,5.448434 -4.66305,11.863962 0.208671,3.401526 1.744363,6.887534 4.069726,9.378843 2.667881,2.858268 6.162674,4.57254 11.178876,4.623577 2.68323,0.02729 4.735341,1.091047 7.575445,3.288319"
     id="path53352"
     sodipodi:nodetypes="csssc" /><path
     style="fill:none;fill-opacity:1;stroke:#00b813;stroke-width:1.782;stroke-linecap:round;stroke-dasharray:none;stroke-opacity:1"
     d="m 35.57619,13.091679 c 0,0 4.924036,5.271657 4.530467,11.687185 -0.208671,3.401526 -1.744363,6.887534 -4.069726,9.378843 -2.667881,2.858268 -6.162675,4.57254 -11.178876,4.623577 -2.68323,0.02729 -4.735342,1.091047 -7.575446,3.288319"
     id="path53352-6"
     sodipodi:nodetypes="csssc" /><path
     style="fill:#00b813;fill-opacity:1;stroke-width:0.727413"
     d="m 10.078068,25.48628 c -0.6239786,-2.580257 0.379003,-3.836121 3.105458,-3.680453 0.638102,2.489794 -0.342532,3.672744 -3.105458,3.680453 z"
     id="path51690-9-2-3-6"
     sodipodi:nodetypes="ccc" /><path
     style="fill:#00b813;fill-opacity:1;stroke-width:0.727413"
     d="m 10.502532,19.824439 c 0.534028,-2.600362 1.976272,-3.309653 4.376964,-2.007931 -0.482733,2.524522 -1.873711,3.177353 -4.376964,2.007931 z"
     id="path51690-9-2-3-6-8"
     sodipodi:nodetypes="ccc" /><path
     style="fill:#00b813;fill-opacity:1;stroke-width:0.917731"
     d="m 16.222238,36.782161 c -2.91194,-1.65457 -3.200731,-3.661629 -0.702856,-6.034686 2.840941,1.563451 3.081968,3.486984 0.702856,6.034686 z"
     id="path51690-9-2-3-6-5"
     sodipodi:nodetypes="ccc" /><path
     style="fill:#00b813;fill-opacity:1;stroke-width:0.917731"
     d="m 12.110354,31.925959 c -2.2581309,-2.473428 -1.912568,-4.471496 1.19636,-5.956523 2.218763,2.36483 1.853588,4.268701 -1.19636,5.956523 z"
     id="path51690-9-2-3-6-6"
     sodipodi:nodetypes="ccc" /><path
     style="fill:#00b813;fill-opacity:1;stroke-width:0.727413"
     d="m 40.098101,25.48628 c 0.623977,-2.580257 -0.379003,-3.836121 -3.105459,-3.680453 -0.638101,2.489794 0.342532,3.672744 3.105459,3.680453 z"
     id="path51690-9-2-3-6-66"
     sodipodi:nodetypes="ccc" /><path
     style="fill:#00b813;fill-opacity:1;stroke-width:0.727413"
     d="m 39.673636,19.824439 c -0.534027,-2.600362 -1.976271,-3.309653 -4.376964,-2.007931 0.482733,2.524522 1.873711,3.177353 4.376964,2.007931 z"
     id="path51690-9-2-3-6-8-3"
     sodipodi:nodetypes="ccc" /><path
     style="fill:#00b813;fill-opacity:1;stroke-width:0.917731"
     d="m 33.95393,36.782161 c 2.911941,-1.65457 3.200732,-3.661629 0.702857,-6.034686 -2.840943,1.563451 -3.081968,3.486984 -0.702857,6.034686 z"
     id="path51690-9-2-3-6-5-9"
     sodipodi:nodetypes="ccc" /><path
     style="fill:#00b813;fill-opacity:1;stroke-width:0.917731"
     d="m 38.065815,31.925959 c 2.258129,-2.473428 1.912567,-4.471496 -1.196362,-5.956523 -2.218761,2.36483 -1.853587,4.268701 1.196362,5.956523 z"
     id="path51690-9-2-3-6-6-9"
     sodipodi:nodetypes="ccc" /><path
     style="opacity:1;fill:#00b813;fill-opacity:1;stroke-width:1.25498"
     d="m 13.859459,14.065363 c 3.786507,0.05113 5.584739,-2.01789 5.628185,-6.1113253 -4.399662,-0.5538346 -6.212423,1.3804679 -5.628185,6.1113253 z"
     id="path51690"
     sodipodi:nodetypes="ccc" /><path
     style="opacity:1;fill:#00b813;fill-opacity:1;stroke-width:1.25498"
     d="m 10.945685,18.974752 c 3.98203,-2.262596 4.376941,-5.007215 0.961151,-8.252331 -3.8849385,2.137994 -4.2145378,4.768393 -0.961151,8.252331 z"
     id="path51690-9"
     sodipodi:nodetypes="ccc" /><path
     style="opacity:1;fill:#00b813;fill-opacity:1;stroke-width:1.07599"
     d="M 9.8613583,23.871327 C 11.483176,20.295168 10.373942,18.192399 6.3692601,17.662882 4.7519945,21.103683 5.8489695,23.094313 9.8613583,23.871327 Z"
     id="path51690-9-2"
     sodipodi:nodetypes="ccc" /><path
     style="opacity:1;fill:#00b813;fill-opacity:1;stroke-width:1.32103"
     d="M 11.439598,29.12587 C 11.069292,24.319119 8.632175,22.712878 4.0104462,24.511821 4.3055921,29.170253 6.6631915,30.663094 11.439598,29.12587 Z"
     id="path51690-9-2-8"
     sodipodi:nodetypes="ccc" /><path
     style="opacity:1;fill:#00b813;fill-opacity:1;stroke-width:1.13262"
     d="m 13.23295,32.792781 c -2.26362,-3.458473 -4.7581294,-3.658643 -7.4875001,-0.39808 2.1458855,3.37808 4.5338131,3.525895 7.4875001,0.39808 z"
     id="path51690-9-2-8-5"
     sodipodi:nodetypes="ccc" /><path
     style="opacity:1;fill:#00b813;fill-opacity:1;stroke-width:1.25649"
     d="M 17.256307,35.848038 C 13.3166,33.334317 10.525492,34.10688 8.9656022,38.365869 c 3.7775158,2.480584 6.4305588,1.698055 8.2907048,-2.517831 z"
     id="path51690-9-2-8-5-0"
     sodipodi:nodetypes="ccc" /><path
     style="fill:#00b813;fill-opacity:1;stroke-width:0.917731"
     d="M 14.119048,34.66015 C 10.820697,35.241426 9.3188329,33.879041 9.7308333,30.458364 12.916394,29.852111 14.328219,31.180611 14.119048,34.66015 Z"
     id="path51690-9-2-3-6-5-92"
     sodipodi:nodetypes="ccc" /><path
     style="fill:#00b813;fill-opacity:1;stroke-width:1.25498"
     d="m 36.262866,14.065363 c -4.014627,0.188006 -5.395719,-2.131302 -5.628185,-6.1113253 4.399661,-0.5538346 6.212423,1.3804679 5.628185,6.1113253 z"
     id="path51690-6"
     sodipodi:nodetypes="ccc" /><path
     style="fill:#00b813;fill-opacity:1;stroke-width:1.25498"
     d="m 39.177018,18.974452 c -3.982029,-2.262596 -4.376941,-5.007215 -0.96115,-8.252331 3.884937,2.137995 4.214537,4.768394 0.96115,8.252331 z"
     id="path51690-9-3"
     sodipodi:nodetypes="ccc" /><path
     style="fill:#00b813;fill-opacity:1;stroke-width:1.07599"
     d="m 40.260541,23.871327 c -1.621819,-3.576159 -0.512584,-5.678928 3.492097,-6.208445 1.617267,3.440801 0.520291,5.431431 -3.492097,6.208445 z"
     id="path51690-9-2-3"
     sodipodi:nodetypes="ccc" /><path
     style="fill:#00b813;fill-opacity:1;stroke-width:1.32103"
     d="m 38.682693,29.12587 c 0.370306,-4.806751 2.807422,-6.412992 7.429151,-4.614049 -0.295147,4.658432 -2.652746,6.151273 -7.429151,4.614049 z"
     id="path51690-9-2-8-7"
     sodipodi:nodetypes="ccc" /><path
     style="fill:#00b813;fill-opacity:1;stroke-width:1.13262"
     d="m 36.889523,32.792781 c 2.263619,-3.458473 4.758129,-3.658643 7.4875,-0.39808 -2.145885,3.37808 -4.533813,3.525895 -7.4875,0.39808 z"
     id="path51690-9-2-8-5-9"
     sodipodi:nodetypes="ccc" /><path
     style="fill:#00b813;fill-opacity:1;stroke-width:1.25649"
     d="m 32.866166,35.848038 c 3.939706,-2.513721 6.730815,-1.741158 8.290704,2.517831 -3.777515,2.480584 -6.430558,1.698055 -8.290704,-2.517831 z"
     id="path51690-9-2-8-5-0-9"
     sodipodi:nodetypes="ccc" /><path
     style="opacity:1;fill:none;fill-opacity:1;stroke:url(#radialGradient57216);stroke-width:1.188;stroke-linecap:round;stroke-dasharray:none;stroke-opacity:1"
     d="m 18.036953,39.549956 c 2.326525,-1.466483 5.063801,-2.243533 7.401454,-2.321609"
     id="path54627"
     sodipodi:nodetypes="cc" /><path
     style="fill:none;fill-opacity:1;stroke:url(#radialGradient57218);stroke-width:1.18778;stroke-linecap:round;stroke-dasharray:none;stroke-opacity:1"
     d="m 32.393676,38.730354 c -2.747724,1.125281 -5.56388,1.450596 -8.057612,1.639204"
     id="path54627-4"
     sodipodi:nodetypes="cc" /><path
     style="fill:#00b813;fill-opacity:1;stroke-width:0.917731"
     d="m 36.057134,34.66015 c 3.298351,0.581276 4.800215,-0.781109 4.388215,-4.201786 -3.185561,-0.606253 -4.597386,0.722247 -4.388215,4.201786 z"
     id="path51690-9-2-3-6-5-92-5"
     sodipodi:nodetypes="ccc" /></svg>
