<svg version="1.1" viewBox="0 0 50 50" xml:space="preserve" xmlns:xlink="http://www.w3.org/1999/xlink" xmlns="http://www.w3.org/2000/svg"><defs><radialGradient xlink:href="#a" id="d" cx="22.28" cy="38.67" fx="22.28" fy="38.67" r="4.29" gradientTransform="matrix(.80407 -.23025 .07815 .27293 1.28 33.26)" gradientUnits="userSpaceOnUse"/><radialGradient xlink:href="#b" id="e" cx="27.81" cy="38.84" fx="27.81" fy="38.84" r="4.62" gradientTransform="matrix(.72895 -.14287 .04475 .22833 5.97 34.28)" gradientUnits="userSpaceOnUse"/><linearGradient id="a"><stop offset="0" stop-color="#000" stop-opacity="1"/><stop offset="1" stop-color="#000" stop-opacity="0"/></linearGradient><linearGradient id="b"><stop offset="0" stop-color="#000" stop-opacity="1"/><stop offset="1" stop-color="#000" stop-opacity="0"/></linearGradient><filter x="-.11" y="-.11" width="1.22" height="1.22" color-interpolation-filters="sRGB"><feGaussianBlur stdDeviation="2.16"/></filter><filter id="c" x="-.1" y="-.12" width="1.2" height="1.24" color-interpolation-filters="sRGB"><feGaussianBlur stdDeviation="1.81"/></filter></defs><path d="M18.01 43.3c5.97-4.6 8.8-4.01 14.11.05.71.54 1.57.23 2.09-.57.34-.54.28-1.32-.41-1.84-1-.74-3.2-1.67-2.39-2.06l1.59-.75c.45-.22 1 .82 1.92 1.45 2.83 1.54 4.87.6 6.94-1.03l-1.11-2.76c2.4-.36 2.9-1 4.54-3.29l-2.1-2.32c1.64-.45 3.5-2.15 3.82-6.12l-2.9-.88c1.38-1.29 1.47-2.63.15-6.25l-2.8.26c.98-2.25 1.25-4.92-3.12-7.42l-1.4.79c-.7-2.71-2.55-3.58-6.98-3.23.16 5.82 1.95 6.53 4.83 7.6l.62 2-.9.52c.34 1.26.63 2.82 2.14 3.54-.48 1.2-.87 2.31-.04 4.03-1.38 1.53-2.31 3.12-1.87 4.9-2.47 1.04-3.57 2.96-2.7 5.66-4.26 2.36-9.03 2.5-14-.03 1.35-3.24-.5-4.73-2.66-5.8.26-1.6-.23-3.14-1.85-4.57.83-1.3.53-2.72-.04-4.15 1.26-.55 1.77-1.84 2.15-3.57l-1.1-.46 1-2.06c3.08-1.19 4.87-2.6 4.53-7.63-2.54.04-5.6-.42-6.92 3.18L11.9 9.7c-2.83 1.6-4.85 4.4-3.31 7.61l-2.55-.59c-1.88 4.66-.98 4.98-.23 6.33L3.13 24c.14 2.88 1.27 5.36 3.6 6.3l-1.89 2.04c1.23 1.8 2.23 3.02 4.65 3.5l-1.32 2.75c0-.13 3.13 3.23 6.98.97.93-.54 1.46-1.57 2.05-1.3l1.5.67c.6.27-1.61 1.42-1.96 1.67-1.01.72-1.14 1.45-.99 1.85.28.7 1.13 1.64 2.26.86z" opacity="1" fill="#000" fill-opacity="1" stroke="none" stroke-width="1" stroke-linecap="round" stroke-dasharray="none" stroke-opacity="1" filter="url(#c)"/><path d="M14.68 12.91s-5.06 5.45-4.66 11.87c.2 3.4 1.74 6.89 4.07 9.38 2.66 2.86 6.16 4.57 11.17 4.62 2.69.03 4.74 1.1 7.58 3.29" opacity="1" fill="none" fill-opacity="1" stroke="#00b813" stroke-width="1.78" stroke-linecap="round" stroke-dasharray="none" stroke-opacity="1"/><path d="M35.58 13.1s4.92 5.26 4.53 11.68c-.21 3.4-1.75 6.89-4.07 9.38-2.67 2.86-6.17 4.57-11.18 4.62-2.69.03-4.74 1.1-7.58 3.29" fill="none" fill-opacity="1" stroke="#00b813" stroke-width="1.78" stroke-linecap="round" stroke-dasharray="none" stroke-opacity="1"/><path d="M10.08 25.49c-.63-2.58.38-3.84 3.1-3.68.64 2.49-.34 3.67-3.1 3.68zM10.5 19.82c.54-2.6 1.98-3.3 4.38-2-.48 2.52-1.87 3.17-4.38 2z" fill="#00b813" fill-opacity="1" stroke-width=".73"/><path d="M16.22 36.78c-2.91-1.65-3.2-3.66-.7-6.03 2.84 1.56 3.08 3.48.7 6.03zM12.11 31.93c-2.26-2.48-1.91-4.48 1.2-5.96 2.22 2.36 1.85 4.27-1.2 5.96z" fill="#00b813" fill-opacity="1" stroke-width=".92"/><path d="M40.1 25.49c.62-2.58-.38-3.84-3.1-3.68-.65 2.49.34 3.67 3.1 3.68zM39.67 19.82c-.53-2.6-1.97-3.3-4.37-2 .48 2.52 1.87 3.17 4.37 2z" fill="#00b813" fill-opacity="1" stroke-width=".73"/><path d="M33.95 36.78c2.92-1.65 3.2-3.66.7-6.03-2.83 1.56-3.08 3.48-.7 6.03zM38.07 31.93c2.25-2.48 1.9-4.48-1.2-5.96-2.22 2.36-1.85 4.27 1.2 5.96z" fill="#00b813" fill-opacity="1" stroke-width=".92"/><path d="M13.86 14.07c3.79.05 5.58-2.02 5.63-6.12-4.4-.55-6.21 1.38-5.63 6.12z" opacity="1" fill="#00b813" fill-opacity="1" stroke-width="1.25"/><path d="M10.95 18.97c3.98-2.26 4.37-5 .96-8.25-3.89 2.14-4.22 4.77-.96 8.25z" opacity="1" fill="#00b813" fill-opacity="1" stroke-width="1.25"/><path d="M9.86 23.87c1.62-3.57.51-5.68-3.5-6.2-1.6 3.43-.51 5.42 3.5 6.2Z" opacity="1" fill="#00b813" fill-opacity="1" stroke-width="1.08"/><path d="M11.44 29.13c-.37-4.81-2.8-6.42-7.43-4.62.3 4.66 2.65 6.15 7.43 4.62Z" opacity="1" fill="#00b813" fill-opacity="1" stroke-width="1.32"/><path d="M13.23 32.8c-2.26-3.47-4.76-3.67-7.48-.4 2.14 3.37 4.53 3.52 7.48.4z" opacity="1" fill="#00b813" fill-opacity="1" stroke-width="1.13"/><path d="M17.26 35.85c-3.94-2.52-6.73-1.74-8.3 2.52 3.78 2.48 6.44 1.7 8.3-2.52z" opacity="1" fill="#00b813" fill-opacity="1" stroke-width="1.26"/><path d="M14.12 34.66c-3.3.58-4.8-.78-4.39-4.2 3.19-.6 4.6.72 4.39 4.2Z" fill="#00b813" fill-opacity="1" stroke-width=".92"/><path d="M36.26 14.07c-4.01.18-5.4-2.14-5.63-6.12 4.4-.55 6.22 1.38 5.63 6.12z" fill="#00b813" fill-opacity="1" stroke-width="1.25"/><path d="M39.18 18.97c-3.99-2.26-4.38-5-.96-8.25 3.88 2.14 4.21 4.77.96 8.25z" fill="#00b813" fill-opacity="1" stroke-width="1.25"/><path d="M40.26 23.87c-1.62-3.57-.51-5.68 3.5-6.2 1.61 3.43.51 5.42-3.5 6.2z" fill="#00b813" fill-opacity="1" stroke-width="1.08"/><path d="M38.68 29.13c.37-4.81 2.81-6.42 7.43-4.62-.3 4.66-2.65 6.15-7.43 4.62z" fill="#00b813" fill-opacity="1" stroke-width="1.32"/><path d="M36.89 32.8c2.26-3.47 4.76-3.67 7.49-.4-2.15 3.37-4.54 3.52-7.49.4z" fill="#00b813" fill-opacity="1" stroke-width="1.13"/><path d="M32.87 35.85c3.94-2.52 6.73-1.74 8.29 2.52-3.78 2.48-6.43 1.7-8.3-2.52z" fill="#00b813" fill-opacity="1" stroke-width="1.26"/><path d="M18.04 39.55a15.33 15.33 0 0 1 7.4-2.32" opacity="1" fill="none" fill-opacity="1" stroke="url(#d)" stroke-width="1.19" stroke-linecap="round" stroke-dasharray="none" stroke-opacity="1"/><path d="M32.4 38.73a26.11 26.11 0 0 1-8.06 1.64" fill="none" fill-opacity="1" stroke="url(#e)" stroke-width="1.19" stroke-linecap="round" stroke-dasharray="none" stroke-opacity="1"/><path d="M36.06 34.66c3.3.58 4.8-.78 4.39-4.2-3.19-.6-4.6.72-4.4 4.2z" fill="#00b813" fill-opacity="1" stroke-width=".92"/></svg>