<?xml version="1.0" encoding="UTF-8" standalone="no"?>
<svg
   viewBox="0 0 12.7 12.7"
   version="1.1"
   id="svg1208"
   sodipodi:docname="knights.svg"
   inkscape:version="1.2.2 (732a01da63, 2022-12-09)"
   xml:space="preserve"
   xmlns:inkscape="http://www.inkscape.org/namespaces/inkscape"
   xmlns:sodipodi="http://sodipodi.sourceforge.net/DTD/sodipodi-0.dtd"
   xmlns:xlink="http://www.w3.org/1999/xlink"
   xmlns="http://www.w3.org/2000/svg"
   xmlns:svg="http://www.w3.org/2000/svg"><sodipodi:namedview
     id="namedview1210"
     pagecolor="#ffffff"
     bordercolor="#000000"
     borderopacity="0.25"
     inkscape:showpageshadow="2"
     inkscape:pageopacity="0.0"
     inkscape:pagecheckerboard="0"
     inkscape:deskcolor="#d1d1d1"
     showgrid="false"
     inkscape:zoom="64"
     inkscape:cx="3.109375"
     inkscape:cy="8.0703125"
     inkscape:window-width="1920"
     inkscape:window-height="1111"
     inkscape:window-x="-9"
     inkscape:window-y="-9"
     inkscape:window-maximized="1"
     inkscape:current-layer="g1206" /><defs
     id="defs1186"><linearGradient
       inkscape:collect="always"
       id="linearGradient90755"><stop
         style="stop-color:#ffffff;stop-opacity:1;"
         offset="0"
         id="stop90751" /><stop
         style="stop-color:#c4c4c4;stop-opacity:1;"
         offset="1"
         id="stop90753" /></linearGradient><linearGradient
       inkscape:collect="always"
       id="linearGradient51034"><stop
         style="stop-color:#000000;stop-opacity:1;"
         offset="0"
         id="stop51030" /><stop
         style="stop-color:#000000;stop-opacity:0;"
         offset="1"
         id="stop51032" /></linearGradient><linearGradient
       inkscape:collect="always"
       id="linearGradient51026"><stop
         style="stop-color:#000000;stop-opacity:1;"
         offset="0"
         id="stop51022" /><stop
         style="stop-color:#000000;stop-opacity:0"
         offset="1"
         id="stop51024" /></linearGradient><linearGradient
       inkscape:collect="always"
       id="linearGradient50257"><stop
         style="stop-color:#000000;stop-opacity:1;"
         offset="0.40127388"
         id="stop50253" /><stop
         style="stop-color:#000000;stop-opacity:0;"
         offset="1"
         id="stop50255" /></linearGradient><linearGradient
       id="a"><stop
         offset="0"
         stop-color="#000"
         stop-opacity=".15"
         id="stop1173" /><stop
         offset="1"
         stop-color="#000"
         stop-opacity=".05"
         id="stop1175" /></linearGradient><linearGradient
       id="linearGradient1180"><stop
         offset="0"
         stop-color="#ffc6f9"
         stop-opacity="1"
         id="stop1178" /></linearGradient><linearGradient
       xlink:href="#a"
       id="c"
       x1="8.78"
       y1="10.4"
       x2="10.09"
       y2="5.32"
       gradientUnits="userSpaceOnUse"
       gradientTransform="matrix(.90646 0 0 .90646 .5 .44)" /><filter
       id="b"
       x="-0.10936089"
       y="-0.10665691"
       width="1.2187218"
       height="1.2133138"
       color-interpolation-filters="sRGB"><feGaussianBlur
         stdDeviation="0.48528895"
         id="feGaussianBlur1183" /></filter><linearGradient
       inkscape:collect="always"
       xlink:href="#linearGradient50257"
       id="linearGradient50259"
       x1="7.4653063"
       y1="8.005825"
       x2="7.1191607"
       y2="6.8169737"
       gradientUnits="userSpaceOnUse" /><filter
       inkscape:collect="always"
       style="color-interpolation-filters:sRGB"
       id="filter50261"
       x="-0.40333083"
       y="-0.22761095"
       width="1.8066617"
       height="1.4552219"><feGaussianBlur
         inkscape:collect="always"
         stdDeviation="0.078464442"
         id="feGaussianBlur50263" /></filter><linearGradient
       inkscape:collect="always"
       xlink:href="#linearGradient51026"
       id="linearGradient51028"
       x1="8.75103"
       y1="9.256011"
       x2="8.4671211"
       y2="8.703125"
       gradientUnits="userSpaceOnUse" /><linearGradient
       inkscape:collect="always"
       xlink:href="#linearGradient51034"
       id="linearGradient51036"
       x1="8.9374971"
       y1="8.3996067"
       x2="8.7883978"
       y2="8.6227007"
       gradientUnits="userSpaceOnUse" /><filter
       inkscape:collect="always"
       style="color-interpolation-filters:sRGB"
       id="filter72635"
       x="-0.28619446"
       y="-0.68333675"
       width="1.5723889"
       height="2.368108"><feGaussianBlur
         inkscape:collect="always"
         stdDeviation="0.093032668"
         id="feGaussianBlur72637" /></filter><filter
       inkscape:collect="always"
       style="color-interpolation-filters:sRGB"
       id="filter72635-2"
       x="-0.38873507"
       y="-0.1743623"
       width="1.7774701"
       height="1.3487246"><feGaussianBlur
         inkscape:collect="always"
         stdDeviation="0.093032668"
         id="feGaussianBlur72637-8" /></filter><filter
       inkscape:collect="always"
       style="color-interpolation-filters:sRGB"
       id="filter90747"
       x="-0.097049441"
       y="-0.098963473"
       width="1.1941116"
       height="1.1979539"><feGaussianBlur
         inkscape:collect="always"
         stdDeviation="0.11084243"
         id="feGaussianBlur90749" /></filter><radialGradient
       inkscape:collect="always"
       xlink:href="#linearGradient90755"
       id="radialGradient90757"
       cx="3.7833271"
       cy="4.7654305"
       fx="3.7833271"
       fy="4.7654305"
       r="0.65534323"
       gradientTransform="matrix(1.1261624,0,0,1.1481422,-0.47731369,-0.70596148)"
       gradientUnits="userSpaceOnUse" /><filter
       inkscape:collect="always"
       style="color-interpolation-filters:sRGB"
       id="filter90763"
       x="-0.10604629"
       y="-0.11007795"
       width="1.2120926"
       height="1.2201559"><feGaussianBlur
         inkscape:collect="always"
         stdDeviation="0.37985099"
         id="feGaussianBlur90765" /></filter></defs><g
     transform="matrix(1.23173 0 0 1.20815 -1.4 -1.14)"
     id="g1206"><path
       style="opacity:1;fill:#000000;fill-opacity:1;stroke:none;stroke-width:0.045906;stroke-linecap:round;stroke-linejoin:round;stroke-dasharray:none;stroke-opacity:1;filter:url(#filter90763)"
       d="M 5.8306651,9.7282343 C 6.6462951,10.33828 7.5518894,10.416378 8.6717462,10.21655 L 8.5575776,8.2184021 C 8.7599848,9.5354841 9.167962,9.7193258 9.6929217,9.6507314 10.103213,9.5971203 10.52192,9.0435218 10.473075,8.4770621 L 10.32085,6.711708 10.498445,6.2331871 10.409647,5.4701403 10.511131,5.1985474 10.371591,4.7588255 C 10.522425,4.3837686 10.573434,4.0087117 10.625299,3.6336548 10.287059,3.7357073 9.9869081,3.863648 9.7500061,4.0345777 L 9.6104666,3.9311137 C 9.6385502,3.7408766 9.6161361,3.5609361 9.5597249,3.3879278 9.2779926,3.4789941 9.1064464,3.6075059 8.9761961,3.7500517 7.6087398,3.8378748 7.1664654,4.2642965 6.7689347,4.7070935 L 6.0078101,4.4742995 c 0,0 0.4396934,-0.8966743 0.431304,-1.2803666 C 6.4269507,2.6376349 6.1535651,2.0695189 5.1959439,2.1075612 3.9257238,2.1580217 4.0860997,2.7880189 4.0669424,3.2779973 4.0527267,3.641588 4.1937965,4.0863096 4.1937965,4.0863096 2.5334972,4.4243856 2.2693447,5.4781357 2.3010432,6.6960965 1.6201696,8.067707 2.3643919,9.3788479 2.9136365,9.8109367 3.8985546,10.585768 4.6466883,10.402665 5.0785358,10.261793 5.4554721,10.138833 5.8306651,9.7282343 5.8306651,9.7282343 Z"
       id="path90591"
       sodipodi:nodetypes="cccssccccccccccccsssccssc" /><g
       id="g78564"
       transform="matrix(1.0851229,0,0,1.0851229,0.41320421,-0.69722187)"><path
         style="opacity:1;fill:#e7be89;fill-opacity:1;stroke:none;stroke-width:0.23117;stroke-linecap:round;stroke-linejoin:round;stroke-dasharray:none;stroke-opacity:1"
         d="M 3.8449477,4.467833 3.2867897,5.2502793 4.0605997,6.6923085 5.0690898,5.6318028 4.8661232,4.5518975 Z"
         id="path66197"
         sodipodi:nodetypes="cccccc" /><path
         style="opacity:1;fill:#e45349;fill-opacity:1;stroke:none;stroke-width:0.23117;stroke-linecap:round;stroke-linejoin:round;stroke-dasharray:none;stroke-opacity:1"
         d="m 3.7117509,4.6812275 c -0.049541,0.2948393 0.2094163,0.7403944 0.5392847,0.782755 0.4414233,0.056686 0.6202033,-0.4948657 0.6742882,-0.5240219 0,0 0.067073,-0.056665 0.1076376,-0.058026 C 5.3649069,4.8707976 5.7500373,5.0950359 5.8854122,5.4034015 6.4155665,6.6110217 5.1551456,9.3021305 5.1551456,9.3021305 4.2501262,9.6453952 3.7214225,9.4256012 2.858841,9.1100851 3.1943051,7.2862598 2.0064585,8.1217029 1.9031033,6.9050169 1.8479442,6.6299285 1.760639,5.2877021 2.790253,4.7727508 2.932632,4.7015414 3.0649695,4.6393281 3.2215997,4.613999 3.3691597,4.590137 3.7290663,4.578176 3.7117509,4.6812275 Z"
         id="path66199"
         sodipodi:nodetypes="ssssscccsss" /><path
         style="opacity:0.418868;mix-blend-mode:normal;fill:none;fill-opacity:1;stroke:#000000;stroke-width:0.23117;stroke-linecap:round;stroke-linejoin:round;stroke-dasharray:none;stroke-opacity:1;filter:url(#filter72635)"
         d="m 3.7289252,4.6198854 c 0,0 0.3057403,0.4608238 0.5471663,0.4938304 0.2345813,0.032071 0.6368657,-0.3200753 0.6368657,-0.3200753"
         id="path72633"
         sodipodi:nodetypes="csc" /><path
         style="opacity:1;fill:#e7be89;fill-opacity:1;stroke:none;stroke-width:0.23117;stroke-linecap:round;stroke-linejoin:round;stroke-dasharray:none;stroke-opacity:1"
         d="M 4.0428731,4.9765407 C 4.2096924,5.1057328 4.4855774,5.1038181 4.6707688,5.0039757 5.0719819,4.7876694 5.3318055,4.2833776 5.388364,3.8242695 5.4168822,3.5927759 5.3524709,3.3124031 5.1820554,3.1566838 4.8846867,2.8849594 4.3816942,2.7781549 4.0069933,2.9189135 3.7852809,3.0022011 3.6091219,3.2487814 3.5674663,3.4859041 3.4771184,4.0002059 3.6347785,4.6604944 4.0428731,4.9765407 Z"
         id="path60763"
         sodipodi:nodetypes="sssssss" /><path
         style="opacity:1;fill:#b1b1b1;fill-opacity:1;stroke:none;stroke-width:0.045906;stroke-linecap:round;stroke-linejoin:round;stroke-dasharray:none;stroke-opacity:1"
         d="M 5.4174503,3.5049786 C 5.2934196,3.6114697 4.9803895,3.6968183 4.7290736,3.6733768 4.4169547,3.6442639 4.1836245,3.4495279 4.0025083,3.5407742 3.8571329,3.6140142 3.8456762,3.8679968 3.7681084,4.0131766 3.6908174,4.1578372 3.6262782,4.207526 3.5545556,4.1583872 3.4885851,4.1131893 3.4790965,3.8067614 3.4822515,3.6139342 c 0.00377,-0.2303645 0.00753,-0.4991684 0.1690223,-0.6603347 0.1300793,-0.129816 0.3842737,-0.19602 0.5646554,-0.2209147 0.1868131,-0.025782 0.4575309,-0.039001 0.6380473,0.016396 0.157372,0.048295 0.3178013,0.1354298 0.432096,0.2558306 0.1145168,0.1206347 0.2181042,0.4256051 0.1313778,0.5000672 z"
         id="path78665"
         sodipodi:nodetypes="sssssssssss" /><path
         style="opacity:1;fill:#b1b1b1;fill-opacity:1;stroke:none;stroke-width:0.045906;stroke-linecap:round;stroke-linejoin:round;stroke-dasharray:none;stroke-opacity:1"
         d="M 6.0962744,5.385578 C 6.0243682,5.1383202 5.6035385,4.9475226 5.2865233,4.9182075 c 0,0 -0.1089509,0.5799555 -0.4453256,0.9271091 C 4.4675462,6.2309414 3.5405565,6.3025671 3.5405565,6.3025671 l 1.4351903,1.6095217 z"
         id="path80899"
         sodipodi:nodetypes="ccsccc" /></g><path
       style="opacity:0.686792;mix-blend-mode:normal;fill:none;fill-opacity:1;stroke:#000000;stroke-width:0.23117;stroke-linecap:round;stroke-linejoin:round;stroke-dasharray:none;stroke-opacity:1;filter:url(#filter72635-2)"
       d="M 6.4086077,5.4891171 C 6.0459712,5.9657012 5.7689287,6.6269565 5.5368999,7.4325613"
       id="path72633-7"
       sodipodi:nodetypes="cc"
       transform="matrix(1.0851229,0,0,1.0851229,-0.16107155,-1.0743134)" /><g
       id="g78575"
       transform="matrix(1.0851229,0,0,1.0851229,0.18933391,-0.81630335)"><path
         style="fill:#ffc64f;fill-opacity:1;stroke:none;stroke-width:0.356596;stroke-linecap:round;stroke-linejoin:round;stroke-dasharray:none;stroke-opacity:1"
         d="m 8.6577618,5.5089393 c 0,0 0.2918254,-0.041004 0.389248,-0.1400644 0.2538267,-0.2580939 0.3606341,-1.0329746 0.3606341,-1.0329746 0,0 -0.6471512,0.2983791 -0.7842278,0.6011095 -0.078522,0.1734138 0.034345,0.5719295 0.034346,0.5719295 z"
         id="path50200-8"
         sodipodi:nodetypes="cscsc" /><path
         style="opacity:1;fill:#ffc64f;fill-opacity:1;stroke:none;stroke-width:0.39512;stroke-linecap:round;stroke-linejoin:round;stroke-dasharray:none;stroke-opacity:1"
         d="M 7.6577587,10.015441 C 7.6329898,9.0427411 7.6478581,8.0443253 7.3707206,7.2353581 L 7.5680593,4.7570605 C 6.8651628,4.884216 6.1937461,5.3766458 5.7561316,6.0465068 5.3502738,6.6677573 5.2262964,7.8870825 4.9838713,9.3803675 5.6339822,9.9057997 6.6125203,10.309267 7.6577587,10.015441 Z"
         id="path50249"
         sodipodi:nodetypes="cccscc" /><path
         style="opacity:1;mix-blend-mode:normal;fill:none;fill-opacity:1;stroke:url(#linearGradient50259);stroke-width:0.23117;stroke-linecap:round;stroke-linejoin:round;stroke-dasharray:none;stroke-opacity:1;filter:url(#filter50261)"
         d="M 6.877374,6.7049475 C 6.928961,7.0467527 7.3043179,7.8689374 7.6308489,8.040119"
         id="path50251"
         sodipodi:nodetypes="cc" /><path
         style="opacity:1;fill:#ffc64f;fill-opacity:1;stroke:none;stroke-width:0.39512;stroke-linecap:round;stroke-linejoin:round;stroke-dasharray:none;stroke-opacity:1"
         d="M 7.1648628,5.8994416 C 7.1364208,6.279232 6.9171945,6.7754594 7.0119231,7.143908 c 0.072462,0.2818425 0.166226,0.4692804 0.2986057,0.5827017 0.092833,0.079538 0.2525468,0.1607047 0.3113501,0.2632117 0.1109382,0.1933895 0.3538168,0.4509502 0.311498,0.6906762 -0.035804,0.2028217 0.1377729,0.5367269 0.1908186,0.585053 C 8.3251707,9.4886004 8.5649326,9.4326036 8.796941,9.4118697 8.9952539,9.3941471 9.0704166,9.2276297 9.1736784,9.1009396 9.2779957,8.972955 9.3377256,8.8375034 9.3624979,8.6231806 9.3771307,8.4965819 9.1997526,7.2462247 9.2053919,7.0665004 9.1758406,6.6864908 9.3875764,6.6468301 9.3580278,6.4015055 9.3206044,6.0908002 9.2134669,5.6969312 9.1916184,5.4520812 8.9667701,5.0514032 8.5073577,4.7637792 8.0614059,4.6839004 7.7642798,4.6306793 7.1062394,4.9163136 7.1062394,4.9163136 c 0,0 0.086402,0.6121981 0.058623,0.983128 z"
         id="path39137"
         sodipodi:nodetypes="ssssscssscscscs" /><path
         style="opacity:1;fill:#000000;fill-opacity:1;stroke:none;stroke-width:0.39512;stroke-linecap:round;stroke-linejoin:round;stroke-dasharray:none;stroke-opacity:1"
         d="M 8.1960434,6.517713 C 8.1949208,6.4021831 8.4158443,6.4059531 8.525864,6.4336485 8.6290769,6.4596304 8.8125388,6.5539944 8.7637155,6.6502762 8.6745653,6.8260845 8.1979664,6.7156164 8.1960434,6.517713 Z"
         id="path45727"
         sodipodi:nodetypes="ssss" /><path
         style="opacity:0.516981;fill:url(#linearGradient51036);fill-opacity:1;stroke:none;stroke-width:0.356596;stroke-linecap:round;stroke-linejoin:round;stroke-dasharray:none;stroke-opacity:1"
         d="M 8.8351956,8.2866378 C 8.9223275,8.2320365 9.0831072,8.5060942 9.1028531,8.6084006 9.1213751,8.7043797 9.0412274,8.8145759 8.9453612,8.8105854 8.7703088,8.8032974 8.7401216,8.3462163 8.8351956,8.2866378 Z"
         id="path45727-6"
         sodipodi:nodetypes="ssss" /><path
         style="opacity:1;fill:url(#linearGradient51028);fill-opacity:1;stroke:none;stroke-width:0.39512;stroke-linecap:round;stroke-linejoin:round;stroke-dasharray:none;stroke-opacity:1"
         d="M 8.4819627,9.4530512 8.3038693,8.658124 8.7521855,9.4496921 Z"
         id="path49406"
         sodipodi:nodetypes="cccc" /><path
         style="opacity:1;fill:#c58600;fill-opacity:1;stroke:none;stroke-width:0.23117;stroke-linecap:round;stroke-linejoin:round;stroke-dasharray:none;stroke-opacity:1"
         d="M 9.3086435,5.5732005 C 9.3011379,5.7566932 8.9339798,5.7067944 8.7709757,5.6286248 8.5901337,5.5419009 8.6372543,5.2887401 8.4370662,5.1209489 8.172866,4.8995054 7.7343737,4.8517912 7.4233216,4.996786 7.0643427,5.1641217 6.864052,5.4747776 6.640619,5.8214387 6.4118454,6.1763859 6.2472859,7.2873689 6.1803061,7.7065643 6.0483023,8.4752333 5.6860352,9.2551775 5.0767083,9.3917197 L 4.9044672,9.3755301 C 4.9692239,8.8779261 5.214728,6.9227875 5.4152738,6.4031622 5.5978173,5.9301817 5.8555943,5.4674492 6.2135984,5.1137158 6.5100289,4.8208215 6.8793344,4.5705675 7.2810212,4.4735652 7.7184113,4.367941 8.2471571,4.3192009 8.6265121,4.5650152 9.1390852,4.797093 9.3224048,5.2367709 9.3086435,5.5732005 Z"
         id="path52490"
         sodipodi:nodetypes="ssssscccssscs" /><path
         style="opacity:1;fill:#ffc64f;fill-opacity:1;stroke:none;stroke-width:0.39512;stroke-linecap:round;stroke-linejoin:round;stroke-dasharray:none;stroke-opacity:1"
         d="m 7.9307365,5.5089393 c 0,0 0.3107014,-0.1019891 0.3983137,-0.2291945 C 8.5573172,4.9483213 8.5276266,4.08182 8.5276266,4.08182 c 0,0 -0.6498599,0.4525385 -0.7423053,0.8097673 -0.052956,0.2046322 0.1454151,0.617352 0.1454152,0.617352 z"
         id="path50200"
         sodipodi:nodetypes="cscsc" /></g><path
       style="opacity:0.62641509;fill:none;fill-opacity:1;stroke:#000000;stroke-width:0.20985619;stroke-linecap:round;stroke-linejoin:round;stroke-dasharray:none;stroke-opacity:1;filter:url(#filter90747)"
       d="m 2.4372539,6.7232376 c 0,0 0.5408069,-1.0247832 1.8298677,-0.923646 0.6399722,0.050211 1.2071843,0.5772403 1.5966492,1.0974012 C 6.112764,7.2295428 6.2419111,7.667817 6.2584481,8.085844 6.2846242,8.7475296 5.827891,9.5399007 5.827891,9.5399007"
       id="path90745"
       sodipodi:nodetypes="csssc" /><g
       id="g78619"
       transform="matrix(0.49641618,0.9932869,-0.85900698,0.4462284,6.4286616,2.1163094)"><ellipse
         style="fill:#636eff;fill-opacity:1;stroke:none;stroke-width:0.200083;stroke-linecap:round;stroke-linejoin:round;stroke-dasharray:none;stroke-opacity:1"
         id="path73450"
         cx="3.7833271"
         cy="4.7654305"
         rx="2.0380676"
         ry="2.0778456" /><ellipse
         style="fill:url(#radialGradient90757);fill-opacity:1;stroke:none;stroke-width:0.0723628;stroke-linecap:round;stroke-linejoin:round;stroke-dasharray:none;stroke-opacity:1"
         id="path73450-3"
         cx="3.7833271"
         cy="4.7654305"
         rx="0.73802298"
         ry="0.75242728" /></g></g></svg>
