<svg viewBox="0 0 12.7 12.7" version="1.1" xml:space="preserve" xmlns:xlink="http://www.w3.org/1999/xlink" xmlns="http://www.w3.org/2000/svg"><defs><linearGradient id="d"><stop offset="0" stop-color="#000" stop-opacity="1"/><stop offset="1" stop-color="#000" stop-opacity="0"/></linearGradient><linearGradient id="c"><stop offset="0" stop-color="#000" stop-opacity="1"/><stop offset="1" stop-color="#000" stop-opacity="0"/></linearGradient><linearGradient id="b"><stop offset=".4" stop-color="#000" stop-opacity="1"/><stop offset="1" stop-color="#000" stop-opacity="0"/></linearGradient><linearGradient id="a"><stop offset="0" stop-color="#000" stop-opacity=".15"/><stop offset="1" stop-color="#000" stop-opacity=".05"/></linearGradient><linearGradient><stop offset="0" stop-color="#ffc6f9" stop-opacity="1"/></linearGradient><linearGradient xlink:href="#a" x1="8.78" y1="10.4" x2="10.09" y2="5.32" gradientUnits="userSpaceOnUse" gradientTransform="translate(.5 .44) scale(.90646)"/><linearGradient xlink:href="#b" id="f" x1="7.47" y1="8.01" x2="7.12" y2="6.82" gradientUnits="userSpaceOnUse"/><linearGradient xlink:href="#c" id="i" x1="8.75" y1="9.26" x2="8.47" y2="8.7" gradientUnits="userSpaceOnUse" gradientTransform="matrix(1.01616 -.09877 .08002 1.01616 -.68 .58)"/><linearGradient xlink:href="#d" id="h" x1="8.94" y1="8.4" x2="8.79" y2="8.62" gradientUnits="userSpaceOnUse" gradientTransform="matrix(1.01616 -.09877 .08002 1.01616 -.68 .58)"/><filter x="-.11" y="-.11" width="1.22" height="1.21" color-interpolation-filters="sRGB"><feGaussianBlur stdDeviation=".49"/></filter><filter id="g" x="-.4" y="-.23" width="1.81" height="1.46" color-interpolation-filters="sRGB"><feGaussianBlur stdDeviation=".08"/></filter><filter id="e" x="-.12" y="-.1" width="1.23" height="1.2" color-interpolation-filters="sRGB"><feGaussianBlur stdDeviation=".36"/></filter></defs><g fill-opacity="1" stroke-linecap="round" stroke-linejoin="round" stroke-dasharray="none" stroke-opacity="1"><path d="M3.02 9.3a5.28 5.28 0 0 0 4.28 1l-.15-2.46c.27 1.62.82 1.84 1.52 1.76.55-.07 1.1-.75 1.04-1.44l-.2-2.17.24-.59-.12-.94.13-.33-.18-.54c.2-.46.27-.92.34-1.38-.46.12-.86.28-1.17.5l-.2-.14c.05-.23.02-.45-.06-.66-.38.1-.6.27-.78.44-1.67-.08-2.21.02-2.4.17-.08.07-.06.23 0 .29-.95.08-1.36.57-1.37.72 0 .15-.02.24.16.3-.53.3-.95.63-1.06 1.05-.05.18.02.32.2.39-.48.34-.72.73-.72 1.15 0 .2.16.3.33.3-.29.34-.36.75-.27 1.05.05.16.25.15.33.17 0 .43 0 .84.16.94z" transform="matrix(1.23173 0 0 1.20815 -1.4 -1.14) matrix(1.01616 -.09064 .0872 1.01616 -.64 .46)" opacity="1" fill="#000" stroke="none" stroke-width=".06" filter="url(#e)"/><path d="M8.56 5.33s.3-.07.38-.18c.24-.3.29-1.09.29-1.09s-.64.37-.75.69c-.07.18.08.58.08.58z" fill="#e8ccb7" stroke="none" stroke-width=".36" transform="matrix(1.23173 0 0 1.20815 -1.4 -1.14) matrix(1.45235 0 0 1.33274 -4.05 -3.26)"/><path d="M7.9 10c-.1-.98-.16-2-.51-2.8V4.68a3 3 0 0 0-1.74 1.49c-.36.67-.39 1.92-.51 3.46.7.47 1.73.79 2.76.39Z" opacity="1" fill="#e8ccb7" stroke="none" stroke-width=".4" transform="matrix(1.23173 0 0 1.20815 -1.4 -1.14) matrix(1.45235 0 0 1.33274 -4.05 -3.26)"/><path style="mix-blend-mode:normal" d="M6.88 6.7c.05.35.42 1.17.75 1.34" transform="matrix(1.23173 0 0 1.20815 -1.4 -1.14) matrix(1.45235 0 0 1.33274 -4.05 -3.26) matrix(1.01616 -.09877 .08002 1.01616 -.68 .58)" opacity=".71" fill="none" stroke="url(#f)" stroke-width=".23" filter="url(#g)"/><path d="M7.07 5.87c0 .39-.18.92-.05 1.28.1.28.2.46.35.56.1.08.27.14.34.24.12.19.4.42.37.67-.02.21.18.53.24.58.22.2.46.12.7.08.2-.04.26-.21.35-.35.1-.14.15-.29.16-.5 0-.14-.28-1.4-.29-1.57-.06-.39.15-.45.1-.7-.06-.3-.2-.7-.24-.94a1.67 1.67 0 0 0-1.21-.67c-.3-.03-.95.33-.95.33s.13.61.13 1z" opacity="1" fill="#e8ccb7" stroke="none" stroke-width=".4" transform="matrix(1.23173 0 0 1.20815 -1.4 -1.14) matrix(1.45235 0 0 1.33274 -4.05 -3.26)"/><path d="M8.3 6.4c0-.1.16-.12.24-.1.08.01.21.08.19.17-.06.16-.4.1-.42-.08z" opacity="1" fill="#000" stroke="none" stroke-width=".31" transform="matrix(1.23173 0 0 1.20815 -1.4 -1.14) matrix(1.45235 0 0 1.33274 -4.05 -3.26)"/><path d="M8.96 8.13c.09-.06.27.2.3.3.03.1-.05.22-.14.22-.18.01-.25-.45-.16-.52Z" opacity=".52" fill="url(#h)" stroke="none" stroke-width=".36" transform="matrix(1.23173 0 0 1.20815 -1.4 -1.14) matrix(1.45235 0 0 1.33274 -4.05 -3.26)"/><path d="m8.7 9.35-.25-.79.52.76Z" opacity="1" fill="url(#i)" stroke="none" stroke-width=".4" transform="matrix(1.23173 0 0 1.20815 -1.4 -1.14) matrix(1.45235 0 0 1.33274 -4.05 -3.26)"/><path d="M9.23 5.33c0 .19-.32.2-.5.07-.16-.12-.2-.3-.43-.45-.28-.2-.67-.08-1.06.1-.85.42-1.38 1.56-1.55 2.13-.17.6-.25 1.49-.42 2.03-.01.05-.03.09-.09.1-.07 0-.1-.05-.12-.12-.05-.12-.09-.66-.09-.66s-.2 0-.24-.08c-.1-.25.2-.85.2-.85s-.22.03-.25-.05c-.17-.34.43-1 .43-1s-.2-.06-.2-.14c-.09-.41.77-1.02.77-1.02s-.24-.02-.24-.11c-.02-.41.98-.62.98-.62s-.12-.14-.08-.21c.08-.16.94-.18 1.11-.2.3-.04.73 0 1 .12.54.19.76.62.78.96z" opacity="1" fill="#d69967" stroke="none" stroke-width=".24" transform="matrix(1.23173 0 0 1.20815 -1.4 -1.14) matrix(1.45235 0 0 1.33274 -4.05 -3.26)"/><path d="M7.82 5.4s.3-.14.39-.27c.2-.36.1-1.24.1-1.24s-.62.52-.69.9c-.03.2.2.6.2.6z" opacity="1" fill="#e8ccb7" stroke="none" stroke-width=".4" transform="matrix(1.23173 0 0 1.20815 -1.4 -1.14) matrix(1.45235 0 0 1.33274 -4.05 -3.26)"/></g></svg>