<?xml version="1.0" encoding="UTF-8" standalone="no"?>
<svg
   viewBox="0 0 12.7 12.7"
   version="1.1"
   id="svg1208"
   sodipodi:docname="knights.svg"
   inkscape:version="1.2.2 (732a01da63, 2022-12-09)"
   xml:space="preserve"
   xmlns:inkscape="http://www.inkscape.org/namespaces/inkscape"
   xmlns:sodipodi="http://sodipodi.sourceforge.net/DTD/sodipodi-0.dtd"
   xmlns:xlink="http://www.w3.org/1999/xlink"
   xmlns="http://www.w3.org/2000/svg"
   xmlns:svg="http://www.w3.org/2000/svg"><sodipodi:namedview
     id="namedview1210"
     pagecolor="#ffffff"
     bordercolor="#000000"
     borderopacity="0.25"
     inkscape:showpageshadow="2"
     inkscape:pageopacity="0.0"
     inkscape:pagecheckerboard="0"
     inkscape:deskcolor="#d1d1d1"
     showgrid="false"
     inkscape:zoom="45.254834"
     inkscape:cx="1.2374369"
     inkscape:cy="7.3251843"
     inkscape:window-width="1920"
     inkscape:window-height="1111"
     inkscape:window-x="-9"
     inkscape:window-y="-9"
     inkscape:window-maximized="1"
     inkscape:current-layer="g78575" /><defs
     id="defs1186"><linearGradient
       inkscape:collect="always"
       id="linearGradient51034"><stop
         style="stop-color:#000000;stop-opacity:1;"
         offset="0"
         id="stop51030" /><stop
         style="stop-color:#000000;stop-opacity:0;"
         offset="1"
         id="stop51032" /></linearGradient><linearGradient
       inkscape:collect="always"
       id="linearGradient51026"><stop
         style="stop-color:#000000;stop-opacity:1;"
         offset="0"
         id="stop51022" /><stop
         style="stop-color:#000000;stop-opacity:0"
         offset="1"
         id="stop51024" /></linearGradient><linearGradient
       inkscape:collect="always"
       id="linearGradient50257"><stop
         style="stop-color:#000000;stop-opacity:1;"
         offset="0.40127388"
         id="stop50253" /><stop
         style="stop-color:#000000;stop-opacity:0;"
         offset="1"
         id="stop50255" /></linearGradient><linearGradient
       id="a"><stop
         offset="0"
         stop-color="#000"
         stop-opacity=".15"
         id="stop1173" /><stop
         offset="1"
         stop-color="#000"
         stop-opacity=".05"
         id="stop1175" /></linearGradient><linearGradient
       id="linearGradient1180"><stop
         offset="0"
         stop-color="#ffc6f9"
         stop-opacity="1"
         id="stop1178" /></linearGradient><linearGradient
       xlink:href="#a"
       id="c"
       x1="8.78"
       y1="10.4"
       x2="10.09"
       y2="5.32"
       gradientUnits="userSpaceOnUse"
       gradientTransform="matrix(.90646 0 0 .90646 .5 .44)" /><filter
       id="b"
       x="-0.10936089"
       y="-0.10665691"
       width="1.2187218"
       height="1.2133138"
       color-interpolation-filters="sRGB"><feGaussianBlur
         stdDeviation="0.48528895"
         id="feGaussianBlur1183" /></filter><linearGradient
       inkscape:collect="always"
       xlink:href="#linearGradient50257"
       id="linearGradient50259"
       x1="7.4653063"
       y1="8.005825"
       x2="7.1191607"
       y2="6.8169737"
       gradientUnits="userSpaceOnUse" /><filter
       inkscape:collect="always"
       style="color-interpolation-filters:sRGB"
       id="filter50261"
       x="-0.40333083"
       y="-0.22761095"
       width="1.8066617"
       height="1.4552219"><feGaussianBlur
         inkscape:collect="always"
         stdDeviation="0.078464442"
         id="feGaussianBlur50263" /></filter><linearGradient
       inkscape:collect="always"
       xlink:href="#linearGradient51026"
       id="linearGradient51028"
       x1="8.75103"
       y1="9.256011"
       x2="8.4671211"
       y2="8.703125"
       gradientUnits="userSpaceOnUse"
       gradientTransform="matrix(1.0161597,-0.09877233,0.08001883,1.0161597,-0.67855158,0.58456676)" /><linearGradient
       inkscape:collect="always"
       xlink:href="#linearGradient51034"
       id="linearGradient51036"
       x1="8.9374971"
       y1="8.3996067"
       x2="8.7883978"
       y2="8.6227007"
       gradientUnits="userSpaceOnUse"
       gradientTransform="matrix(1.0161597,-0.09877233,0.08001883,1.0161597,-0.67855158,0.58456676)" /><filter
       inkscape:collect="always"
       style="color-interpolation-filters:sRGB"
       id="filter4647"
       x="-0.11578603"
       y="-0.10107977"
       width="1.2315721"
       height="1.2021595"><feGaussianBlur
         inkscape:collect="always"
         stdDeviation="0.35668354"
         id="feGaussianBlur4649" /></filter></defs><g
     transform="matrix(1.23173 0 0 1.20815 -1.4 -1.14)"
     id="g1206"><path
       style="opacity:1;fill:#000000;fill-opacity:1;stroke:none;stroke-width:0.0588572;stroke-linecap:round;stroke-linejoin:round;stroke-dasharray:none;stroke-opacity:1;filter:url(#filter4647)"
       d="M 3.0214505,9.3052974 C 4.1611299,10.200564 5.5034762,10.549954 7.3024566,10.293295 L 7.1496509,7.8391858 C 7.420557,9.4568154 7.9666029,9.6826082 8.6692205,9.5983611 9.2183635,9.5325164 9.7787703,8.8525912 9.713395,8.15687 L 9.5096537,5.9886763 9.7473507,5.4009608 9.6285016,4.4637929 9.76433,4.1302247 9.5775666,3.5901617 C 9.7794461,3.1295199 9.8477178,2.668878 9.9171349,2.2082362 9.4644271,2.3335762 9.0626985,2.490712 8.7456236,2.7006465 L 8.5588607,2.5735728 C 8.5964485,2.3399251 8.5664489,2.1189237 8.490947,1.9064363 8.1138703,2.0182832 7.884269,2.1761203 7.7099392,2.351194 6.0422203,2.268331 5.4993181,2.371894 5.3164423,2.5229855 c -0.082547,0.0682 -0.062891,0.2255529 -0.0019,0.2865973 -0.949825,0.083854 -1.3628099,0.5744283 -1.3712906,0.7247048 -0.0083,0.1470096 -0.022106,0.234032 0.1588723,0.3020513 C 3.569485,4.129388 3.1516131,4.4573785 3.0404442,4.8751092 2.9914672,5.0591462 3.0612743,5.1997658 3.2322957,5.2664769 2.7633952,5.6119445 2.5248079,5.9999747 2.5238386,6.4164873 2.5233745,6.6159728 2.6770268,6.7121701 2.8504959,6.7175904 2.561535,7.0607047 2.4888006,7.4711061 2.5781573,7.7697746 c 0.04831,0.1614726 0.2485956,0.1537168 0.3269791,0.168962 6.631e-4,0.4339804 0.00226,0.8366622 0.1675333,0.9455242 z"
       id="path90591"
       sodipodi:nodetypes="cccssccccccccccscscscscsccc"
       transform="matrix(1.0161598,-0.0906376,0.08720053,1.0161598,-0.63601283,0.4645742)" /><g
       id="g78575"
       transform="matrix(1.4523525,0,0,1.3327392,-4.050592,-3.2571666)"><path
         style="fill:#e8ccb7;fill-opacity:1;stroke:none;stroke-width:0.363743;stroke-linecap:round;stroke-linejoin:round;stroke-dasharray:none;stroke-opacity:1"
         d="m 8.5599366,5.327382 c 0,0 0.2932602,-0.070491 0.3843303,-0.1807747 0.2372763,-0.2873358 0.2838046,-1.0852879 0.2838046,-1.0852879 0,0 -0.6337332,0.3671213 -0.7488008,0.6882833 -0.065915,0.183972 0.080666,0.5777793 0.080666,0.5777793 z"
         id="path50200-8"
         sodipodi:nodetypes="cscsc" /><path
         style="opacity:1;fill:#e8ccb7;fill-opacity:1;stroke:none;stroke-width:0.403039;stroke-linecap:round;stroke-linejoin:round;stroke-dasharray:none;stroke-opacity:1"
         d="M 7.9043788,10.00548 C 7.8013753,9.0195084 7.7365918,8.0034898 7.3902431,7.2088234 l 0.00221,-2.5378379 C 6.68838,4.8696225 6.0455171,5.4363274 5.6544323,6.1602373 5.2917276,6.8316145 5.2633158,8.0828893 5.1364641,9.6242503 5.8391251,10.09396 6.8657612,10.407296 7.9043788,10.00548 Z"
         id="path50249"
         sodipodi:nodetypes="cccscc" /><path
         style="opacity:0.70566;mix-blend-mode:normal;fill:none;fill-opacity:1;stroke:url(#linearGradient50259);stroke-width:0.23117;stroke-linecap:round;stroke-linejoin:round;stroke-dasharray:none;stroke-opacity:1;filter:url(#filter50261)"
         d="M 6.877374,6.7049475 C 6.928961,7.0467527 7.3043179,7.8689374 7.6308489,8.040119"
         id="path50251"
         sodipodi:nodetypes="cc"
         transform="matrix(1.0161598,-0.09877234,0.08001884,1.0161598,-0.67855161,0.58456679)" /><path
         style="opacity:1;fill:#e8ccb7;fill-opacity:1;stroke:none;stroke-width:0.403039;stroke-linecap:round;stroke-linejoin:round;stroke-dasharray:none;stroke-opacity:1"
         d="m 7.0741603,5.8716518 c 0.00149,0.3887372 -0.1815726,0.9146369 -0.05583,1.279683 0.096185,0.2792397 0.2064636,0.4604452 0.3500582,0.562624 0.100698,0.071654 0.2694874,0.1383572 0.3374434,0.2367124 0.1282057,0.185557 0.3956188,0.4232903 0.3717988,0.67107 C 8.0574777,8.8313769 8.2605779,9.1535334 8.3183478,9.1974009 8.5404189,9.4042043 8.7795745,9.3236207 9.013673,9.2796356 9.2137724,9.242039 9.2768251,9.0654066 9.3716182,8.9264699 9.4673799,8.7861135 9.5172363,8.6425733 9.525259,8.4223404 9.529998,8.2922504 9.2497015,7.0392079 9.2410505,6.8560222 9.1806138,6.4727906 9.3925977,6.4115754 9.3429408,6.1652049 9.2800504,5.8531752 9.1396646,5.4635235 9.0978706,5.2168748 8.8373269,4.8319307 8.3474752,4.5850359 7.887925,4.547914 7.5817389,4.5231809 6.9359208,4.8784271 6.9359208,4.8784271 c 0,0 0.1367851,0.6135569 0.1382395,0.9932247 z"
         id="path39137"
         sodipodi:nodetypes="ssssscssscscscs" /><path
         style="opacity:1;fill:#000000;fill-opacity:1;stroke:none;stroke-width:0.314726;stroke-linecap:round;stroke-linejoin:round;stroke-dasharray:none;stroke-opacity:1"
         d="M 8.3070148,6.3937159 C 8.298279,6.2931416 8.457979,6.2809282 8.5392806,6.2973392 c 0.076272,0.015396 0.2151512,0.084739 0.1865209,0.172047 -0.052278,0.1594234 -0.4038214,0.096614 -0.4187867,-0.07567 z"
         id="path45727"
         sodipodi:nodetypes="ssss" /><path
         style="opacity:0.516981;fill:url(#linearGradient51036);fill-opacity:1;stroke:none;stroke-width:0.363743;stroke-linecap:round;stroke-linejoin:round;stroke-dasharray:none;stroke-opacity:1"
         d="m 8.962506,8.132442 c 0.084171,-0.06409 0.2694783,0.1985159 0.2977297,0.3005252 0.026502,0.0957 -0.046123,0.2155941 -0.1438583,0.2210079 C 8.9379131,8.6638595 8.8706629,8.202374 8.962506,8.132442 Z"
         id="path45727-6"
         sodipodi:nodetypes="ssss" /><path
         style="opacity:1;fill:url(#linearGradient51028);fill-opacity:1;stroke:none;stroke-width:0.403039;stroke-linecap:round;stroke-linejoin:round;stroke-dasharray:none;stroke-opacity:1"
         d="M 8.6968998,9.352594 8.4523194,8.5624115 8.9712206,9.3224899 Z"
         id="path49406"
         sodipodi:nodetypes="cccc" /><path
         style="opacity:1;fill:#d69967;fill-opacity:1;stroke:none;stroke-width:0.235803;stroke-linecap:round;stroke-linejoin:round;stroke-dasharray:none;stroke-opacity:1"
         d="M 9.2264785,5.3283925 C 9.2335362,5.5155917 8.9067522,5.5211032 8.7350358,5.3981352 8.5694262,5.2795404 8.5214776,5.10565 8.3046281,4.9549203 8.0184389,4.7559941 7.625689,4.8707499 7.238555,5.0573792 6.3929244,5.4650405 5.8598707,6.6116264 5.6936677,7.1815573 5.5171819,7.7867497 5.4409767,8.6656204 5.2747356,9.2097387 5.2583507,9.2633704 5.2376031,9.2969797 5.1821638,9.3012262 5.1110516,9.3066732 5.0890585,9.2587231 5.0636207,9.1945491 5.0134123,9.0678886 4.9723077,8.52974 4.9723077,8.52974 c 0,0 -0.2094171,-0.00252 -0.2401241,-0.082822 -0.094957,-0.2483219 0.1953615,-0.846307 0.1953615,-0.846307 0,0 -0.2131473,0.025067 -0.252167,-0.05262 -0.1683323,-0.3351736 0.4321517,-0.9965917 0.4321517,-0.9965917 0,0 -0.1884568,-0.060567 -0.2048465,-0.1438529 -0.080249,-0.4077953 0.7748622,-1.0205021 0.7748622,-1.0205021 0,0 -0.2372103,-0.017899 -0.2413542,-0.1078846 -0.019067,-0.4140442 0.9858246,-0.623615 0.9858246,-0.623615 0,0 -0.1236662,-0.1362887 -0.085634,-0.2065703 0.08395,-0.1551301 0.9428874,-0.1837742 1.114554,-0.2039367 0.2996541,-0.035198 0.727351,-4.114e-4 1.0017131,0.1262534 0.5394267,0.1852001 0.7608911,0.6138761 0.7738295,0.9571014 z"
         id="path52490"
         sodipodi:nodetypes="sssssssscscscscscsscs" /><path
         style="opacity:1;fill:#e8ccb7;fill-opacity:1;stroke:none;stroke-width:0.403039;stroke-linecap:round;stroke-linejoin:round;stroke-dasharray:none;stroke-opacity:1"
         d="m 7.8211627,5.399192 c 0,0 0.3075613,-0.1343259 0.3864106,-0.2722405 0.2054356,-0.3593257 0.1059288,-1.2368969 0.1059288,-1.2368969 0,0 -0.62415,0.5240395 -0.6895042,0.8961721 -0.037437,0.2131695 0.1971647,0.6129653 0.1971648,0.6129653 z"
         id="path50200"
         sodipodi:nodetypes="cscsc" /></g></g></svg>
