<?xml version="1.0" encoding="UTF-8" standalone="no"?>
<svg
   version="1.1"
   viewBox="0 0 50 50"
   id="svg2017"
   sodipodi:docname="loyalty.svg"
   inkscape:version="1.2.2 (732a01da63, 2022-12-09)"
   xml:space="preserve"
   xmlns:inkscape="http://www.inkscape.org/namespaces/inkscape"
   xmlns:sodipodi="http://sodipodi.sourceforge.net/DTD/sodipodi-0.dtd"
   xmlns="http://www.w3.org/2000/svg"
   xmlns:svg="http://www.w3.org/2000/svg"><sodipodi:namedview
     id="namedview2019"
     pagecolor="#ffffff"
     bordercolor="#000000"
     borderopacity="0.25"
     inkscape:showpageshadow="2"
     inkscape:pageopacity="0.0"
     inkscape:pagecheckerboard="0"
     inkscape:deskcolor="#d1d1d1"
     showgrid="false"
     inkscape:zoom="16"
     inkscape:cx="14.90625"
     inkscape:cy="27.625"
     inkscape:window-width="1920"
     inkscape:window-height="1009"
     inkscape:window-x="1912"
     inkscape:window-y="-4"
     inkscape:window-maximized="1"
     inkscape:current-layer="svg2017" /><defs
     id="defs1991"><filter
       id="a"
       x="-0.1079544"
       y="-0.10818149"
       width="1.2159088"
       height="1.216363"
       color-interpolation-filters="sRGB"><feGaussianBlur
         stdDeviation="2.16"
         id="feGaussianBlur1988" /></filter><filter
       inkscape:collect="always"
       style="color-interpolation-filters:sRGB"
       id="filter37092"
       x="-0.10859273"
       y="-0.10741378"
       width="1.2171855"
       height="1.2148276"><feGaussianBlur
         inkscape:collect="always"
         stdDeviation="1.8071587"
         id="feGaussianBlur37094" /></filter></defs><path
     style="opacity:1;mix-blend-mode:normal;fill:#000000;fill-opacity:1;filter:url(#filter37092)"
     d="m 24.9375,46 c 0,0 8.541866,-8.301455 13.125,-13.375 4.114973,-4.55529 6.833983,-9.216383 6.875,-15.190641 C 44.973694,12.162635 41.962261,5.6709143 35.125,5.6875 c -8.08693,0.019617 -10.125232,8.040515 -10.125232,8.040515 0,0 -1.88635,-8.1411409 -9.749768,-8.1061558 C 7.9677972,5.6542584 5.0816445,12.42214 5,17.375 4.9079226,22.960761 7.9111125,28.451723 12.125,32.8125 16.769388,37.618784 24.9375,46 24.9375,46 Z"
     id="path35578"
     sodipodi:nodetypes="cssscsssc"
     transform="matrix(0.86305493,0,0,0.86305493,3.4192284,3.5346722)" /><path
     style="fill:#f464e2;fill-opacity:1;stroke-width:0.863055"
     d="M 24.995402,42.14516 C 16.769204,32.796556 8.6797714,27.667696 8.6512984,19.0045 8.6195897,13.116869 11.854254,9.4875951 16.634557,9.4569549 c 4.270725,0.068462 6.77666,4.3864751 8.360845,6.9159401 l 5.394892,-0.134337 4.809353,9.562499 -4.829043,8.435012 z"
     id="path24582-3"
     sodipodi:nodetypes="cccccccc" /><path
     style="opacity:1;fill:#f464e2;fill-opacity:1;stroke-width:0.863055"
     d="m 24.995402,42.14516 c 8.226196,-9.348604 16.315629,-14.477464 16.344102,-23.14066 0.0317,-5.887631 -3.202955,-9.5169049 -7.983258,-9.5475451 -4.270725,0.068462 -6.77666,4.3864751 -8.360844,6.9159401 l -2.7e-5,25.772281 z"
     id="path24582"
     sodipodi:nodetypes="cccccc" /></svg>
