<svg viewBox="0 0 50 50" xml:space="preserve" xmlns="http://www.w3.org/2000/svg"><defs><filter id="d" x="-.09" y="-.12" width="1.19" height="1.24" color-interpolation-filters="sRGB"><feGaussianBlur stdDeviation=".52"/></filter><filter id="c" x="-.08" y="-.14" width="1.16" height="1.29" color-interpolation-filters="sRGB"><feGaussianBlur stdDeviation=".36"/></filter><filter id="b" x="-.11" y="-.11" width="1.21" height="1.21" color-interpolation-filters="sRGB"><feGaussianBlur stdDeviation=".46"/></filter><filter id="a" x="-.09" y="-.13" width="1.18" height="1.27" color-interpolation-filters="sRGB"><feGaussianBlur stdDeviation="1.53"/></filter></defs><path d="M6.87 15.09s3.5.57 5.03.57c2.29 0 4.37-1.05 6.66-1.1 1.53-.03 3.53.23 3.53.23s1.27-.93 2.1-1.16a12 12 0 0 1 4.31-.26c2.3.21 4.93 1.11 6.83 1.32 1.03.1 2.25-.05 3.27-.28 1.48-.33 4.33-1.37 4.33-1.37 1 .9 1.81 2.79 2.1 4.52.51 3.01-.03 9.25-.53 9.38l-3.94 1.62-1.06 1.19s.8 1.59.66 2.38a3.6 3.6 0 0 1-1.94 2.3c-.82.32-2.12-.18-2.12-.18s-.21.81-.54 1.28c-.39.56-1.07.97-1.75 1.06a4 4 0 0 1-1.27-.14s-.2.92-.48 1.33c-.4.58-1.17.9-1.87 1-.65.1-1.72-.32-1.72-.32s-.47.63-.81.82c-1 .54-1.94.76-2.94.37 0 0-.83.64-1.42.75-.9.15-2.13-.03-2.83-.61-.3-.26-.65-1.04-.65-1.04s-.85.15-1.32.03a3.4 3.4 0 0 1-1.69-1c-.27-.3-.5-1.12-.5-1.12s-1.38-.13-1.94-.5c-.54-.37-1.18-1.57-1.18-1.57s-1.15-.11-1.66-.4a3.3 3.3 0 0 1-1.56-1.94c-.2-.74.1-2.37.1-2.37l-4.6-.57s-.87-3.52-.77-7.45c.1-3.9 2.17-6.77 2.17-6.77" fill-rule="evenodd" filter="url(#a)"/><path d="M42.45 14.12c2.3 2.1 2.22 8.61 1.46 12.05l-4.3 1.54-1.96 2.73C35.66 28.31 23 18.74 23 18.74s3.73-4.65 6.3-4.37c0 0 5.38 1.4 7.05 1.38 2.39-.02 6.11-1.63 6.11-1.63" fill="#d6a463" fill-rule="evenodd"/><path d="M27.7 21.1c1.22-.57 1.9.91 3.27 2.5 1.34 1.55 4.27 4.67 5.82 6.5l-.42 1.23-10.12-9.39z" transform="translate(-2.1 -3.8)scale(1.10245)" fill-rule="evenodd" filter="url(#b)"/><path d="M7.45 16.13s2.87.4 4.3.52c2.24.17 7.23-2.37 12.2-.31 0 0 3.69 2.53 5.87 4.2 3.02 2.31 6.44 6.5 8.45 8.93.76.91 1.43 2.34.53 3.41-.98 1.18-2.23.98-3.7-.17 0 0 .7 1.49-.19 2.33-1.01.95-2.12.92-3.43.11 0 0 .7 1.1-.14 2.09-.78.9-2.24.83-3.62-.02 0 0 .2.63-.14 1.03-.37.47-1.09.58-1.68.59a4 4 0 0 1-1.76-.52c-3.8-1.83-10.97-7.2-10.97-7.2l-2.72-2.4-4.22-.47c-1.03-3.78-.88-9.66 1.22-12.12" fill="#e7be89" fill-rule="evenodd"/><path style="mix-blend-mode:normal" d="M22.2 17.93c-.84 1.73-3.04 2.62-3.88 3.22-.37.27-.43 1.7.7 2.4 1.21.75 2.68.34 3.19.14A6 6 0 0 0 24 22.6l1.62-1.47s2.46.6 3.03.17l-3.2-2.74Z" transform="translate(-2.1 -3.8)scale(1.10245)" fill-rule="evenodd" filter="url(#c)"/><path d="M27.92 37.32s-.84-.8-1.73-1.5c-1-.8-1.85-1.28-1.85-1.28s.72.65 1.7 1.47c.91.78 1.93 1.54 1.88 1.31" fill="#4c3314" fill-rule="evenodd"/><path d="M18.24 19.77c-.47.44-.2 1.96 1.39 2.49 1.3.43 2.9-.15 4.04-.93.75-.5 2.43-1.99 2.43-1.99 1.05.31 1.9.53 3.2.34.78 1.08 3.64 2.9 5.45 2.42.58-2.9-3.95-7.2-5.47-7.73 0 0-1.77-.35-3.68-.06-1.4.22-3.23 1.32-3.66 2.15-.75 1.45-3.23 2.86-3.7 3.31" fill="#d6a463" fill-rule="evenodd"/><path style="mix-blend-mode:normal" d="M12.13 30.27s1.05-1.78 2.4-1.34 1.21 1.5 1.21 1.5 1.25-2.27 2.8-2.22c.96.03 1.95.7 2.2 1.65.2.71-.29 1.54-.29 1.54s1.65-.82 2.75.11c1.16.97.52 2.48.52 2.48s.76-.13 1.36.4c.35.32.44.95.4 1.5-.08.94-1.39 2.62-1.39 2.62a34 34 0 0 1-11.96-8.24" transform="translate(-2.1 -3.8)scale(1.10245)" fill-rule="evenodd" filter="url(#d)"/><path d="M24.2 38.87a6 6 0 0 0 1.37-2.48c.23-.67.45-1.6-.39-2.24-.68-.52-1.38-.3-1.38-.3s.45-.89.08-1.86a2 2 0 0 0-1.95-1.35c-.68-.02-1.64.32-1.64.32s.86-1.78-.22-2.68c-1.3-1.08-2.23-.88-3-.34-.99.7-1.88 1.98-1.88 1.98s-.05-.72-.62-1.2a2.2 2.2 0 0 0-1.84-.44c-.89.26-1.59 1.38-1.84 2.3-.17.62-.08 1.22.15 1.79.22.54.74 1.01 1.38 1.2.67.18 1.46.04 1.46.04s-.08.56.27 1.07c.28.43.82.72 1.53.9.76.2 1.56-.07 1.56-.07s-.14.9.3 1.51c.36.53.82.9 1.67.99.68.07 1.3-.16 1.3-.16s-.02.54.58 1.12c.47.45 1.25.55 1.9.49.45-.05.9-.28 1.22-.59" fill="#d6a463" fill-rule="evenodd"/><path d="M35.57 33.06s-1.7-1.7-3.3-3.18c-1.8-1.66-3.63-3.1-3.63-3.1l3.43 3.31c1.63 1.57 3.43 3.15 3.5 2.97m-3.66 2.34s-1.36-1.42-2.72-2.68c-1.52-1.42-3.05-2.6-3.05-2.6s1.36 1.33 2.82 2.8c1.29 1.32 2.55 2.49 2.95 2.49m-18.04-1.59c.09-.67.15-1.2.5-2.14.37-1.03.64-1.39.94-1.96-.19 0-.81.97-1.16 1.85-.39.97-.59 2.07-.28 2.25m3.33 2.08c.25-.62.96-1.7 1.7-2.76.57-.8 1.63-2.19 1.99-2.37l-.36.01-.03-.4c-.17.41-1.26 1.9-1.77 2.68-.48.73-1.39 2.27-1.81 2.54h.26zm3.32 2.29c.25-.62.95-1.31 1.73-2.3.61-.77 1.68-1.9 2.04-2.09l-.31-.08-.02-.36c-.16.42-1.26 1.74-1.86 2.45-.66.8-1.52 1.9-1.94 2.16l.28-.04z" fill="#4c3314" fill-rule="evenodd"/></svg>