<svg version="1.1" viewBox="0 0 50 50" xmlns="http://www.w3.org/2000/svg"><defs><filter id="a" x="-.11" y="-.11" width="1.22" height="1.22" color-interpolation-filters="sRGB"><feGaussianBlur stdDeviation="2.16"/></filter></defs><g fill-opacity="1" stroke="none" stroke-dasharray="none"><path d="m1.38 2.87 4.78 9.52 13.05 12.68-5.27 5.39-1.7-.66L9 33.36l.29 2.56-4.09 4.24c-3.26-.43-5 2.83-3.92 5.68l3.02 2.92c3.04 1.14 5.87-.9 5.6-3.77l4.33-4.42 2.47.27 3.53-3.1-.73-1.78 5.44-5.32 5.69 5.32-.9 1.7 3.45 3.06 2.54-.15 4.48 4.31c.18 3.24 2.6 5.08 5.68 4.2l3.08-3.65c.21-3.37-1.21-4.98-4.33-5.22l-4.37-4.36.75-2.43-3.21-3.65-1.79.51-5.44-5.2 13.34-13 4.61-9.2.09-1.45h-1.34l-9.7 4.85-12.63 12.87L12.2 6.05 2.8 1.38H1.35Z" transform="translate(2.28 2.3) scale(.90873)" fill="#000" stroke-width="1" filter="url(#a)"/><path d="m35.92 36.94 6.43 6.17 2.6-2.4-6.2-6.53Z" fill="#be8b3f" stroke-width=".89" transform="translate(1.82 3.53) scale(.90873)"/><path d="M8.53 9.21 3.05 1.18l9.02 4.64 24.75 25.26-2.71 3.07" fill="#eeeee8" stroke-width="1.01" transform="translate(1.82 3.53) scale(.90873)"/><path d="m3.05 1.18 4.64 9.02 25.28 24.72 2.28-1.54" fill="#dbd9cc" stroke-width="1.01" transform="translate(1.82 3.53) scale(.90873)"/><path d="m31.84 35.7 5.8-5.72c2.3 2.3 3.1 3.39 1.58 4.94l-2.67 2.5c-1.58 1.36-2.52.5-4.71-1.72z" fill="#d5b25b" stroke-width=".9" transform="translate(1.82 3.53) scale(.90873)"/><path d="m42.4 42.55 2.07-2.01c1.6-1.58 5.33 1.53 2.42 4.5-2.99 2.85-6.2-.71-4.48-2.49z" fill="#d5b45e" stroke-width=".9" transform="translate(1.82 3.53) scale(.90873)"/><path d="m35.4 11.71 6.44-6.17 2.6 2.4-6.2 6.53z" fill="#c08c41" stroke-width=".89" transform="rotate(180 23.86 23.86) scale(.90873)"/><path d="m7.76 38.9-5.23 8.56 9.04-4.64 24.75-25.25-2.95-3.63" fill="#f7f7f4" stroke-width="1.01" transform="rotate(180 23.86 23.86) scale(.90873)"/><path d="m2.54 47.46 4.64-9.02 25.29-24.72 2.28 1.55" fill="#ccc9b6" stroke-width="1.01" transform="rotate(180 23.86 23.86) scale(.90873)"/><path d="m31.33 12.94 5.8 5.73c2.3-2.3 3.1-3.4 1.58-4.95l-2.66-2.5c-1.59-1.35-2.52-.49-4.72 1.72Z" fill="#d5b35d" stroke-width=".9" transform="rotate(180 23.86 23.86) scale(.90873)"/><path d="m41.9 6.1 2.06 2.01c1.6 1.57 5.33-1.53 2.42-4.5-2.98-2.85-6.2.7-4.48 2.48z" fill="#d4b35c" stroke-width=".9" transform="rotate(180 23.86 23.86) scale(.90873)"/></g></svg>