<?xml version="1.0" encoding="UTF-8" standalone="no"?>
<svg
   version="1.1"
   viewBox="0 0 50 50"
   id="svg2017"
   sodipodi:docname="oratory.svg"
   inkscape:version="1.2.2 (732a01da63, 2022-12-09)"
   xml:space="preserve"
   xmlns:inkscape="http://www.inkscape.org/namespaces/inkscape"
   xmlns:sodipodi="http://sodipodi.sourceforge.net/DTD/sodipodi-0.dtd"
   xmlns="http://www.w3.org/2000/svg"
   xmlns:svg="http://www.w3.org/2000/svg"><sodipodi:namedview
     id="namedview2019"
     pagecolor="#ffffff"
     bordercolor="#000000"
     borderopacity="0.25"
     inkscape:showpageshadow="2"
     inkscape:pageopacity="0.0"
     inkscape:pagecheckerboard="0"
     inkscape:deskcolor="#d1d1d1"
     showgrid="false"
     inkscape:zoom="22.627417"
     inkscape:cx="16.329747"
     inkscape:cy="23.953242"
     inkscape:window-width="1920"
     inkscape:window-height="1009"
     inkscape:window-x="1912"
     inkscape:window-y="-4"
     inkscape:window-maximized="1"
     inkscape:current-layer="svg2017" /><defs
     id="defs1991"><filter
       id="a"
       x="-0.1079544"
       y="-0.10818149"
       width="1.2159088"
       height="1.216363"
       color-interpolation-filters="sRGB"><feGaussianBlur
         stdDeviation="2.16"
         id="feGaussianBlur1988" /></filter><filter
       inkscape:collect="always"
       style="color-interpolation-filters:sRGB"
       id="filter11250"
       x="-0.081847011"
       y="-0.11070759"
       width="1.163694"
       height="1.2214152"><feGaussianBlur
         inkscape:collect="always"
         stdDeviation="0.2611669"
         id="feGaussianBlur11252" /></filter><filter
       inkscape:collect="always"
       style="color-interpolation-filters:sRGB"
       id="filter11308"
       x="-0.062981015"
       y="-0.12551004"
       width="1.125962"
       height="1.2510201"><feGaussianBlur
         inkscape:collect="always"
         stdDeviation="0.390695"
         id="feGaussianBlur11310" /></filter><filter
       inkscape:collect="always"
       style="color-interpolation-filters:sRGB"
       id="filter11433"
       x="-0.10195809"
       y="-0.12388433"
       width="1.2039162"
       height="1.2477687"><feGaussianBlur
         inkscape:collect="always"
         stdDeviation="0.26986352"
         id="feGaussianBlur11435" /></filter><filter
       inkscape:collect="always"
       style="color-interpolation-filters:sRGB"
       id="filter11433-0"
       x="-0.10195809"
       y="-0.12388433"
       width="1.2039162"
       height="1.2477687"><feGaussianBlur
         inkscape:collect="always"
         stdDeviation="0.26986352"
         id="feGaussianBlur11435-0" /></filter><filter
       inkscape:collect="always"
       style="color-interpolation-filters:sRGB"
       id="filter11635"
       x="-0.18643714"
       y="-0.099576606"
       width="1.3728743"
       height="1.1991532"><feGaussianBlur
         inkscape:collect="always"
         stdDeviation="0.086523691"
         id="feGaussianBlur11637" /></filter><filter
       inkscape:collect="always"
       style="color-interpolation-filters:sRGB"
       id="filter12585"
       x="-0.19736864"
       y="-0.20036717"
       width="1.3947373"
       height="1.4007343"><feGaussianBlur
         inkscape:collect="always"
         stdDeviation="0.32440472"
         id="feGaussianBlur12587" /></filter><filter
       inkscape:collect="always"
       style="color-interpolation-filters:sRGB"
       id="filter15503"
       x="-0.20018096"
       y="-0.12258338"
       width="1.4003619"
       height="1.2451668"><feGaussianBlur
         inkscape:collect="always"
         stdDeviation="0.33518892"
         id="feGaussianBlur15505" /></filter><filter
       inkscape:collect="always"
       style="color-interpolation-filters:sRGB"
       id="filter16237"
       x="-0.11187953"
       y="-0.10438051"
       width="1.2237591"
       height="1.208761"><feGaussianBlur
         inkscape:collect="always"
         stdDeviation="1.8534089"
         id="feGaussianBlur16239" /></filter></defs><path
     style="opacity:1;fill:#000000;fill-opacity:1;filter:url(#filter16237)"
     d="m 13.965359,41.822853 c 0,0 1.442653,-2.662168 2.316705,-3.893858 0.870317,-1.226427 2.898207,-3.457539 2.898207,-3.457539 0,0 3.45666,1.465276 4.375223,2.983107 1.356111,2.240831 4.328809,8.725208 4.328809,8.725208 5.365585,0.09642 10.194687,-2.140942 13.642135,-6.523733 l -5.228507,-9.085044 c 0,0 1.879617,-6.946596 1.985597,-10.528936 0.03894,-1.316112 -0.983645,-3.248272 -0.983645,-3.248272 0,0 2.215308,-1.848232 3.419867,-2.636012 1.16144,-0.759581 3.65028,-2.002155 3.65028,-2.002155 0,0 -1.073567,-4.0268328 -2.608112,-5.6071436 -1.791901,-1.8453428 -6.244967,-2.9807716 -6.244967,-2.9807716 0,0 -1.953087,2.984724 -2.882756,4.273961 -0.97857,1.3570517 -3.06071,3.7899052 -3.06071,3.7899052 0,0 -1.998636,-1.597658 -3.322146,-1.555298 -0.926445,0.02965 -1.951772,0.454268 -2.63888,1.076411 -0.548195,0.496366 -1.084804,1.886169 -1.084804,1.886169 0,0 -2.356278,0.634098 -3.100881,1.506547 -0.537356,0.629619 -1.211842,2.273625 -1.211842,2.273625 0,0 -1.683434,0.503154 -2.325721,1.020273 -0.664701,0.535165 -1.285257,2.243163 -1.285257,2.243163 0,0 -1.60379,1.702859 -1.781362,2.912755 -0.167588,1.14187 0.269607,3.454347 0.269607,3.454347 0,0 -2.583947,1.840043 -4.0790455,2.728815 -1.3735148,0.816495 -4.4017944,2.418236 -4.4017944,2.418236 0.088257,4.17926 3.8947202,9.881782 9.3539999,10.22624 z"
     id="path15499"
     sodipodi:nodetypes="cscscccscscscscsscscscscscc" /><path
     style="opacity:1;fill:#e7be89;fill-opacity:1;stroke-width:1.12097"
     d="m 23.638715,35.025302 4.8734,10.429799 c 5.287509,0.02535 9.56023,-2.803655 12.108333,-5.711208 L 34.537564,29.575878 Z"
     id="path11639"
     sodipodi:nodetypes="ccccc" /><path
     style="opacity:1;fill:#e5b980;fill-opacity:1;stroke-width:1.12097"
     d="m 14.028194,22.927738 c -0.632273,0.739112 -0.280892,2.7101 1.13044,4.894221 1.413291,2.18715 3.246867,5.172899 5.681046,6.336178 2.480771,1.185544 3.173726,3.200412 4.9937,2.74666 1.786774,-0.445474 2.639716,-1.491597 4.698741,-2.849989 1.240254,-0.818228 3.944843,-1.169425 4.654329,-3.210239 1.036213,-2.980634 1.7643,-6.719613 1.856602,-9.28301 0.145511,-4.041119 -9.773433,-6.305441 -9.773433,-6.305441 0,0 -9.863601,3.901492 -13.241425,7.67162 z"
     id="path11375"
     sodipodi:nodetypes="csssssscc" /><path
     style="opacity:1;mix-blend-mode:normal;fill:#000000;fill-opacity:1;filter:url(#filter11635)"
     d="m 32.119876,23.103749 -0.165918,-1.628387 1.113817,-0.457011 -0.601849,0.929091 z"
     id="path11525"
     sodipodi:nodetypes="ccccc"
     transform="matrix(1.1209672,0,0,1.1209672,-3.2616235,-2.129862)" /><path
     style="fill:#e7be89;fill-opacity:1;stroke-width:0.923182;filter:url(#filter11433-0)"
     d="m 25.992141,32.646171 c -0.130579,0.07313 -2.73521,-0.302343 -3.3125,-1.198497 -0.70135,-1.088738 -0.493821,-2.986439 0.71875,-3.675393 1.370732,-0.778818 3.795135,-0.145516 4.8125,0.958798 0.649748,0.70528 0.472855,1.902889 -0.03125,2.689961 -0.418045,0.652706 -2.1875,1.225131 -2.1875,1.225131 z"
     id="path11431-6"
     sodipodi:nodetypes="ssssss"
     transform="matrix(1.1209672,0,0,1.1209672,-3.2616235,-2.129862)" /><path
     style="opacity:1;mix-blend-mode:normal;fill:#000000;fill-opacity:1;filter:url(#filter12585)"
     d="m 23.131718,28.276213 -2.628656,2.430243 -1.316101,0.84532 3.018306,-3.885723 z"
     id="path12421"
     sodipodi:nodetypes="ccccc"
     transform="matrix(1.1209672,0,0,1.1209672,-3.2616235,-2.129862)" /><path
     style="opacity:1;mix-blend-mode:normal;fill:#e7be89;fill-opacity:1;stroke-width:0.923182;filter:url(#filter11433)"
     d="m 31.642767,29.073846 c -0.130579,0.07313 -2.73521,-0.302343 -3.3125,-1.198497 -0.70135,-1.088738 -0.493821,-2.986439 0.71875,-3.675393 1.370732,-0.778818 3.795135,-0.145516 4.8125,0.958798 0.649748,0.70528 0.472855,1.902889 -0.03125,2.689961 -0.418045,0.652706 -2.1875,1.225131 -2.1875,1.225131 z"
     id="path11431"
     sodipodi:nodetypes="ssssss"
     transform="matrix(1.1209672,0,0,1.1209672,-3.2616235,-2.129862)" /><path
     style="opacity:1;fill:#f5edd6;fill-opacity:1;stroke-width:1.12097"
     d="M 13.482971,40.771967 C 17.825862,32.860666 34.117977,16.429149 43.280262,11.691859 43.134549,10.307025 42.042885,8.9663307 41.538116,8.4038729 L 41.921738,8.0974786 C 40.332057,5.9618629 37.822171,4.6617985 35.924689,4.5085274 31.727274,12.798753 15.117944,28.018964 5.6060758,32.052889 c 0.2853534,4.004065 4.2291312,8.186028 7.8768952,8.719078 z"
     id="path9578"
     sodipodi:nodetypes="ccccccc" /><path
     style="opacity:1;mix-blend-mode:normal;fill:#000000;fill-opacity:1;filter:url(#filter11308)"
     d="M 16.351845,24.262601 29.96365,21.478368 c 0,0 0.496934,1.192112 0.336981,1.872728 -0.104393,0.444203 -0.358578,0.838886 -0.715675,1.122957 -0.425261,0.338296 -0.824968,0.603653 -1.488511,0.561946 0.02112,0.43608 -0.03075,1.043628 -0.546902,1.59099 -0.359639,0.381383 -1.132277,0.855784 -1.585466,0.535854 0.09273,0.483637 -0.219741,1.060536 -0.656701,1.388617 -0.33622,0.252444 -0.520993,0.438144 -1.199454,0.390199 -0.811353,-0.05733 -5.030257,-3.903298 -5.030257,-3.903298 0,0 -1.239007,0.194149 -1.871303,-0.168813 -0.121161,-0.06955 -1.57829,0.951073 -1.733489,0.838446 -0.217815,-0.158067 0.878972,-1.445393 0.878972,-1.445393 z"
     id="path11306"
     sodipodi:nodetypes="ccsscscsscssc"
     transform="matrix(1.1209672,0,0,1.1209672,-3.2616235,-2.129862)" /><path
     style="opacity:0.39823;fill:#000000;fill-opacity:1;stroke-width:1.12097"
     d="m 5.9884518,32.32101 c 0.9079103,3.970544 3.5772781,6.841892 6.8334022,7.659332 -0.838062,-2.282126 -2.696419,-4.291242 -5.0561415,-5.8436 1.6604929,1.287534 3.7311945,3.204216 4.6662405,5.500741 -2.8576231,-1.161184 -4.9770508,-3.659313 -5.7525467,-6.599736 0,0 3.3699357,1.436229 4.9133067,4.148172 C 16.95567,31.174826 33.143394,13.11288 42.088986,8.4459817 L 41.985023,7.9413285 C 33.2161,13.075402 17.210456,30.644476 11.611108,36.309284 9.392482,33.94437 8.3990794,33.2931 5.9884518,32.32101 Z"
     id="path12589"
     sodipodi:nodetypes="cccccccccc" /><path
     style="opacity:1;fill:#e7be89;fill-opacity:1;stroke-width:1.12097"
     d="m 15.312371,25.806421 c 0.929457,-0.127185 1.550679,0.0078 2.907592,-0.223198 0.55096,0.62473 1.621625,1.598234 2.724741,2.194621 0.386339,0.646173 1.647375,1.834189 2.397796,2.123095 1.365405,0.525672 2.488705,-0.821108 2.071865,-1.678851 -1.168041,-2.403515 -4.002082,-5.441751 -5.058949,-5.959966 -0.653105,-0.320238 -3.124417,-1.573219 -4.28529,-1.552034 -1.141274,0.02083 -1.691711,0.631001 -2.205339,1.650377 -0.377629,0.749466 0.123518,3.33884 0.570431,4.094275 z"
     id="path9472"
     sodipodi:nodetypes="cccssssscc" /><path
     style="opacity:1;fill:#e7be89;fill-opacity:1;stroke-width:1.12097"
     d="m 25.874929,27.994342 c 0.769853,0.634462 2.17077,-0.79502 1.990946,-1.737103 -0.156034,-0.81745 -0.510953,-1.166954 -0.878323,-1.91369 -0.908582,-1.846831 -2.282955,-3.52769 -3.928949,-4.763414 -1.241361,-0.931947 -2.724409,-1.834242 -4.276643,-1.842782 -0.841586,-0.0046 -1.832281,0.294567 -2.329553,0.973545 -0.460652,0.628979 -1.122182,2.084293 -0.67925,2.725875 0.854728,1.238063 3.534,0.03465 4.816816,0.820609 2.217038,1.358354 4.053175,4.721808 5.284956,5.73696 z"
     id="path9474"
     sodipodi:nodetypes="sssssssss" /><path
     style="opacity:1;fill:#e7be89;fill-opacity:1;stroke-width:1.12097"
     d="m 27.995865,25.456172 c 0.601748,0.617779 2.784513,-0.760814 2.368181,-1.976174 -0.845214,-2.467368 -2.111493,-4.77074 -3.724189,-6.820497 -0.815901,-1.03702 -1.78589,-2.299236 -3.094481,-2.468632 -1.507808,-0.195185 -2.837706,0.241825 -3.857062,1.369873 -0.351395,0.388863 -0.693396,2.129651 -0.371423,2.543203 1.715142,2.202977 2.68787,0.392104 3.950329,1.371882 2.007638,1.558102 3.609847,4.831742 4.728645,5.980345 z"
     id="path9476"
     sodipodi:nodetypes="ssssssss" /><path
     style="opacity:1;mix-blend-mode:normal;fill:#000000;fill-opacity:1;filter:url(#filter15503)"
     d="m 28.194432,12.40625 1.21875,-0.203125 2.799881,5.955806 -1.362381,0.606694 z"
     id="path15501"
     sodipodi:nodetypes="ccccc" /><path
     style="opacity:1;fill:#e7be89;fill-opacity:1;stroke-width:1.12097"
     d="m 29.73048,21.76949 c 0.876621,0.303379 2.579818,-0.181533 2.552484,-1.108764 -0.07247,-2.458548 -1.081927,-4.120493 -2.027344,-6.120597 -0.561863,-1.188665 -1.397986,-2.737611 -2.961402,-3.198008 -1.472132,-0.433516 -2.297183,-0.02108 -2.933717,0.500375 -0.55802,0.457146 -0.877545,1.350103 -0.705589,2.050675 0.322306,1.313114 1.902168,1.152636 2.767698,2.191388 1.26416,1.517161 2.482003,5.138157 3.30787,5.684931 z"
     id="path9478"
     sodipodi:nodetypes="cssssssc" /><path
     style="opacity:1;mix-blend-mode:normal;fill:#774d18;fill-opacity:1;stroke-width:1.12097"
     d="m 27.770186,25.696219 0.152834,-0.217497 c -0.401903,-0.81023 -2.356278,-3.485193 -2.579033,-3.783416 -0.840912,-1.125804 -1.257054,-1.757032 -2.42636,-2.536322 -0.825909,-0.550432 -3.438198,-1.326899 -3.438198,-1.326899 0,0 2.452593,0.875444 3.26279,1.573871 0.881806,0.760157 1.559289,1.596602 2.276965,2.557206 0.756398,1.012434 2.751002,3.733057 2.751002,3.733057 z"
     id="path11254"
     sodipodi:nodetypes="ccsscssc" /><path
     style="fill:#774d18;fill-opacity:1;stroke-width:1.12097"
     d="m 25.527852,28.219791 0.09552,-0.383353 c 0.04219,-0.169344 -2.255349,-2.846923 -2.340673,-2.961153 -0.840911,-1.125804 -1.613989,-1.996233 -2.783294,-2.775523 -0.82591,-0.550432 -3.972988,-1.112468 -3.972988,-1.112468 0,0 3.119626,0.821654 3.929823,1.520081 0.881805,0.760157 1.681894,1.614118 2.452116,2.487146 0.836089,0.947689 2.619496,3.22527 2.619496,3.22527 z"
     id="path11254-4"
     sodipodi:nodetypes="cssscssc" /><path
     style="opacity:1;fill:#774d18;fill-opacity:1;stroke-width:1.1001"
     d="m 29.84434,21.946891 c 0,0 -0.995758,-2.350202 -1.664615,-3.422458 -0.730039,-1.170338 -1.131605,-2.142823 -2.208135,-3.005221 -0.718795,-0.575821 -2.044139,-1.22694 -2.044139,-1.22694 0,0 1.27609,1.005254 1.987659,1.747522 0.799126,0.833601 1.257455,1.655843 1.937123,2.589407 0.753041,1.034347 1.992107,3.31769 1.992107,3.31769 z"
     id="path11254-4-8"
     sodipodi:nodetypes="csscssc" /><path
     style="opacity:1;mix-blend-mode:normal;fill:#000000;fill-opacity:1;filter:url(#filter11250)"
     d="m 31.252414,17.272804 c -1.524566,0.820755 -2.796871,1.356532 -3.52057,1.598107 -0.345042,0.757349 -0.113898,1.573301 0.176771,2.452777 0.73742,0.821694 2.255065,1.310074 2.916817,1.104855 2.603274,-0.807312 2.408582,-1.568894 2.408582,-1.568894 l 1.530379,-2.581148 c 0,0 1.072852,-1.24508 -0.0839,-1.434175 -1.67178,-0.09416 -2.368443,0.02201 -3.428079,0.428478 z"
     id="path11086"
     sodipodi:nodetypes="cccscccc"
     transform="matrix(1.1209672,0,0,1.1209672,-3.2616235,-2.129862)" /><path
     style="opacity:1;fill:#e7be89;fill-opacity:1;stroke-width:1.12097"
     d="m 37.325826,20.759176 c -0.13234,-1.785929 -1.067853,-3.823182 -1.958599,-3.809101 -3.203045,0.05063 -3.928483,0.840725 -5.274542,1.436012 -0.469872,0.2078 -1.09637,0.524931 -1.824219,0.833822 -0.538108,0.228367 -0.427023,2.265332 0.416841,2.797263 1.549402,0.976666 3.594378,1.06625 5.924306,-0.66704 0.614496,3.089983 2.078829,6.761129 2.716213,-0.590956 z"
     id="path9576"
     sodipodi:nodetypes="csssscc" /></svg>
