<svg version="1.1" viewBox="0 0 50 50" xml:space="preserve" xmlns="http://www.w3.org/2000/svg"><defs><filter x="-.11" y="-.11" width="1.22" height="1.22" color-interpolation-filters="sRGB"><feGaussianBlur stdDeviation="2.16"/></filter><filter id="h" x="-.08" y="-.11" width="1.16" height="1.22" color-interpolation-filters="sRGB"><feGaussianBlur stdDeviation=".26"/></filter><filter id="f" x="-.06" y="-.13" width="1.13" height="1.25" color-interpolation-filters="sRGB"><feGaussianBlur stdDeviation=".39"/></filter><filter id="e" x="-.1" y="-.12" width="1.2" height="1.25" color-interpolation-filters="sRGB"><feGaussianBlur stdDeviation=".27"/></filter><filter id="c" x="-.1" y="-.12" width="1.2" height="1.25" color-interpolation-filters="sRGB"><feGaussianBlur stdDeviation=".27"/></filter><filter id="b" x="-.19" y="-.1" width="1.37" height="1.2" color-interpolation-filters="sRGB"><feGaussianBlur stdDeviation=".09"/></filter><filter id="d" x="-.2" y="-.2" width="1.39" height="1.4" color-interpolation-filters="sRGB"><feGaussianBlur stdDeviation=".32"/></filter><filter id="g" x="-.2" y="-.12" width="1.4" height="1.25" color-interpolation-filters="sRGB"><feGaussianBlur stdDeviation=".34"/></filter><filter id="a" x="-.11" y="-.1" width="1.22" height="1.21" color-interpolation-filters="sRGB"><feGaussianBlur stdDeviation="1.85"/></filter></defs><path d="M13.97 41.82s1.44-2.66 2.31-3.9c.87-1.22 2.9-3.45 2.9-3.45s3.46 1.47 4.38 2.98c1.35 2.25 4.32 8.73 4.32 8.73 5.37.1 10.2-2.14 13.65-6.52l-5.23-9.09s1.88-6.95 1.98-10.53c.04-1.31-.98-3.25-.98-3.25s2.22-1.84 3.42-2.63c1.16-.76 3.65-2 3.65-2s-1.07-4.03-2.6-5.61c-1.8-1.85-6.25-2.98-6.25-2.98s-1.96 2.98-2.89 4.27c-.97 1.36-3.06 3.8-3.06 3.8s-2-1.6-3.32-1.56c-.93.03-1.95.45-2.64 1.07-.55.5-1.08 1.89-1.08 1.89s-2.36.63-3.1 1.5c-.54.64-1.22 2.28-1.22 2.28s-1.68.5-2.32 1.02c-.67.53-1.29 2.24-1.29 2.24S13 21.78 12.82 23c-.16 1.14.27 3.45.27 3.45s-2.58 1.84-4.08 2.73c-1.37.81-4.4 2.42-4.4 2.42.09 4.18 3.9 9.88 9.36 10.22z" opacity="1" fill="#000" fill-opacity="1" filter="url(#a)"/><path d="m23.64 35.03 4.87 10.43c5.29.02 9.56-2.8 12.11-5.72l-6.08-10.16Z" opacity="1" fill="#e7be89" fill-opacity="1" stroke-width="1.12"/><path d="M14.03 22.93c-.63.74-.28 2.7 1.13 4.9 1.41 2.18 3.25 5.16 5.68 6.33 2.48 1.18 3.17 3.2 5 2.74 1.78-.44 2.63-1.49 4.7-2.85 1.23-.81 3.94-1.16 4.65-3.2a35.49 35.49 0 0 0 1.85-9.29c.15-4.04-9.77-6.3-9.77-6.3s-9.86 3.9-13.24 7.67z" opacity="1" fill="#e5b980" fill-opacity="1" stroke-width="1.12"/><path style="mix-blend-mode:normal" d="m32.12 23.1-.17-1.62 1.12-.46-.6.93z" transform="matrix(1.12097 0 0 1.12097 -3.26 -2.13)" opacity="1" fill="#000" fill-opacity="1" filter="url(#b)"/><path d="M26 32.65c-.14.07-2.74-.3-3.32-1.2-.7-1.1-.5-2.99.72-3.68 1.37-.78 3.8-.14 4.81.96.65.7.47 1.9-.03 2.7-.42.64-2.19 1.22-2.19 1.22z" transform="matrix(1.12097 0 0 1.12097 -3.26 -2.13)" fill="#e7be89" fill-opacity="1" stroke-width=".92" filter="url(#c)"/><path style="mix-blend-mode:normal" d="M23.13 28.28 20.5 30.7l-1.31.84 3.02-3.88z" transform="matrix(1.12097 0 0 1.12097 -3.26 -2.13)" opacity="1" fill="#000" fill-opacity="1" filter="url(#d)"/><path style="mix-blend-mode:normal" d="M31.64 29.07c-.13.08-2.73-.3-3.31-1.2-.7-1.08-.5-2.98.72-3.67 1.37-.78 3.8-.15 4.81.96.65.7.47 1.9-.03 2.69-.42.65-2.19 1.22-2.19 1.22z" transform="matrix(1.12097 0 0 1.12097 -3.26 -2.13)" opacity="1" fill="#e7be89" fill-opacity="1" stroke-width=".92" filter="url(#e)"/><path d="M13.48 40.77c4.35-7.9 20.64-24.34 29.8-29.08-.15-1.38-1.24-2.72-1.74-3.29l.38-.3c-1.59-2.14-4.1-3.44-6-3.6-4.2 8.3-20.8 23.52-30.31 27.55.28 4 4.23 8.19 7.87 8.72z" opacity="1" fill="#f5edd6" fill-opacity="1" stroke-width="1.12"/><path style="mix-blend-mode:normal" d="m16.35 24.26 13.61-2.78s.5 1.19.34 1.87c-.1.45-.36.84-.72 1.12-.42.34-.82.6-1.48.57.02.43-.03 1.04-.55 1.59-.36.38-1.13.85-1.59.53.1.49-.22 1.06-.65 1.4-.34.24-.52.43-1.2.38-.81-.06-5.03-3.9-5.03-3.9s-1.24.2-1.87-.17c-.12-.07-1.58.95-1.74.84-.21-.16.88-1.45.88-1.45z" transform="matrix(1.12097 0 0 1.12097 -3.26 -2.13)" opacity="1" fill="#000" fill-opacity="1" filter="url(#f)"/><path d="M5.99 32.32c.9 3.97 3.58 6.84 6.83 7.66-.84-2.28-2.7-4.3-5.05-5.84 1.66 1.28 3.73 3.2 4.66 5.5a9.84 9.84 0 0 1-5.75-6.6s3.37 1.43 4.91 4.15c5.37-6.02 21.55-24.08 30.5-28.74l-.1-.5C33.22 13.07 17.2 30.64 11.6 36.3 9.4 33.94 8.4 33.29 6 32.32Z" opacity=".4" fill="#000" fill-opacity="1" stroke-width="1.12"/><path d="M15.31 25.8c.93-.12 1.55.01 2.91-.22.55.63 1.62 1.6 2.72 2.2a6.81 6.81 0 0 0 2.4 2.12c1.37.53 2.5-.82 2.07-1.68-1.16-2.4-4-5.44-5.05-5.96-.66-.32-3.13-1.57-4.29-1.55-1.14.02-1.7.63-2.2 1.65-.38.75.12 3.34.57 4.1z" opacity="1" fill="#e7be89" fill-opacity="1" stroke-width="1.12"/><path d="M25.87 28c.77.63 2.18-.8 2-1.74-.16-.82-.52-1.17-.88-1.92a13.45 13.45 0 0 0-3.93-4.76c-1.24-.93-2.73-1.83-4.28-1.84-.84 0-1.83.3-2.33.97-.46.63-1.12 2.09-.68 2.73.86 1.23 3.54.03 4.82.82 2.22 1.36 4.05 4.72 5.28 5.73z" opacity="1" fill="#e7be89" fill-opacity="1" stroke-width="1.12"/><path d="M28 25.46c.6.61 2.78-.76 2.36-1.98a23.2 23.2 0 0 0-3.72-6.82c-.82-1.04-1.79-2.3-3.1-2.47-1.5-.2-2.83.24-3.85 1.37-.35.39-.7 2.13-.37 2.54 1.71 2.2 2.68.4 3.95 1.38 2 1.55 3.6 4.83 4.73 5.98z" opacity="1" fill="#e7be89" fill-opacity="1" stroke-width="1.12"/><path style="mix-blend-mode:normal" d="m28.2 12.4 1.21-.2 2.8 5.96-1.36.6z" opacity="1" fill="#000" fill-opacity="1" filter="url(#g)"/><path d="M29.73 21.77c.88.3 2.58-.18 2.55-1.1-.07-2.47-1.08-4.13-2.02-6.13-.57-1.19-1.4-2.74-2.97-3.2-1.47-.43-2.3-.02-2.93.5a2.18 2.18 0 0 0-.7 2.05c.32 1.32 1.9 1.16 2.76 2.2 1.27 1.51 2.48 5.13 3.31 5.68z" opacity="1" fill="#e7be89" fill-opacity="1" stroke-width="1.12"/><path style="mix-blend-mode:normal" d="m27.77 25.7.15-.22c-.4-.81-2.35-3.49-2.58-3.78-.84-1.13-1.25-1.76-2.42-2.54-.83-.55-3.44-1.33-3.44-1.33s2.45.88 3.26 1.58c.88.76 1.56 1.6 2.28 2.55l2.75 3.74z" opacity="1" fill="#774d18" fill-opacity="1" stroke-width="1.12"/><path d="m25.53 28.22.1-.38c.04-.17-2.26-2.85-2.35-2.96-.84-1.13-1.61-2-2.78-2.78-.83-.55-3.97-1.11-3.97-1.11s3.12.82 3.93 1.52c.88.76 1.68 1.61 2.45 2.48.83.95 2.62 3.23 2.62 3.23z" fill="#774d18" fill-opacity="1" stroke-width="1.12"/><path d="M29.84 21.95s-1-2.35-1.66-3.43c-.73-1.17-1.13-2.14-2.2-3-.73-.58-2.05-1.23-2.05-1.23s1.27 1 1.99 1.75c.8.83 1.25 1.66 1.93 2.59.76 1.03 2 3.32 2 3.32z" opacity="1" fill="#774d18" fill-opacity="1" stroke-width="1.1"/><path style="mix-blend-mode:normal" d="M31.25 17.27c-1.52.82-2.8 1.36-3.52 1.6-.34.76-.11 1.57.18 2.45.74.83 2.25 1.31 2.92 1.1 2.6-.8 2.4-1.56 2.4-1.56l1.53-2.58s1.08-1.25-.08-1.44a6.96 6.96 0 0 0-3.43.43z" transform="matrix(1.12097 0 0 1.12097 -3.26 -2.13)" opacity="1" fill="#000" fill-opacity="1" filter="url(#h)"/><path d="M37.33 20.76c-.14-1.79-1.07-3.82-1.96-3.81-3.2.05-3.93.84-5.28 1.44-.47.2-1.1.52-1.82.83-.54.23-.43 2.27.42 2.8 1.54.97 3.59 1.06 5.92-.67.61 3.09 2.08 6.76 2.72-.6z" opacity="1" fill="#e7be89" fill-opacity="1" stroke-width="1.12"/></svg>