<svg viewBox="0 0 50 50" xml:space="preserve" xmlns="http://www.w3.org/2000/svg"><defs><filter id="a" x="-.11" y="-.11" width="1.22" height="1.21" color-interpolation-filters="sRGB"><feGaussianBlur stdDeviation="1.8"/></filter></defs><path style="mix-blend-mode:normal" d="M25 46s8.5-8.3 13-13.4c4.2-4.5 6.9-9.2 7-15.2 0-5.2-3-11.7-9.9-11.7-8 0-10.1 8-10.1 8s-1.9-8.1-9.7-8C8 5.6 5 12.3 5 17.3c0 5.6 3 11 7.1 15.4z" transform="translate(3.4 3.5)scale(.86305)" filter="url(#a)"/><path d="M25 42.1C16.8 32.8 8.7 27.7 8.7 19c0-5.9 3.2-9.5 8-9.5 4.2 0 6.7 4.3 8.3 6.9l5.4-.2 4.8 9.6-4.8 8.4z" fill="#ff8790"/><path d="M25 42.1c8.2-9.3 16.3-14.4 16.3-23.1 0-5.9-3.2-9.5-8-9.5-4.2 0-6.7 4.3-8.3 6.9z" fill="#ff8790"/><path d="M25 40.85c7.8-9 13.64-12.65 13.7-20.25.04-4.5-1.2-7.64-5-8.3-3.1-.54-6.3 3.18-8.7 5.28 0 0 1.09-.9 2.58-1.62 1.8-.87 4.17-1.49 5.92.04 3 2.6 2.58 6.78 1.1 10.4-1.7 4.17-5.66 7.62-9.6 12.32m0 2.13c-7.8-9-13.64-12.65-13.7-20.25-.04-4.5 1.2-7.64 5-8.3 3.1-.54 6.3 3.18 8.7 5.28 0 0-5.3-4.37-8.5-1.58-3 2.6-2.62 7.22-1.1 10.4 1.89 3.96 5.66 7.62 9.6 12.32" fill="#ee555f"/></svg>