<svg xml:space="preserve" xmlns:xlink="http://www.w3.org/1999/xlink" xmlns="http://www.w3.org/2000/svg" viewBox="0 0 14 14"><defs><linearGradient xlink:href="#a" id="e" x1="5.19" y1="5.48" x2="6.84" y2="6.9" gradientUnits="userSpaceOnUse"/><linearGradient id="a"><stop offset="0" stop-color="#c1ab87"/><stop offset=".35" stop-color="#dec397"/><stop offset=".63" stop-color="#dbc297"/><stop offset="1" stop-color="#ac9775"/></linearGradient><linearGradient xlink:href="#b" id="g" x1="3.33" y1="10.83" x2="9.27" y2="10.83" gradientUnits="userSpaceOnUse" gradientTransform="matrix(1 0 0 .94851 0 .33)"/><linearGradient id="b"><stop offset="0" stop-color="#edb353"/><stop offset="1" stop-color="#daa246"/></linearGradient><linearGradient id="c"><stop offset="0" stop-color="#dd9a2d"/><stop offset="1" stop-color="#ffca6f"/></linearGradient><linearGradient xlink:href="#b" id="i" x1="3.29" y1="2.35" x2="9.33" y2="2.35" gradientUnits="userSpaceOnUse" gradientTransform="matrix(1 0 0 .94851 0 .33)"/><filter id="d" x="-.11" y="-.1" width="1.21" height="1.21" color-interpolation-filters="sRGB"><feGaussianBlur stdDeviation=".36"/></filter><filter id="f" x="-.15" y="-.1" width="1.31" height="1.19" color-interpolation-filters="sRGB"><feGaussianBlur stdDeviation=".43"/></filter><radialGradient xlink:href="#c" id="h" cx="6.29" cy="10.13" fx="6.29" fy="10.13" r="2.97" gradientTransform="matrix(1 0 0 .18415 0 8.07)" gradientUnits="userSpaceOnUse"/></defs><circle cx="7" cy="7" fill="#e7c4f8" fill-rule="evenodd" r="6.1"/><g fill-rule="evenodd" stroke-linejoin="round" transform="rotate(-23.41 9.84 -1.05)scale(.91995)"><path d="m2.27 8.86.45.57-.36.48.5.44.4-.43.6.39 3.91-4.63c.39.29.43 1.07.33 1.43 1.17-.02 2.27-1.3 2.22-2.6-.33.14-1.15.15-1.46-.18l.66-.77-.4-.55.42-.47-.53-.47-.43.5-.64-.36-.92 1.11-.79-.44-.25.05-.05.27.55.74Z" filter="url(#d)" transform="matrix(1.23092 -.04462 .04377 1.20736 -1.67 -.85)" style="mix-blend-mode:normal"/><path fill="#dbcfbc" d="m2.99 9.6.38.32-1.07 1.32-.38-.3Z"/><path d="M9.22 4.24c.6.33 1.04.36 1.8.2a3.31 3.25-2.07 0 1-2.18 2.7c.05-.8-.07-1.22-.56-1.74a55.17 54.11-2.07 0 1-2.3-2.85S8.06 3.6 9.21 4.24" fill="#f1f1ed"/><path d="M8.91 7.04c.68-.7 1.49-1.83 1.55-2.46l.5-.07a3.33 3.27-2.07 0 1-2.04 2.53Z" fill="#fff"/><path fill="url(#e)" d="M8.27 1.72s.26.34.75.75c.46.38.9.58.9.58L3.5 11.07s-.48-.11-.99-.52c-.5-.4-.67-.83-.67-.83Z"/><ellipse cx="8.66" cy="-3.75" rx="1.06" ry=".19" transform="matrix(.7848 .61975 -.61014 .7923 0 0)" fill="#d1b890"/><path fill="#dacfbd" d="m9.52 1.54.38.3-.61.75-.38-.3Z"/><path d="M3.73 7.34s.28.46.7.83c.44.37.98.53.98.53l.32-.39s-.5-.21-.94-.57c-.5-.39-.72-.81-.72-.81Zm1.8-2.23s.27.47.7.84c.44.36.98.52.98.52l.32-.39s-.5-.2-.95-.56c-.48-.4-.7-.82-.7-.82Z" fill="#bb9292"/></g><g fill-rule="evenodd" stroke-linejoin="round" stroke-opacity=".51"><path fill="#a0ab82" d="m2.47 3.85 3.2-.6.96 5.12-3.2.6Z"/><path style="mix-blend-mode:normal" d="M6.25 1.04c-3.22.02-3.3.7-3.3.7L2.96 3l.46.27-.03 6.15-.37.37L3 11.02s-.07.6 3.3.6 3.28-.63 3.28-.63l.02-1.2-.44-.34.06-6.22.42-.27V1.83s0-.8-3.39-.8m-1.75 3c.84-.84 3.57.05 3.57.05l.12 4.67-3.66-.03s-1.14-3.6-.03-4.7" filter="url(#f)" transform="matrix(.6842 -.1284 .1284 .6842 -.56 2.52)"/><path fill="#b48a47" d="m3.34 8.07 3.13-.6.12.67-3.13.6Zm-.8-4.12 3.14-.58.12.66-3.14.59Z"/><path d="M3.33 9.92v.9s-.02.47 2.95.45 2.97-.45 2.97-.45l.02-.9H6.22Z" fill="url(#g)" transform="matrix(.6842 -.1284 .1284 .6842 -.56 2.52)"/><path d="M6.31 9.4c-2.98-.03-2.98.5-2.98.5s-.02.59 2.97.58c2.99 0 2.96-.55 2.96-.55s-.01-.51-2.95-.54" fill="url(#h)" transform="matrix(.6842 -.1284 .1284 .6842 -.56 2.52)"/><path d="m2.34 3.78.95 5.05.36-.07-.94-5Zm3.15-.52.94 4.98.33-.09-.92-4.93Z" fill="#d4a14f"/><path d="M4.83 3.49s.78-.08.91.7c.2 1.1-.82 1.26-1.02 1.79.36.49 1.4.29 1.6 1.36.16.84-.51 1.02-.51 1.02a4 4 0 0 1-1.42.27s-.83.07-1-.81c-.18-.98.92-1.2 1.11-1.8-.37-.42-1.47-.24-1.68-1.32-.11-.6.62-.95.62-.95Z" fill="#fefefe"/><path d="M3.3 1.88v.9s-.02.48 3.02.46c3-.02 3-.47 3-.47l.01-.89Z" fill="url(#i)" transform="matrix(.6842 -.1284 .1284 .6842 -.56 2.52)"/><path d="M3.96 2.66c-2.07.37-2.02.7-2.02.7s.06.36 2.13-.04c2.08-.39 2-.72 2-.72s-.08-.32-2.11.06" fill="#f4c16a"/><path d="M3.68 7.93s.11.35.4.48c.33.1.6.1.97.03.34-.07.65-.12.89-.36.25-.22.18-.62.18-.62s-.56-.6-1.44-.55c-.17 0-.71.02-.98.41-.2.31-.02.6-.02.6" fill="#fff296"/></g></svg>