<svg viewBox="0 0 12.7 12.7" xml:space="preserve" xmlns:xlink="http://www.w3.org/1999/xlink" xmlns="http://www.w3.org/2000/svg"><defs><linearGradient id="a"><stop offset="0" stop-color="#c1ab87"/><stop offset=".35" stop-color="#dec397"/><stop offset=".63" stop-color="#dbc297"/><stop offset="1" stop-color="#ac9775"/></linearGradient><linearGradient xlink:href="#a" id="e" x1="5.19" y1="5.48" x2="6.84" y2="6.9" gradientUnits="userSpaceOnUse"/><linearGradient xlink:href="#b" id="g" x1="3.33" y1="10.83" x2="9.27" y2="10.83" gradientUnits="userSpaceOnUse" gradientTransform="matrix(1 0 0 .94851 0 .33)"/><linearGradient id="b"><stop offset="0" stop-color="#edb353"/><stop offset="1" stop-color="#daa246"/></linearGradient><linearGradient id="c"><stop offset="0" stop-color="#dd9a2d"/><stop offset="1" stop-color="#ffca6f"/></linearGradient><linearGradient xlink:href="#b" id="i" x1="3.29" y1="2.35" x2="9.33" y2="2.35" gradientUnits="userSpaceOnUse" gradientTransform="matrix(1 0 0 .94851 0 .33)"/><filter id="d" x="-.11" y="-.1" width="1.21" height="1.21" color-interpolation-filters="sRGB"><feGaussianBlur stdDeviation=".36"/></filter><filter id="f" x="-.15" y="-.1" width="1.31" height="1.2" color-interpolation-filters="sRGB"><feGaussianBlur stdDeviation=".43"/></filter><radialGradient xlink:href="#c" id="h" cx="6.29" cy="10.13" fx="6.29" fy="10.13" r="2.97" gradientTransform="matrix(1 0 0 .18415 0 8.07)" gradientUnits="userSpaceOnUse"/></defs><ellipse cx="6.35" cy="6.37" rx="5.51" ry="5.46" fill="#c0e453" fill-rule="evenodd"/><g fill-rule="evenodd" stroke-linejoin="round" transform="rotate(-23.41 9.12 -.98)scale(.83065)"><path d="m2.27 8.86.45.57-.36.48.5.44.4-.43.6.39 3.91-4.63c.39.29.43 1.07.33 1.43 1.17-.02 2.27-1.3 2.22-2.6-.33.14-1.15.15-1.46-.18l.66-.77-.4-.55.42-.47-.53-.47-.43.5-.64-.36-.92 1.11-.79-.44-.25.05-.05.27.55.74Z" filter="url(#d)" transform="matrix(1.23092 -.04462 .04377 1.20736 -1.67 -.85)" style="mix-blend-mode:normal"/><path fill="#dbcfbc" d="m2.99 9.6.38.32-1.07 1.32-.38-.3Z"/><path d="M9.22 4.24c.6.33 1.04.36 1.8.2a3.31 3.25-2.07 0 1-2.18 2.7c.05-.8-.07-1.22-.56-1.74a55.17 54.11-2.07 0 1-2.3-2.85S8.06 3.6 9.21 4.24" fill="#f1f1ed"/><path d="M8.91 7.04c.68-.7 1.49-1.83 1.55-2.46l.5-.07a3.33 3.27-2.07 0 1-2.04 2.53Z" fill="#fff"/><path fill="url(#e)" d="M8.27 1.72s.26.34.75.75c.46.38.9.58.9.58L3.5 11.07s-.48-.11-.99-.52c-.5-.4-.67-.83-.67-.83Z"/><ellipse cx="8.66" cy="-3.75" rx="1.06" ry=".19" transform="matrix(.7848 .61975 -.61014 .7923 0 0)" fill="#d1b890"/><path fill="#dacfbd" d="m9.52 1.54.38.3-.61.75-.38-.3Z"/><path d="M3.73 7.34s.28.46.7.83c.44.37.98.53.98.53l.32-.39s-.5-.21-.94-.57c-.5-.39-.72-.81-.72-.81Zm1.8-2.23s.27.47.7.84c.44.36.98.52.98.52l.32-.39s-.5-.2-.95-.56c-.48-.4-.7-.82-.7-.82Z" fill="#bb9292"/></g><g fill-rule="evenodd" stroke-linejoin="round" stroke-opacity=".51"><path fill="#a0ab82" d="m2.26 3.57 2.88-.54.87 4.62-2.88.54Z"/><path style="mix-blend-mode:normal" d="M6.25 1.04c-3.22.02-3.3.7-3.3.7L2.96 3l.46.27-.03 6.15-.37.37L3 11.02s-.07.6 3.3.6c3.36 0 3.28-.63 3.28-.63l.02-1.2-.44-.34.06-6.22.42-.27V1.83s0-.8-3.39-.8m-1.75 3c.84-.84 3.57.05 3.57.05l.12 4.67-3.66-.03s-1.14-3.6-.03-4.7" filter="url(#f)" transform="rotate(-10.63 12.46 3.74)scale(.62859)"/><path fill="#b48a47" d="m3.04 7.38 2.83-.54.11.6-2.83.54Zm-.72-3.72 2.84-.53.1.6-2.83.53Z"/><path d="M3.33 9.92v.9s-.02.47 2.95.45c2.98-.02 2.97-.45 2.97-.45l.02-.9H6.22Z" fill="url(#g)" transform="rotate(-10.63 12.46 3.74)scale(.62859)"/><path d="M6.31 9.4c-2.98-.03-2.98.5-2.98.5s-.02.59 2.97.58c2.99 0 2.96-.55 2.96-.55s-.01-.51-2.95-.54" fill="url(#h)" transform="rotate(-10.63 12.46 3.74)scale(.62859)"/><path d="M2.14 3.5 3 8.06 3.32 8l-.85-4.52Zm2.84-.47.85 4.5.3-.08L5.3 3Z" fill="#d4a14f"/><path d="M4.39 3.24s.7-.07.82.63c.18 1-.74 1.14-.92 1.62.32.44 1.26.26 1.44 1.23.15.76-.46.92-.46.92a3.9 3.9 0 0 1-1.28.24s-.75.07-.9-.73c-.16-.88.83-1.08 1-1.62-.33-.38-1.33-.22-1.52-1.2-.1-.54.56-.85.56-.85Z" fill="#fefefe"/><path d="M3.3 1.88v.9s-.02.48 3.02.46c3-.02 3-.47 3-.47l.01-.89Z" fill="url(#i)" transform="rotate(-10.63 12.46 3.74)scale(.62859)"/><path d="M3.6 2.49c-1.87.34-1.82.63-1.82.63s.05.33 1.92-.03c1.88-.35 1.8-.65 1.8-.65s-.06-.29-1.9.05" fill="#f4c16a"/><path d="M3.35 7.25s.1.32.36.43c.3.1.55.09.88.03.3-.06.58-.11.8-.32.23-.2.16-.56.16-.56s-.5-.54-1.3-.5c-.15 0-.64.02-.88.37-.18.28-.02.55-.02.55" fill="#fff296"/></g></svg>