<svg viewBox="0 0 12.7 12.7" version="1.1" xmlns:xlink="http://www.w3.org/1999/xlink" xmlns="http://www.w3.org/2000/svg"><defs><linearGradient id="a"><stop offset="0" stop-color="#000" stop-opacity=".15"/><stop offset="1" stop-color="#000" stop-opacity=".05"/></linearGradient><linearGradient><stop offset="0" stop-color="#ffc6f9" stop-opacity="1"/></linearGradient><linearGradient xlink:href="#a" id="c" x1="8.78" y1="10.4" x2="10.09" y2="5.32" gradientUnits="userSpaceOnUse" gradientTransform="matrix(.90646 0 0 .90646 .5 .44)"/><filter id="b" x="-.11" y="-.11" width="1.22" height="1.21" color-interpolation-filters="sRGB"><feGaussianBlur stdDeviation=".49"/></filter></defs><g transform="matrix(1.23173 0 0 1.20815 -1.4 -1.14)"><path style="mix-blend-mode:normal" d="m11.69 2.23-.96 9.59-8.76-.05-.93-9.54L4.24.9a2.53 2.53 0 0 0 2.18 1.22c.84 0 1.66-.46 2.1-1.17z" transform="matrix(.79317 0 0 .79317 1.23 1.16)" opacity="1" fill="#000" fill-opacity="1" stroke="none" stroke-width=".11" stroke-dasharray="none" stroke-opacity="1" filter="url(#b)"/><path d="m10.18 3.34-.66 6.94a241.58 241.58 0 0 1-3.27-.02L2.8 7.8l-.49-4.73 2.16-.96c.4.58 1.1.95 1.8.96.67.01 1.34-.3 1.77-.83Z" fill="#fff" fill-opacity="1" stroke="none" stroke-width=".09" stroke-dasharray="none" stroke-opacity="1"/><path d="m4.48 2.12 1.87 4.26-1-.12Z" fill="#000" fill-opacity=".2" stroke-width=".09"/><path d="M3.6 2.51 5.2 6.6l-.8.23Z" fill="#000" fill-opacity=".15" stroke-width=".09"/><path d="M9.85 4.8S9.06 8 8.46 9.18c-.24.48-.42 1.05-.42 1.05s.68-.4.92-.87c.48-.94.89-4.54.89-4.54Z" fill="url(#c)" fill-opacity="1" stroke-width=".09"/><path d="m2.86 2.84 1.52 4.58-.74 1.25Z" fill="#000" fill-opacity=".1" stroke-width=".09"/><path d="M8.35 2.25c-.52 2.5-3.72 4.2-5.53 5.78l.2 2.24h2.95C7.72 9.14 9.59 4.9 9.9 2.93Z" fill="#a400f8" fill-opacity="1" stroke-width=".14"/><path fill="none" fill-opacity="1" stroke="none" stroke-width=".08" stroke-dasharray="none" stroke-opacity="1" d="M1.35 1.16H11.42V11.23H1.35z"/><path d="m8.08 2.12.55.25c-1.2 3.36-4 4.76-5.78 6.06l-.07-.79c1.99-1.4 4.52-2.73 5.3-5.52ZM9.72 2.85l.52.23c-.2 1.4-1.62 5.85-3.6 7.2H5.46c2.2-1.31 3.71-4.89 4.26-7.43Z" fill="#ffc300" fill-opacity="1" stroke="none" stroke-width=".09" stroke-dasharray="none" stroke-opacity="1"/></g></svg>