<svg viewBox="0 0 12.7 12.7" xml:space="preserve" xmlns="http://www.w3.org/2000/svg"><defs><filter id="a" x="-.09" y="-.14" width="1.17" height="1.29" color-interpolation-filters="sRGB"><feGaussianBlur stdDeviation=".3"/></filter></defs><g fill-rule="evenodd" stroke-linecap="round" stroke-linejoin="round"><path d="M2.72 3.69c-.4.83-.68 2.32-.54 2.85.09.36.48.79.81 1.1.45.45 1.29 1.1 2.04 1.01.65-.08.7-1.1 1.26-1.1s.61 1.02 1.26 1.1c.75.1 1.6-.56 2.04-1 .33-.32.72-.75.82-1.11a6 6 0 0 0-.54-2.85c-1.32.47-2.35.85-3.58.85-1.22 0-2.26-.38-3.57-.85" filter="url(#a)" transform="matrix(1.23173 0 0 1.20815 -1.4 -1.14)"/><path d="M2.04 3.66s-.7 2-.53 2.96c.07.4.35.66.64.95.64.65 1.43 1.47 2.53 1.47.25 0 .44-.2.55-.36.22-.34.37-.72.7-.92q.2-.1.42-.07.24-.01.42.07c.33.2.49.58.7.91.12.17.3.37.54.37 1.1 0 1.9-.82 2.54-1.47.3-.29.58-.55.64-.95.18-.96-.53-2.96-.53-2.96 0-.02-2.18.69-3.3.88a6.16 6.04 0 0 1-2.01 0c-1.13-.2-3.31-.9-3.31-.88m1.51 1.52c.94-.01 1.8.72 1.78 1.62-.6.36-2.58.65-2.71-1.32q.46-.29.93-.3m5.5 0h.1q.46 0 .93.3C9.96 7.45 7.96 7.15 7.37 6.8c-.02-.87.79-1.6 1.69-1.62" fill="#f87171"/></g></svg>