<svg viewBox="0 0 12.7 12.7" xml:space="preserve" xmlns:xlink="http://www.w3.org/1999/xlink" xmlns="http://www.w3.org/2000/svg"><defs><radialGradient xlink:href="#a" id="d" cx="6.39" cy="6.36" fx="6.39" fy="6.36" r="4.17" gradientTransform="matrix(1.08567 0 0 1.07364 -.55 -.47)" gradientUnits="userSpaceOnUse"/><radialGradient xlink:href="#b" id="f" cx="6.24" cy="7.36" fx="6.24" fy="7.36" r="1.1" gradientTransform="matrix(1.31177 -.00919 .0067 .9571 -2 .5)" gradientUnits="userSpaceOnUse"/><linearGradient id="b"><stop offset=".16" stop-color="#c39d74"/><stop offset="1" stop-color="#e1c3a3"/></linearGradient><linearGradient id="a"><stop offset="0" stop-color="#fff"/><stop offset="1" stop-color="#d5b8d4"/></linearGradient><filter id="c" x="-.11" y="-.11" width="1.21" height="1.22" color-interpolation-filters="sRGB"><feGaussianBlur stdDeviation=".43"/></filter><filter id="e" x="-.09" y="-.15" width="1.17" height="1.29" color-interpolation-filters="sRGB"><feGaussianBlur stdDeviation=".32"/></filter></defs><rect width="9.69" height="9.53" x="1.54" y="1.6" ry=".77" fill-rule="evenodd" filter="url(#c)"/><rect width="9.06" height="8.96" x="1.86" y="1.88" ry=".66" fill="url(#d)" fill-rule="evenodd"/><path style="mix-blend-mode:normal" d="m2.2 10.04.89-1.3L4.45 8l.63-.13.02-.53-.17-.36s0-.55.05-.8c.06-.26.56-.87 1.26-.85.68.01 1.2.57 1.25.81.05.27.08.82.08.82l-.15.4v.43l.8.07.96.32.48.43 1 1.4.15.52-8.8.09z" opacity=".7" fill-rule="evenodd" filter="url(#e)"/><path d="M4.9 6.59q-.3-.35-.41-.8c-.03-.1 0-.21-.02-.32-.02-.22-.1-.43-.1-.65a2 2 0 0 1 .26-1.09q.14-.16.3-.29.11-.1.24-.19.26-.14.57-.18l.46-.01c.19-.02.38-.11.56-.07.17.04.3.18.44.28l.31.21q.21.15.36.36.14.29.16.6.02.25-.03.49c-.02.12-.08.22-.1.34-.02.2.03.4-.02.58-.06.25-.33.7-.33.7" style="mix-blend-mode:normal" fill="#686868" fill-rule="evenodd"/><path d="M3.01 8.91c.22-.24.6-.41.83-.52.25-.11.5-.26.8-.33.35-.08.55-.08.55-.08l2.14-.09s.63.02.94.08q.5.09.92.31a6 6 0 0 1 1.63 2.26.6.6 0 0 1-.54.3H2.45c-.19 0-.3-.1-.44-.22.33-.68.56-1.1 1-1.71" style="mix-blend-mode:normal" fill="#fff9ec" fill-rule="evenodd"/><path style="mix-blend-mode:normal" d="M5.18 8s0-.65-.02-.89l2.2.03c-.03.14-.02.77-.02.77S6.98 9.17 6.3 9.17 5.18 8 5.18 8" fill="url(#f)" fill-rule="evenodd"/><path d="M6.22 7.95a1 1 0 0 1-.62-.24q-.29-.19-.47-.5a2.5 2.5 0 0 1-.4-1.33q.01-.31.07-.62c.03-.25.03-.52.13-.76a1 1 0 0 1 .3-.45q.16-.09.35-.09c.12 0 .25.06.38.07q.2.03.38.02.23-.04.41-.1c.22-.04.32.02.48.1.14.07.18.2.25.32q.1.22.14.45a4 4 0 0 1 .05 1.37q-.03.36-.12.71-.06.18-.17.35-.23.3-.54.48c-.2.11-.4.22-.62.22" fill="#e1bc93" fill-rule="evenodd"/></svg>