<svg viewBox="0 0 12.7 12.7" xml:space="preserve" xmlns:xlink="http://www.w3.org/1999/xlink" xmlns="http://www.w3.org/2000/svg"><defs><radialGradient xlink:href="#a" id="c" cx="6.39" cy="6.36" fx="6.39" fy="6.36" r="4.17" gradientTransform="matrix(1.08567 0 0 1.07364 -.55 -.47)" gradientUnits="userSpaceOnUse"/><linearGradient id="a"><stop offset="0" stop-color="#fff"/><stop offset="1" stop-color="#d5b8d4"/></linearGradient><filter id="b" x="-.11" y="-.11" width="1.21" height="1.22" color-interpolation-filters="sRGB"><feGaussianBlur stdDeviation=".43"/></filter></defs><rect width="9.69" height="9.53" x="1.54" y="1.6" ry="0" fill-rule="evenodd" filter="url(#b)"/><rect width="9.06" height="8.96" x="1.86" y="1.88" ry="0" fill="url(#c)" fill-rule="evenodd"/><path style="mix-blend-mode:normal" d="M2.31 10.04c.12-.15.73-.5 1.02-.64.3-.13.62-.3.98-.4.43-.09.67-.1.67-.1s.02-.47-.01-.76c-.02-.11-.14-.23-.2-.38-.07-.15-.1-.27-.19-.35a2.45 2.45 0 0 1-.5-.97c-.03-.14-.02-.25-.02-.4-.01-.26-.13-.52-.13-.79 0-.24.02-.48.08-.72.05-.21.1-.44.24-.61.12-.14.27-.22.38-.36.08-.1.2-.14.28-.23.2-.18.44-.18.7-.22.19-.02.37 0 .56-.02.23-.02.46-.13.69-.08.2.05.36.22.54.34.13.08.26.16.38.26.16.13.33.26.43.44.12.22.16.48.2.73.01.2-.03.6-.03.6l-.12.42-.1.72-.19.6s-.02.52-.14.77c-.05.1-.19.26-.22.38-.03.17-.02.52-.02.52l1.16.1s.79.18 1.12.38a2.26 2.26 0 0 1 1.05 1.57c-2.92.1-5.93.11-9.06 0 .08-.33.23-.5.45-.8z" fill="#333" fill-rule="evenodd"/></svg>