<svg version="1.1" viewBox="0 0 50 50" xml:space="preserve" xmlns:xlink="http://www.w3.org/1999/xlink" xmlns="http://www.w3.org/2000/svg"><defs><linearGradient id="b"><stop offset="0" stop-color="#b89c00" stop-opacity="1"/><stop offset=".5" stop-color="#978000" stop-opacity="1"/><stop offset="1" stop-color="#b89c00" stop-opacity="1"/></linearGradient><linearGradient id="a"><stop offset="0" stop-color="gold" stop-opacity="1"/><stop offset=".26" stop-color="#ffef9c" stop-opacity="1"/><stop offset=".77" stop-color="#e4be00" stop-opacity="1"/><stop offset="1" stop-color="gold" stop-opacity="1"/></linearGradient><linearGradient xlink:href="#a" id="e" x1="7.56" y1="15.78" x2="30.5" y2="15.78" gradientUnits="userSpaceOnUse"/><linearGradient xlink:href="#b" id="d" x1="7.56" y1="17.38" x2="30.5" y2="17.38" gradientUnits="userSpaceOnUse"/><linearGradient xlink:href="#b" id="g" x1="7.56" y1="17.38" x2="30.5" y2="17.38" gradientUnits="userSpaceOnUse"/><linearGradient xlink:href="#a" id="h" x1="7.56" y1="15.78" x2="30.5" y2="15.78" gradientUnits="userSpaceOnUse"/><linearGradient xlink:href="#b" id="j" x1="7.56" y1="17.38" x2="30.5" y2="17.38" gradientUnits="userSpaceOnUse" gradientTransform="matrix(.99894 0 0 .93092 .14 1.05)"/><linearGradient xlink:href="#a" id="k" x1="7.56" y1="15.78" x2="30.5" y2="15.78" gradientUnits="userSpaceOnUse"/><filter x="-.11" y="-.11" width="1.22" height="1.22" color-interpolation-filters="sRGB"><feGaussianBlur stdDeviation="2.16"/></filter><filter id="i" x="-.07" y="-.25" width="1.14" height="1.49" color-interpolation-filters="sRGB"><feGaussianBlur stdDeviation=".71"/></filter><filter id="f" x="-.1" y="-.3" width="1.2" height="1.61" color-interpolation-filters="sRGB"><feGaussianBlur stdDeviation="1.19"/></filter><filter id="c" x="-.11" y="-.11" width="1.21" height="1.22" color-interpolation-filters="sRGB"><feGaussianBlur stdDeviation="1.78"/></filter></defs><g fill-opacity="1"><path d="M9.86 37.38c.02 1.92.92 3.4 2.8 4.55 6.06 3.66 18.5 3.58 25.48.98 2.96-1.1 4.7-2.49 4.83-4.53.13-1.97.14-3.5-.59-4.54-1.49-2.14-5.74-3.32-9.12-3.93 1.62-.83 5.37-2.19 4.35-6.55 2.75-1.04 6.6-1.82 7.2-5.97.38-2.58 0-3.96-1.93-5.89-4.67-4.7-15.7-6.74-22.95-5.57-2.97.48-5.25 1.9-5.97 4.03a8.6 8.6 0 0 0-.32 5c.3 1.5 1.98 2.85 2.76 3.91-9.12 1.84-10.93 3.85-11.43 5.82-.25.97.16 3.05.69 3.86 1.56 2.4 5.65 2.8 6.83 3.31-2.13 1.5-2.67 2.89-2.63 5.52z" opacity="1" fill="#000" stroke="none" stroke-width=".99" stroke-linecap="butt" stroke-linejoin="round" stroke-dasharray="none" stroke-opacity="1" filter="url(#c)"/><g transform="matrix(1.37764 0 0 1.37764 .19 13.93)"><ellipse cx="19.03" cy="17.38" rx="11.47" ry="4.43" opacity="1" fill="url(#d)" stroke-width="1.26"/><path opacity="1" fill="#b89c00" stroke-width=".91" d="M7.56 15.78H30.5V17.49H7.56z"/><ellipse cx="19.03" cy="15.78" rx="11.47" ry="3.97" fill="url(#e)" stroke-width="1.19"/><path d="M19.66 18.1c-2.08.04-5.27.4-6.94-.82-.58-.42-3.82-.92-3.47-1.75.7-1.67 5.67-2.03 6.98-2.5 1.81-.65 4.78.07 6.68.4 1.7.3 5.3.67 5.46 2.04.14 1.14-2.1 1.68-3.16 2.13-1.74.73-3.67.47-5.55.5z" opacity=".05" fill="none" stroke="#000" stroke-width=".99" stroke-dasharray="none" stroke-opacity="1"/><path d="M13.61 15.28c-.4.52 1.2.95 2 .93 1.02-.02 1-2.1 3.12-2.07 2.45.03-2.18 2.67-.15 2.76 2.13.1 2.2-2.13 2.99-2.24.95-.14 3.26.61 2.78 1.13-2.47 2.64-8.76-3-10.74-.5z" opacity=".05" fill="none" stroke="#000" stroke-width=".71" stroke-linecap="butt" stroke-linejoin="round" stroke-dasharray="none" stroke-opacity="1"/><ellipse cx="24.08" cy="16.39" rx="3.04" ry=".89" opacity=".05" fill="#000" stroke="none" stroke-width=".95" stroke-linecap="butt" stroke-linejoin="round" stroke-dasharray="none" stroke-opacity="1"/><ellipse cx="18.69" cy="15.47" rx="5.09" ry="1.49" opacity=".05" fill="#000" stroke="none" stroke-width="1.6" stroke-linecap="butt" stroke-linejoin="round" stroke-dasharray="none" stroke-opacity="1"/><ellipse cx="19.74" cy="13.65" rx="3.04" ry=".89" opacity=".05" fill="#000" stroke="none" stroke-width=".95" stroke-linecap="butt" stroke-linejoin="round" stroke-dasharray="none" stroke-opacity="1"/><ellipse cx="13.49" cy="16.73" rx="3.04" ry=".89" opacity=".05" fill="#000" stroke="none" stroke-width=".95" stroke-linecap="butt" stroke-linejoin="round" stroke-dasharray="none" stroke-opacity="1"/></g><path style="mix-blend-mode:normal" d="m14.41 28.87-5.4 3.6c9.03 6.93 19.6 6.58 28.38 4.27l-5.9-5.03z" transform="matrix(.89921 -.19296 .25235 .63356 -5.96 14.8)" opacity=".6" fill="#000" stroke="none" stroke-width=".99" stroke-linecap="butt" stroke-linejoin="round" stroke-dasharray="none" stroke-opacity="1" filter="url(#f)"/><g transform="matrix(1.3544 -.07511 .08521 1.19384 -5.85 6.79)"><ellipse cx="19.03" cy="17.38" rx="11.47" ry="4.43" opacity="1" fill="url(#g)" stroke-width="1.26"/><path opacity="1" fill="#b89c00" stroke-width=".91" d="M7.56 15.78H30.5V17.49H7.56z"/><ellipse cx="19.03" cy="15.78" rx="11.47" ry="3.97" fill="url(#h)" stroke-width="1.19"/><path d="M19.66 18.1c-2.08.04-5.27.4-6.94-.82-.58-.42-3.82-.92-3.47-1.75.7-1.67 5.67-2.03 6.98-2.5 1.81-.65 4.78.07 6.68.4 1.7.3 5.3.67 5.46 2.04.14 1.14-2.1 1.68-3.16 2.13-1.74.73-3.67.47-5.55.5z" opacity=".05" fill="none" stroke="#000" stroke-width=".99" stroke-dasharray="none" stroke-opacity="1"/><path d="M13.61 15.28c-.4.52 1.2.95 2 .93 1.02-.02 1-2.1 3.12-2.07 2.45.03-2.18 2.67-.15 2.76 2.13.1 2.2-2.13 2.99-2.24.95-.14 3.26.61 2.78 1.13-2.47 2.64-8.76-3-10.74-.5z" opacity=".05" fill="none" stroke="#000" stroke-width=".71" stroke-linecap="butt" stroke-linejoin="round" stroke-dasharray="none" stroke-opacity="1"/><ellipse cx="24.08" cy="16.39" rx="3.04" ry=".89" opacity=".05" fill="#000" stroke="none" stroke-width=".95" stroke-linecap="butt" stroke-linejoin="round" stroke-dasharray="none" stroke-opacity="1"/><ellipse cx="18.69" cy="15.47" rx="5.09" ry="1.49" opacity=".05" fill="#000" stroke="none" stroke-width="1.6" stroke-linecap="butt" stroke-linejoin="round" stroke-dasharray="none" stroke-opacity="1"/><ellipse cx="19.74" cy="13.65" rx="3.04" ry=".89" opacity=".05" fill="#000" stroke="none" stroke-width=".95" stroke-linecap="butt" stroke-linejoin="round" stroke-dasharray="none" stroke-opacity="1"/><ellipse cx="13.49" cy="16.73" rx="3.04" ry=".89" opacity=".05" fill="#000" stroke="none" stroke-width=".95" stroke-linecap="butt" stroke-linejoin="round" stroke-dasharray="none" stroke-opacity="1"/></g><path style="mix-blend-mode:normal" d="M19.18 18.23 13.7 19.8c7.14 4.6 17.98 6.07 24.3 4.93l-.61-3.5z" opacity=".6" fill="#000" stroke="none" stroke-width=".99" stroke-linecap="butt" stroke-linejoin="round" stroke-dasharray="none" stroke-opacity="1" filter="url(#i)"/><g transform="matrix(1.29345 .2131 -.1634 1.6869 7.22 -17.24)"><ellipse cx="19.15" cy="17.22" rx="11.46" ry="4.13" transform="matrix(.99996 -.00874 -.00938 .99996 0 0)" opacity="1" fill="url(#j)" stroke-width="1.21"/><path opacity="1" fill="#b89c00" stroke-width=".91" d="M7.56 15.78H30.45V16.9H7.56z"/><ellipse cx="19.03" cy="15.78" rx="11.47" ry="3.97" fill="url(#k)" stroke-width="1.19"/><path d="M19.66 18.1c-2.08.04-5.27.4-6.94-.82-.58-.42-3.82-.92-3.47-1.75.7-1.67 5.67-2.03 6.98-2.5 1.81-.65 4.78.07 6.68.4 1.7.3 5.3.67 5.46 2.04.14 1.14-2.1 1.68-3.16 2.13-1.74.73-3.67.47-5.55.5z" opacity=".05" fill="none" stroke="#000" stroke-width=".99" stroke-dasharray="none" stroke-opacity="1"/><path d="M13.61 15.28c-.4.52 1.2.95 2 .93 1.02-.02 1-2.1 3.12-2.07 2.45.03-2.18 2.67-.15 2.76 2.13.1 2.2-2.13 2.99-2.24.95-.14 3.26.61 2.78 1.13-2.47 2.64-8.76-3-10.74-.5z" opacity=".05" fill="none" stroke="#000" stroke-width=".71" stroke-linecap="butt" stroke-linejoin="round" stroke-dasharray="none" stroke-opacity="1"/><ellipse cx="24.08" cy="16.39" rx="3.04" ry=".89" opacity=".05" fill="#000" stroke="none" stroke-width=".95" stroke-linecap="butt" stroke-linejoin="round" stroke-dasharray="none" stroke-opacity="1"/><ellipse cx="18.69" cy="15.47" rx="5.09" ry="1.49" opacity=".05" fill="#000" stroke="none" stroke-width="1.6" stroke-linecap="butt" stroke-linejoin="round" stroke-dasharray="none" stroke-opacity="1"/><ellipse cx="19.74" cy="13.65" rx="3.04" ry=".89" opacity=".05" fill="#000" stroke="none" stroke-width=".95" stroke-linecap="butt" stroke-linejoin="round" stroke-dasharray="none" stroke-opacity="1"/><ellipse cx="13.49" cy="16.73" rx="3.04" ry=".89" opacity=".05" fill="#000" stroke="none" stroke-width=".95" stroke-linecap="butt" stroke-linejoin="round" stroke-dasharray="none" stroke-opacity="1"/></g></g></svg>