<svg xml:space="preserve" viewBox="0 0 14 14" xmlns="http://www.w3.org/2000/svg"><defs><filter id="a" x="-.08" y="-.07" width="1.15" height="1.15" color-interpolation-filters="sRGB"><feGaussianBlur stdDeviation="1.12"/></filter></defs><circle cx="7" cy="7" fill="#ffe34d" fill-rule="evenodd" r="6.1"/><path style="mix-blend-mode:normal" d="m24.56 7.2-.6 9.18-8.87 3.39-.41 1 .33 1.3-7.53 17.2c1.18 5.7 17.72 5.44 18.63-.06L18.44 22l14.31-5.45-5.8 13.39c1.2 4.24 14.52 4.67 15.83-.17l-6.42-14.75.33-1.11-.45-.96-.89-.35-8.17 2.82-.53-8.23zm10.31 10.42 3.95 8.9a23 23 0 0 0-8 .25zM16.7 24.05l5.16 11.68c-3.15-.78-7.5-.6-10.29.17z" transform="translate(-.24 -.66)scale(.2977)" fill-rule="evenodd" filter="url(#a)"/><g transform="matrix(.32704 0 0 .32952 -.22 .3)" fill-rule="evenodd" stroke-linecap="round" stroke-linejoin="round"><ellipse cx="15.2" cy="32.53" rx="7.25" ry="2.92" fill="#ba9d6e"/><ellipse cx="15.2" cy="33.24" rx="6.01" ry="1.52" fill="#ceba9a"/><path d="m7.95 32.53 7.25-16.4" fill="#c8b18c" stroke="#ddcfb7" stroke-width=".91"/><path d="m22.45 32.53-7.25-16.4" fill="none" stroke="#ddcfb7" stroke-width=".91"/></g><g transform="matrix(.27135 0 0 .2734 6.03 -.71)" stroke-width="1.09" fill-rule="evenodd" stroke-linecap="round" stroke-linejoin="round"><ellipse cx="15.2" cy="32.53" rx="7.25" ry="2.92" fill="#ba9d6e"/><ellipse cx="15.2" cy="33.24" rx="6.01" ry="1.52" fill="#ceba9a"/><path d="m7.95 32.53 7.25-16.41m7.25 16.41L15.2 16.12" fill="#c8b18c" stroke="#ddcfb7"/></g><path d="m4.56 5.56 5.7-2.1" fill-rule="evenodd" stroke="#cbc9c4" stroke-width=".5" stroke-linecap="round" stroke-linejoin="round"/><path d="M7.4 4.38V1.74" fill="none" stroke="#c2a87e" stroke-width=".45" stroke-linecap="round" stroke-linejoin="round"/></svg>