<svg viewBox="0 0 12.7 12.7" xmlns:xlink="http://www.w3.org/1999/xlink" xmlns="http://www.w3.org/2000/svg"><defs><linearGradient id="b"><stop offset="0" stop-color="#edb353"/><stop offset="1" stop-color="#daa246"/></linearGradient><linearGradient id="a"><stop offset="0" stop-color="#edb353"/><stop offset="1" stop-color="#daa246"/></linearGradient><linearGradient id="c"><stop offset="0" stop-color="#dd9a2d"/><stop offset="1" stop-color="#ffca6f"/></linearGradient><linearGradient xlink:href="#a" id="e" x1="3.33" y1="10.83" x2="9.27" y2="10.83" gradientUnits="userSpaceOnUse" gradientTransform="matrix(1 0 0 .94851 0 .33)"/><linearGradient xlink:href="#b" id="g" x1="3.29" y1="2.35" x2="9.33" y2="2.35" gradientUnits="userSpaceOnUse" gradientTransform="matrix(1 0 0 .94851 0 .33)"/><radialGradient xlink:href="#c" id="f" cx="6.29" cy="10.13" fx="6.29" fy="10.13" r="2.97" gradientTransform="matrix(1 0 0 .18415 0 8.07)" gradientUnits="userSpaceOnUse"/><filter id="d" x="-.14" y="-.09" width="1.27" height="1.18" color-interpolation-filters="sRGB"><feGaussianBlur stdDeviation=".38"/></filter></defs><g fill-rule="evenodd" stroke-linejoin="round" stroke-opacity=".51"><path fill="#969696" d="M3.93 2.7h4.66v7.47H3.93z"/><path style="mix-blend-mode:normal" d="M6.2 1.14c-3.22.02-3.25.6-3.25.6L2.96 3l.5.3-.03 6.15-.41.34L3 11.02s-.08.5 3.29.49c3.36 0 3.29-.52 3.29-.52l.02-1.2-.5-.37.06-6.22.48-.24V1.83s-.05-.7-3.44-.69M4.5 4.02l3.57.05.06 4.64h-3.6z" filter="url(#d)"/><path fill="#b48a47" d="M4.02 8.87h4.59v.97H4.02zm-.03-6.02h4.59v.97H3.99z"/><path d="M3.33 9.92v.9s-.02.47 2.95.45c2.98-.02 2.97-.45 2.97-.45l.02-.9H6.22z" fill="url(#e)"/><path d="M6.31 9.4c-2.98-.03-2.98.5-2.98.5s-.02.59 2.97.58c2.99 0 2.96-.55 2.96-.55s-.01-.51-2.95-.54" fill="url(#f)"/><path d="M3.76 2.56v7.35h.52V2.6zm4.58.08v7.28l.5-.02V2.67Z" fill="#d4a14f"/><path d="M7.35 2.8s1.1.1 1.1 1.22c-.02 1.62-1.5 1.57-1.92 2.27.38.78 1.9.77 1.9 2.34.01 1.23-1 1.3-1 1.3-.7.12-1.4.12-2.06.01 0 0-1.2-.12-1.19-1.4 0-1.43 1.6-1.45 2.03-2.24-.4-.7-2.02-.74-2.03-2.32 0-.89 1.13-1.18 1.13-1.18Z" fill="#fefefe"/><path d="M3.3 1.88v.9s-.02.48 3.02.46c3-.02 3-.47 3-.47l.01-.89z" fill="url(#g)"/><path d="M6.33 1.39c-3.02-.02-3.03.46-3.03.46s-.02.52 3.02.52c3.03 0 3-.5 3-.5s-.01-.46-2.99-.48" fill="#f4c16a"/><path d="M4.83 4.97s.7-.14 1.54-.13c.9 0 1.49.14 1.49.14s-.27.25-.43.36c-.22.15-.5.24-.7.4-.14.1-.35.35-.35.35s-.24-.23-.38-.33c-.22-.16-.5-.27-.73-.43-.16-.1-.44-.36-.44-.36m-.28 3.79s.06.54.44.78c.43.26.83.3 1.36.3.49 0 .94 0 1.35-.25.41-.25.41-.83.41-.83s-1.38-.77-1.74-.77c-.4 0-1.82.77-1.82.77" fill="#fff296"/></g></svg>