<svg viewBox="0 0 12.7 12.7" version="1.1" xmlns:xlink="http://www.w3.org/1999/xlink" xmlns="http://www.w3.org/2000/svg"><defs><linearGradient id="b"><stop offset="0" stop-color="#f8b395" stop-opacity="1"/><stop offset="1" stop-color="#da6533" stop-opacity="1"/></linearGradient><linearGradient id="c"><stop offset=".26" stop-color="#724830" stop-opacity="1"/><stop offset="1" stop-color="#c97e5f" stop-opacity="0"/></linearGradient><linearGradient id="a"><stop offset="0" stop-color="#000" stop-opacity=".15"/><stop offset="1" stop-color="#000" stop-opacity=".05"/></linearGradient><linearGradient><stop offset="0" stop-color="#ffc6f9" stop-opacity="1"/></linearGradient><linearGradient xlink:href="#a" x1="8.78" y1="10.4" x2="10.09" y2="5.32" gradientUnits="userSpaceOnUse" gradientTransform="translate(.5 .44) scale(.90646)"/><filter x="0" y="0" width="1" height="1" color-interpolation-filters="sRGB"><feGaussianBlur stdDeviation="0"/></filter><filter x="0" y="0" width="1.001" height="1.001" color-interpolation-filters="sRGB"><feGaussianBlur stdDeviation=".001"/></filter><filter id="d" x="-.117" y="-.1" width="1.234" height="1.201" color-interpolation-filters="sRGB"><feGaussianBlur stdDeviation=".469"/></filter><radialGradient xlink:href="#b" id="e" cx="7.101" cy="6.4" fx="7.101" fy="6.4" r="5.039" gradientTransform="matrix(1.88959 -.52193 .3125 1.13769 -7.878 2.738)" gradientUnits="userSpaceOnUse"/><radialGradient xlink:href="#c" id="f" cx="6.314" cy="8.444" fx="6.314" fy="8.444" r="1.949" gradientTransform="matrix(2.15476 .01783 -.00693 .95302 -7.109 -4.929)" gradientUnits="userSpaceOnUse"/></defs><path d="m6.3.791-.148.002c-1.39.021-2.754.224-2.903.853.03.28.292.292.399.553l.186.564c-.5-.456-1.419-.41-1.787-.029-.663.686-.36 1.318-.024 2.139-.188.435-.186.645-.187 1.121.208 2.395 2.06 3.137 2.082 5.131.092.53 1.307.882 2.515.882 1.215 0 2.423-.356 2.521-.882.038-1.993 1.635-2.932 1.992-5.152-.01-.444.053-.52-.102-.944.492-.962.613-1.571.072-2.289-.33-.438-1.338-.478-1.813.055l.122-.574c.117-.322.36-.302.408-.563C9.644.98 7.843.772 6.301.791Zm3.633 2.35c.25 0 .453.2.454.449a.453.453 0 0 1-.908 0c0-.249.203-.45.454-.45Zm-6.943.015c.25 0 .453.202.453.45s-.202.45-.453.45a.452.452 0 0 1-.454-.45c0-.249.203-.45.454-.45z" opacity="1" fill="#000" fill-opacity="1" fill-rule="evenodd" stroke-width=".623" stroke-linecap="round" stroke-linejoin="round" filter="url(#d)" transform="matrix(.91338 0 0 .91783 .56 .524)" style="mix-blend-mode:normal"/><path d="M3.314 2.867c-.553 0-1 .45-1 1.005 0 .555.447 1.735 1 1.735.552 0 1-1.18 1-1.735 0-.555-.448-1.005-1-1.005zm-.01.397a.59.592 0 1 1 0 1.184.59.592 0 0 1 0-1.184z" opacity="1" fill="#eb916b" fill-opacity="1" fill-rule="evenodd" stroke-width=".517" stroke-linecap="round" stroke-linejoin="round"/><path d="M9.636 2.854c-.553 0-1 .45-1 1.005 0 .555.447 1.734 1 1.734.552 0 1-1.18 1-1.734 0-.555-.448-1.005-1-1.005zm-.01.397a.59.592 0 1 1 0 1.184.59.592 0 0 1 0-1.184z" fill="#ed9570" fill-opacity="1" fill-rule="evenodd" stroke-width=".517" stroke-linecap="round" stroke-linejoin="round"/><path d="M4.33 10.456c0 .516 1.117.864 2.061.861.924-.002 2.141-.28 2.146-.795.166-1.743 1.7-3.074 1.818-4.542.168-2.094-1.526-1.718-1.548-2.962-.013-.71.307-.711.308-.97 0-.233-.89-.618-2.672-.61-1.774.008-2.665.367-2.667.626-.002.262.329.24.339.95.018 1.298-1.767.813-1.685 2.966.064 1.658 1.686 2.803 1.9 4.476z" opacity="1" fill="url(#e)" fill-opacity="1" stroke="none" stroke-width="1.648" stroke-opacity="1"/><ellipse ry=".493" rx="2.369" cy="2.067" cx="6.437" opacity="1" fill="url(#f)" fill-opacity="1" stroke="none" stroke-width="1.252" stroke-opacity="1"/><path d="M6.45 1.44c-1.476 0-2.672.283-2.672.632 0 .35 1.197.634 2.671.634 1.475 0 2.67-.306 2.67-.634 0-.35-1.196-.633-2.67-.633zm-.009.128c.869 0 2.373.194 2.373.498 0 .333-1.424.482-2.373.49-.915.01-2.38-.152-2.378-.506 0-.309 1.51-.482 2.378-.482z" fill="#fff" fill-opacity=".253" fill-rule="evenodd" stroke-width=".698" stroke-linecap="round" stroke-linejoin="round"/></svg>