<svg viewBox="0 0 50 50" xmlns:xlink="http://www.w3.org/1999/xlink" xmlns="http://www.w3.org/2000/svg"><defs><linearGradient id="e"><stop offset="0" stop-color="#ffc4b1"/><stop offset="1" stop-color="#ac877a"/></linearGradient><linearGradient id="b"><stop offset="0"/><stop offset="1" stop-opacity="0"/></linearGradient><linearGradient id="a"><stop offset="0" stop-color="#ffba53"/><stop offset="1" stop-color="#e3c490" stop-opacity="0"/></linearGradient><linearGradient id="d"><stop offset=".28" stop-color="#fff"/><stop offset="1" stop-color="#bab6b6"/></linearGradient><linearGradient id="c"><stop offset="0" stop-color="#ff9e7e"/><stop offset="1" stop-color="#b7593a"/></linearGradient><linearGradient xlink:href="#a" id="l" x1="34.39" y1="29.84" x2="34.09" y2="38.63" gradientUnits="userSpaceOnUse"/><linearGradient xlink:href="#b" id="j" x1="13.78" y1="38.57" x2="5.15" y2="47.59" gradientUnits="userSpaceOnUse"/><radialGradient xlink:href="#c" id="h" cx="27.68" cy="19.89" fx="27.68" fy="19.89" r="14.51" gradientTransform="matrix(1.33532 -.07057 .07793 1.26946 -10.63 -2.4)" gradientUnits="userSpaceOnUse"/><radialGradient xlink:href="#d" id="i" cx="25.79" cy="23.83" fx="25.79" fy="23.83" r="5.56" gradientUnits="userSpaceOnUse" gradientTransform="matrix(1.4901 -.0043 .0055 1.48415 -11.33 -12.58)"/><radialGradient xlink:href="#e" id="g" cx="29.61" cy="19.65" fx="29.61" fy="19.65" r="16.55" gradientTransform="matrix(2.03672 -.15069 .25259 2.83014 -35.98 -31.66)" gradientUnits="userSpaceOnUse"/><filter id="k" x="-.11" y="-.1" width="1.22" height="1.21" color-interpolation-filters="sRGB"><feGaussianBlur stdDeviation="1.9"/></filter><filter id="f" x="-.12" y="-.1" width="1.23" height="1.2" color-interpolation-filters="sRGB"><feGaussianBlur stdDeviation="1.63"/></filter></defs><g transform="matrix(.79868 -.25807 .27757 .85452 -5.66 11.18)" fill-rule="evenodd" stroke-linecap="round" stroke-linejoin="round"><path style="mix-blend-mode:normal" d="M25.68 44.98c-.38-5.06 4.62-9.1 8.23-2.26 8.8-7.7 6.52-15.68 4.5-22.93-1.99-7.03-7.45-14.05-16.21-13.7.82 5.65-5.3 8.14-8.26 2.56-8.57 5.76-7.69 14.47-5.77 21.26 2 7.1 6.52 15.15 17.5 15.08" transform="matrix(1.06683 .3222 -.34619 .9961 8.65 -8.1)" filter="url(#f)"/><path d="M19.25 6.64q-.24 0-.54.15c-4.22 1.85-7.6 5.34-8.96 9.5-1.85 5.64-2.11 11.54-.2 16.91 1.52 4.3 4.8 8.12 9.2 10.05.8.36 1.26.04 1.63-.71.85-2.05 3.2-3.4 5.5-3.4h.03c2.29 0 3.4 1.28 4.26 3.33.37.75.83 1.07 1.63.71 4.43-1.94 7.68-5.6 8.72-10.05 1.26-5.36 1.53-11.53-.03-16.59a15.6 15.6 0 0 0-8.7-9.72c-.79-.36-1.25-.04-1.62.71-.86 2.06-2.13 3.25-4.43 3.25s-4.54-1.23-5.4-3.28c-.28-.56-.6-.89-1.09-.86" fill="url(#g)"/><path d="M18.94 8.3q-.16 0-.41.1a14 14 0 0 0-8.14 9.44c-1.31 5.4-1.33 9.55-.02 14.26a14.6 14.6 0 0 0 8.2 9.54c.66.27.78-.03 1.1-.53 1.12-1.98 3.97-3.28 6.21-3.29 2.25 0 3.88 1.24 5 3.22.32.5.44.8 1.1.53 4.1-1.75 6.65-5.28 7.6-9.7 1-4.75 1.07-9.83-.13-14.3-1.1-4.14-3.54-7.47-7.47-9.14-.66-.27-.78.03-1.1.53a5.8 5.8 0 0 1-5.14 3.13c-2.25 0-4.99-1.18-6.12-3.17-.23-.37-.35-.63-.68-.63" fill="#eb9e84"/><path d="M18.76 9.04q-.15 0-.39.1c-3.15 1.3-6.05 4.46-7.21 8.4-1.35 4.6-1.55 9.85-.15 14.43 1.27 4.13 4.1 7.57 7.38 8.92.64.26.75-.03 1.05-.51.98-1.74 4.11-3.09 6.58-3.13a5.7 5.7 0 0 1 5.09 3.06c.3.48.41.77 1.05.52 3.27-1.35 6-4.6 6.84-8.78 1.07-5.34 1.15-9.53-.02-14.09-1.07-4.14-3.55-7.44-6.82-8.79-.64-.25-.75.04-1.05.52a6.2 6.2 0 0 1-5.44 2.97c-2.47-.03-5.26-1.25-6.25-3-.22-.37-.34-.62-.66-.62" fill="url(#h)"/><circle cx="25.96" cy="24.4" r="7.81" fill-opacity=".16"/><circle cx="26.24" cy="24.14" r="7.01" fill="url(#i)"/></g><g fill-rule="evenodd" stroke-linecap="round" stroke-linejoin="round"><path style="mix-blend-mode:normal" d="m5.65 47.89 30.16-30.76 2.84-1.48 3.11-1.11c2.25-1.61 2.87-6.66 4.14-10.75-3.46 1.38-7.98 2.68-9.98 4.76l-1.33 3.26-.84 3.13-29.03 32.1Z" transform="matrix(1.05794 .069 .10538 1.04828 -3.06 -2.12)" fill="url(#j)" filter="url(#k)"/><path d="m32.52-4.38.41 43.65 2.45.13.74-43.78Z" transform="matrix(.84807 .76262 -.6412 .72254 3.7 -6.45)" fill="url(#l)"/><path d="M44.66 6.43s-6.22 1.58-7.95 3.62c-.89 1.05-.63 3.27-.63 3.27-1.6.87-1.02.53-2.1 1.77 0 0-.3.32 1.34 1.8s1.92 1.13 1.92 1.13l1.59-2.23s2.23.02 3.15-1c1.8-1.96 2.68-8.37 2.68-8.37" fill="#f1f1f1"/><path d="M44.68 6.43 35.47 16.7c1.62 1.46 1.78 1.29 1.78 1.29.9-1.02.58.02 1.57-2.25 0 0 2.23.03 3.16-.99 1.77-1.91 2.64-8.05 2.67-8.31" fill="#e2e2e2"/></g></svg>