<?xml version="1.0" encoding="UTF-8"?>
<svg width="48" height="21" version="1.1" viewBox="0 0 12.7 5.5563" xmlns="http://www.w3.org/2000/svg" xmlns:xlink="http://www.w3.org/1999/xlink">
<defs>
<linearGradient id="b" x1="-.52917" x2="-.52917" y1="1.5875" y2="5.5563" gradientUnits="userSpaceOnUse">
<stop stop-color="#fff" stop-opacity=".8" offset="0"/>
<stop stop-color="#fff" stop-opacity="0" offset="1"/>
</linearGradient>
<linearGradient id="a" x1="13.494" x2="13.494" y1="1.5875" y2="5.5563" gradientUnits="userSpaceOnUse">
<stop stop-opacity=".2" offset="0"/>
<stop stop-opacity="0" offset="1"/>
</linearGradient>
</defs>
<g>
<path d="m8.4667 2.6458h4.2333v0.26458h-4.2333v-0.26458m-8.4667-3e-7h4.2333v0.26458h-4.2333v-0.26458m4.2333 0h4.2333v0.26458h-4.2333v-0.26458m4.2333 2.6458h4.2333v0.26458h-4.2333v-0.26458m-8.4667 0h4.2333v0.26458h-4.2333v-0.26458m4.2333 0h4.2333v0.26458h-4.2333v-0.26458m4.2333-5.2917h4.2333v0.26458h-4.2333v-0.26458m-8.4667 0h4.2333v0.26458h-4.2333v-0.26458m4.2333 0h4.2333v0.26458h-4.2333v-0.26458m4.2333 3.175v1.8521h2.1167v-1.5875h1.5875v1.3229h-1.0583v-0.79375h0.52917v0.26458h-0.26458v0.26458h0.52917v-0.79375h-1.0583v1.3229h1.5875v-1.8521h-2.1167v1.5875h-1.5875v-1.3229h1.0583v0.79375h-0.52917v-0.26458h0.26458v-0.26458h-0.52917v0.79375h1.0583v-1.3229l-1.5875-1e-7m-8.4667-1e-7v1.8521h2.1167v-1.5875h1.5875v1.3229h-1.0583v-0.79375h0.52917v0.26458h-0.26458v0.26458h0.52917v-0.79375h-1.0583v1.3229h1.5875v-1.8521h-2.1167v1.5875h-1.5875v-1.3229h1.0583v0.79375h-0.52917v-0.26458h0.26458v-0.26458h-0.52917v0.79375h1.0583l1e-7 -1.3229-1.5875-1e-7m4.2333-1e-7v1.8521h2.1167v-1.5875h1.5875v1.3229h-1.0583v-0.79375h0.52917v0.26458h-0.26458v0.26458h0.52917v-0.79375h-1.0583v1.3229h1.5875v-1.8521h-2.1167v1.5875h-1.5875v-1.3229h1.0583v0.79375h-0.52917v-0.26458h0.26458v-0.26458h-0.52917v0.79375h1.0583l1e-7 -1.3229-1.5875-1e-7m4.2333-2.6458v1.8521h2.1167v-1.5875h1.5875v1.3229h-1.0583v-0.79375h0.52917v0.26458h-0.26458v0.26458h0.52917v-0.79375h-1.0583v1.3229h1.5875v-1.8521h-2.1167v1.5875h-1.5875v-1.3229h1.0583v0.79375h-0.52917v-0.26458h0.26458v-0.26458h-0.52917v0.79375h1.0583v-1.3229l-1.5875-1e-7m-8.4667-1e-7v1.8521h2.1167v-1.5875h1.5875v1.3229h-1.0583v-0.79375h0.52917v0.26458h-0.26458v0.26458h0.52917v-0.79375h-1.0583v1.3229h1.5875v-1.8521h-2.1167v1.5875h-1.5875v-1.3229h1.0583v0.79375h-0.52917v-0.26458h0.26458v-0.26458h-0.52917v0.79375h1.0583l1e-7 -1.3229-1.5875-1e-7m4.2333-1e-7v1.8521h2.1167v-1.5875h1.5875v1.3229h-1.0583v-0.79375h0.52917v0.26458h-0.26458v0.26458h0.52917v-0.79375h-1.0583v1.3229h1.5875v-1.8521h-2.1167v1.5875h-1.5875v-1.3229h1.0583v0.79375h-0.52917v-0.26458h0.26458v-0.26458h-0.52917v0.79375h1.0583l1e-7 -1.3229-1.5875-1e-7" fill="url(#a)" stroke-width=".1"/>
<path d="m8.4667 2.9104v0.26458h1.5875v1.3229h-1.0583v-0.79375h0.52917v0.26458h-0.26458v0.26458h0.52917v-0.79375h-1.0583v1.3229h1.5875v-1.5875h2.1167v1.8521h-1.5875v-1.3229h1.0583v0.79375h-0.52917v-0.26458h0.26458v-0.26458h-0.52917v0.79375h1.0583v-1.3229h-1.5875v1.5875h-2.1167v0.26458h4.2333v-2.3813zm-8.4667 0v0.26458h1.5875v1.3229h-1.0583v-0.79375h0.52917v0.26458h-0.26458v0.26458h0.52917v-0.79375h-1.0583v1.3229h1.5875v-1.5875h2.1167v1.8521h-1.5875v-1.3229h1.0583v0.79375h-0.52917v-0.26458h0.26458v-0.26458h-0.52917v0.79375h1.0583v-1.3229h-1.5875v1.5875h-2.1167v0.26458h4.2333v-2.3812zm4.2333 0v0.26458h1.5875v1.3229h-1.0583v-0.79375h0.52917v0.26458h-0.26458v0.26458h0.52917v-0.79375h-1.0583v1.3229h1.5875v-1.5875h2.1167v1.8521h-1.5875v-1.3229h1.0583v0.79375h-0.52917v-0.26458h0.26458v-0.26458h-0.52917v0.79375h1.0583v-1.3229h-1.5875v1.5875h-2.1167v0.26458h4.2333v-2.3812zm4.2333-2.6458v0.26458h1.5875v1.3229h-1.0583v-0.79375h0.52917v0.26458h-0.26458v0.26458h0.52917v-0.79375h-1.0583v1.3229h1.5875v-1.5875h2.1167v1.8521h-1.5875v-1.3229h1.0583v0.79375h-0.52917v-0.26458h0.26458v-0.26458h-0.52917v0.79375h1.0583v-1.3229h-1.5875v1.5875h-2.1167v0.26458h4.2333v-2.3813zm-8.4667 0v0.26458h1.5875v1.3229h-1.0583v-0.79375h0.52917v0.26458h-0.26458v0.26458h0.52917v-0.79375h-1.0583v1.3229h1.5875v-1.5875h2.1167v1.8521h-1.5875v-1.3229h1.0583v0.79375h-0.52917v-0.26458h0.26458v-0.26458h-0.52917v0.79375h1.0583v-1.3229h-1.5875v1.5875h-2.1167v0.26458h4.2333v-2.3812zm4.2333 0v0.26458h1.5875v1.3229h-1.0583v-0.79375h0.52917v0.26458h-0.26458v0.26458h0.52917v-0.79375h-1.0583v1.3229h1.5875v-1.5875h2.1167v1.8521h-1.5875v-1.3229h1.0583v0.79375h-0.52917v-0.26458h0.26458v-0.26458h-0.52917v0.79375h1.0583v-1.3229h-1.5875v1.5875h-2.1167v0.26458h4.2333v-2.3812z" fill="url(#b)" stroke-width=".090453"/>
</g>
</svg>
