<?xml version="1.0" encoding="UTF-8"?>
<svg width="48" height="48" version="1.1" viewBox="0 0 12.7 12.7" xmlns="http://www.w3.org/2000/svg">
<defs>
<filter id="a" x="-.18962" y="-.19444" width="1.3792" height="1.3889" color-interpolation-filters="sRGB">
<feGaussianBlur stdDeviation="0.80483727"/>
</filter>
</defs>
<path transform="matrix(.92676 0 0 .89063 .46748 .93324)" d="m10.253 11.041s0.0132-1.1757-0.04878-1.759c-0.02881-0.27112-0.14966-0.80413-0.14966-0.80413 0.7196-0.48239 1.0533-0.84786 1.4221-1.5875 0 0-0.86224-2.0524-1.0253-3.1419-0.08872-0.59299 0.03307-1.7985 0.03307-1.7985l-3.1378-0.35955s-0.35844-0.48946-0.95498-0.48369c-0.60904 0.00589-0.96325 0.46302-0.96325 0.46302l-3.1275 0.36067s0.12365 1.23 0.031066 1.8345c-0.16671 1.0885-1.0419 3.1351-1.0419 3.1351 0.41005 0.76602 0.85518 1.2631 1.5459 1.5614 0 0-0.16982 0.53625-0.20859 0.81349-0.081183 0.58049-0.047279 1.7578-0.047279 1.7578" filter="url(#a)"/>
<path d="m10.07 7.1749-1.2609-3.6825-1.2609 3.6825" fill="none" stroke="#fff" stroke-width=".14809"/>
<path d="m10.322 7.0371h-3.0372s0.60745 0.95896 1.5186 0.95896c0.91117 0 1.5186-0.95896 1.5186-0.95896z" fill="#c3bea7" stroke-width=".081132"/>
<path d="m9.3557 3.7475h-2.928l0.00581-0.79412 2.9176 0.25657c0.19497 0.017141 0.17592 0.53755 0.00462 0.53755z" fill="#c3bea7" stroke-width=".096111"/>
<path d="m2.6956 7.165 1.2609-3.6825 1.2609 3.6825" fill="none" stroke="#fff" stroke-width=".14809"/>
<path d="m2.4434 7.0272h3.0372s-0.60745 0.95896-1.5186 0.95896c-0.91117 0-1.5186-0.95896-1.5186-0.95896z" fill="#c3bea7" stroke-width=".081132"/>
<path d="m3.4102 3.7376h2.928l-0.0058108-0.79412-2.9176 0.25657c-0.19497 0.017141-0.17592 0.53755-0.0046153 0.53755z" fill="#c3bea7" stroke-width=".096111"/>
<path d="m5.994 2.9534h0.81551l0.011266 6.2053h-0.82453z" fill="#f3d67d"/>
<path d="m3.4796 9.4951h5.8441v0.69737h-5.8441z" fill="#f3d67d"/>
<path d="m5.9962 9.1275c-0.40776 0-0.81776 0.40929-0.81776 0.40929h2.4465s-0.39649-0.40929-0.80425-0.40929z" fill="#f3d67d"/>
<path d="m5.994 2.9829s1e-7 -0.33108 0.40776-0.33108c0.40776 0 0.40776 0.33108 0.40776 0.33108z" fill="#f3d67d"/>
</svg>
