<?xml version="1.0" encoding="UTF-8"?>
<svg width="48" height="48" version="1.1" viewBox="0 0 12.7 12.7" xmlns="http://www.w3.org/2000/svg" xmlns:xlink="http://www.w3.org/1999/xlink">
<defs>
<filter id="n" x="-.19492" y="-.18913" width="1.3898" height="1.3783" color-interpolation-filters="sRGB">
<feGaussianBlur stdDeviation="0.63871087"/>
</filter>
<linearGradient id="m" x1="7.4344" x2="7.4214" y1="6.596" y2="4.6524" gradientUnits="userSpaceOnUse">
<stop stop-opacity=".2" offset="0"/>
<stop stop-opacity="0" offset="1"/>
</linearGradient>
<linearGradient id="l" x1="7.9535" x2="7.917" y1="6.5559" y2="4.0169" gradientUnits="userSpaceOnUse">
<stop stop-opacity=".2" offset="0"/>
<stop stop-opacity="0" offset="1"/>
</linearGradient>
<linearGradient id="k" x1="8.4435" x2="8.4473" y1="6.7532" y2="3.393" gradientUnits="userSpaceOnUse">
<stop stop-opacity=".2" offset="0"/>
<stop stop-opacity="0" offset="1"/>
</linearGradient>
<linearGradient id="j" x1="8.9629" x2="8.9737" y1="7.2216" y2="3.6218" gradientUnits="userSpaceOnUse">
<stop stop-opacity=".2" offset="0"/>
<stop stop-opacity="0" offset="1"/>
</linearGradient>
<linearGradient id="i" x1="7.4344" x2="7.4214" y1="6.596" y2="4.6524" gradientTransform="matrix(-1 0 0 1 12.479 -.05819)" gradientUnits="userSpaceOnUse">
<stop stop-opacity=".2" offset="0"/>
<stop stop-opacity="0" offset="1"/>
</linearGradient>
<linearGradient id="h" x1="7.9535" x2="7.917" y1="6.5559" y2="4.0169" gradientTransform="matrix(-1 0 0 1 12.479 -.05819)" gradientUnits="userSpaceOnUse">
<stop stop-opacity=".2" offset="0"/>
<stop stop-opacity="0" offset="1"/>
</linearGradient>
<linearGradient id="g" x1="8.4435" x2="8.4473" y1="6.7532" y2="3.393" gradientTransform="matrix(-1 0 0 1 12.479 -.05819)" gradientUnits="userSpaceOnUse">
<stop stop-opacity=".2" offset="0"/>
<stop stop-opacity="0" offset="1"/>
</linearGradient>
<linearGradient id="f" x1="8.9629" x2="8.9737" y1="7.2216" y2="3.6218" gradientTransform="matrix(-1 0 0 1 12.479 -.05819)" gradientUnits="userSpaceOnUse">
<stop stop-opacity=".2" offset="0"/>
<stop stop-opacity="0" offset="1"/>
</linearGradient>
<linearGradient id="e" x1="3.9554" x2="4.0235" y1="3.7428" y2="7.7816" gradientUnits="userSpaceOnUse">
<stop stop-color="#e99649" offset="0"/>
<stop stop-color="#b56317" offset="1"/>
</linearGradient>
<linearGradient id="d" x1="8.5198" x2="8.4542" y1="3.794" y2="7.7771" gradientUnits="userSpaceOnUse">
<stop stop-color="#e99649" offset="0"/>
<stop stop-color="#b56417" offset="1"/>
</linearGradient>
<linearGradient id="c" x1="6.2064" x2="6.1643" y1="3.701" y2="5.1334" gradientUnits="userSpaceOnUse">
<stop stop-color="#e99649" offset="0"/>
<stop stop-color="#b56417" offset="1"/>
</linearGradient>
<linearGradient id="b" x1="6.2264" x2="5.348" y1="6.7462" y2="9.2326" gradientUnits="userSpaceOnUse">
<stop stop-color="#b46318" offset=".35"/>
<stop stop-color="#e99649" offset=".74204"/>
<stop stop-color="#fdd200" offset="1"/>
</linearGradient>
<linearGradient id="a" x1="6.2823" x2="7.2035" y1="6.7511" y2="9.2288" gradientUnits="userSpaceOnUse">
<stop stop-color="#b56417" offset=".35"/>
<stop stop-color="#e99649" offset=".82803"/>
<stop stop-color="#ffd500" offset="1"/>
</linearGradient>
</defs>
<g transform="matrix(1.2317 0 0 1.2081 -1.3921 -1.1404)">
<path d="m5.0815 3.3674c0.13562-0.062548 0.16166-0.8526 0.54423-1.0738 0.46233-0.26726 0.99138-0.21678 1.4561-0.072011 0.35135 0.10945 0.68441 0.55301 0.88301 0.67245 0.11481 0.06905 0.40921-0.21824 0.99746-0.046482 0.91489 0.26713 1.1808 1.957 1.1984 3.1404 0.02088 1.4041-0.06428 2.4168-0.15964 3.1807-0.042321 0.33903-0.34577 0.35258-0.67555 0.1632-0.6719-0.38584-1.6827-1.447-1.6545-1.2569 0.076382 0.5164 0.62283 0.86393 0.54111 1.4329-0.07978 0.55546-0.62532 0.69072-0.90185 0.69971-0.38605 0.012549-0.746-0.23786-1.106-0.24791-0.35993-0.010056-0.58904 0.2656-0.97109 0.2442-0.26985-0.015112-0.82283-0.086326-0.90382-0.66857-0.099304-0.71392 0.42663-0.86737 0.50314-1.5318 0.022799-0.198-1.0152 1.0205-1.6949 1.3856-0.28046 0.15061-0.59436-0.020559-0.64617-0.32492-0.11415-0.67058-0.2216-2.0533-0.1843-3.303 0.03159-1.0584 0.25799-2.5439 1.0984-2.9065 0.99765-0.43046 1.5264 0.58168 1.6759 0.51274z" filter="url(#n)" stroke-width=".09064"/>
<rect x="2.6259" y="1.7976" width="7.827" height="9.5691" fill="none"/>
<path d="m6.9155 4.6981s0.32033 0.013087 0.5886-0.28999c0.31542-0.35634 0.54382-0.9612 1.0446-0.93334 1.402 0.077999 0.83079 5.211 0.83079 5.211s-0.95134-0.47474-1.5439-1.3325c-0.47117-0.68204-0.9201-0.60756-0.9201-0.60756z" fill="url(#d)" stroke-width=".081548"/>
<path d="m5.5737 4.6974s-0.32033 0.013088-0.5886-0.28999c-0.31542-0.35634-0.54382-0.9612-1.0446-0.93334-1.402 0.077999-0.83079 5.211-0.83079 5.211s0.9849-0.50896 1.5439-1.3325c0.46562-0.68599 0.9201-0.60756 0.9201-0.60756z" fill="url(#e)" stroke-width=".081548"/>
<path d="m6.2158 7.5037s0.16201 0.90651 0.3389 1.0191c0.076598 0.048737 0.183 0.031937 0.183 0.031937l0.25742 0.55872s-0.1947 0.00817-0.29995 0.1067c-0.19105 0.17884-0.083821 0.47546-0.083821 0.47546s0.069905-0.17304 0.25276-0.26354c0.12507-0.061898 0.26387-0.069654 0.26387-0.069654 0.12755 0.12864 0.29153 0.39911 0.29153 0.39911s0.11539-0.22095-0.021838-0.42752c0 0 0.07976-0.059274 0.20378-0.024465 0.13386 0.037572 0.22071 0.22278 0.22071 0.22278s0.090329-0.37854-0.14094-0.46659c-0.17102-0.065113-0.44688 0.00235-0.44688 0.00235l-0.22809-0.57988s0.1465-0.036116 0.19488-0.16235c0.081015-0.21137-0.23205-1.6526-0.23205-1.6526z" fill="url(#a)" stroke-width=".086034"/>
<path d="m6.3015 7.5212s-0.18165 0.89967-0.35587 1.0122c-0.075444 0.048737-0.18024 0.031939-0.18024 0.031939l-0.25354 0.55871s0.19176 0.00817 0.29543 0.1067c0.18817 0.17884 0.082558 0.47546 0.082558 0.47546s-0.068852-0.17304-0.24895-0.26354c-0.12318-0.061898-0.25989-0.069654-0.25989-0.069654-0.12562 0.12864-0.28714 0.39911-0.28714 0.39911s-0.11365-0.22095 0.02151-0.42752c0 0-0.078559-0.059274-0.20071-0.024465-0.13185 0.037572-0.21738 0.22278-0.21738 0.22278s-0.088968-0.37854 0.13881-0.46659c0.16844-0.065113 0.44014 0.00235 0.44014 0.00235l0.22465-0.57988s-0.14429-0.036115-0.19195-0.16235c-0.079794-0.21137 0.1984-1.6663 0.1984-1.6663z" fill="url(#b)" stroke-width=".085384"/>
<path d="m6.9594 3.0112s0.22886 0.051985 0.32639 0.11416c0.096758 0.061682 0.25508 0.24695 0.24166 0.24723-0.36668 0.0077-0.60244 0.11058-0.60244 0.11058z" fill="#ffd500" stroke-width=".081975"/>
<path d="m6.9594 3.0112c-0.048313-0.041871-0.033575-0.1177-0.079004-0.15229-0.061392-0.046742-0.38059-0.097483-0.57221-0.082384-0.15431 0.012159-0.45041 0.13814-0.45041 0.13814l0.11957 0.066536s-0.14516 0.29722-0.19706 0.45404c-0.16976 0.51293-0.33671 1.0394-0.36973 1.5797-0.049333 0.80729 0.047103 1.8923 0.2608 2.412 0.17185 0.41792 0.94092 0.40425 1.1303-0.0017238 0.23489-0.50354 0.32432-1.5656 0.28906-2.4365-0.01614-0.3986-0.14233-0.66038-0.19597-0.84376-0.06209-0.21223-0.1328-0.39913-0.062843-0.58015 0.015004-0.038826 0.093108-0.081622 0.093108-0.081622z" fill="url(#c)" stroke-width=".081548"/>
<path d="m7.1726 5.0572c0.16234-0.045801 0.29784-0.10187 0.43669-0.18873l-0.18512 1.9357z" fill="url(#m)" stroke-width=".081975"/>
<path d="m7.7253 4.7558c0.15899-0.13326 0.2777-0.38628 0.39305-0.5914l-0.18847 3.0721z" fill="url(#l)" stroke-width=".10106"/>
<path d="m8.2354 3.9631c0.112-0.15189 0.32804-0.24219 0.44676-0.086108l-0.22875 3.9451z" fill="url(#k)" stroke-width=".11794"/>
<path d="m8.8085 4.08s0.34836 0.65537 0.32521 0.99951c-0.053399 0.79371-0.18349 3.0935-0.18349 3.0935z" fill="url(#j)" stroke-width=".11059"/>
<path d="m5.3065 4.9991c-0.16234-0.045801-0.29784-0.10187-0.43669-0.18873l0.18512 1.9357z" fill="url(#i)" stroke-width=".081975"/>
<path d="m4.7539 4.6976c-0.15899-0.13326-0.2777-0.38628-0.39305-0.5914l0.18847 3.0721z" fill="url(#h)" stroke-width=".10106"/>
<path d="m4.2438 3.9049c-0.112-0.15189-0.32804-0.24219-0.44676-0.086108l0.22875 3.9451z" fill="url(#g)" stroke-width=".11794"/>
<path d="m3.6707 4.0218s-0.34836 0.65537-0.32521 0.99951c0.053399 0.79371 0.18349 3.0935 0.18349 3.0935z" fill="url(#f)" stroke-width=".11059"/>
<path d="m6.8288 2.9699c-0.097629-0.032027-0.14853-0.036832-0.24143-0.023444 0 0 0.011995 0.17086 0.1128 0.1771 0.08915 0.00551 0.12863-0.15365 0.12863-0.15365z" stroke-width=".10265"/>
</g>
</svg>
