<?xml version="1.0" encoding="UTF-8"?>
<svg width="48" height="48" version="1.1" viewBox="0 0 12.7 12.7" xmlns="http://www.w3.org/2000/svg" xmlns:xlink="http://www.w3.org/1999/xlink">
<defs>
<linearGradient id="a" x1="8.7755" x2="10.089" y1="10.398" y2="5.3217" gradientTransform="matrix(.68501 0 0 .68501 1.9184 1.852)" gradientUnits="userSpaceOnUse">
<stop stop-opacity=".15" offset="0"/>
<stop stop-opacity=".05" offset="1"/>
</linearGradient>
<filter id="b" x="-.20514" y="-.20092" width="1.4103" height="1.4018" color-interpolation-filters="sRGB">
<feGaussianBlur stdDeviation="0.91205776"/>
</filter>
</defs>
<g transform="matrix(1.2317 0 0 1.2081 -1.3921 -1.1404)">
<path transform="matrix(.68501 0 0 .68501 1.9184 1.852)" d="m11.711 2.3793-0.98357 9.4379-8.7602-0.051953-0.92666-9.5308 3.8222-1.288c0.085157 0.34199 0.29078 0.65271 0.57228 0.86477 0.2815 0.21206 0.6369 0.32396 0.98911 0.31144 0.33789-0.012009 0.67071-0.13814 0.93169-0.35308s0.44857-0.51742 0.52512-0.84674z" filter="url(#b)" style="mix-blend-mode:normal"/>
<path d="m9.2256 4.0411-0.49842 5.2419c-0.16611 2.269e-4 -0.33222 2.269e-4 -0.49833 0-0.65725-8.978e-4 -1.3145-0.00535-1.9717-0.01335l-2.6009-1.8475-0.36638-3.5764 1.6312-0.72497c0.30385 0.4383 0.82606 0.71681 1.3593 0.72497 0.50917 0.0077945 1.0166-0.22979 1.3367-0.62585z" fill="#fff"/>
<path d="m4.9211 3.1207 1.4164 3.2195-0.76181-0.091455z" fill-opacity=".2" stroke-width=".068501"/>
<path d="m4.2527 3.4178 1.2144 3.0828-0.61157 0.17229z" fill-opacity=".15" stroke-width=".068501"/>
<path d="m8.9766 5.1505s-0.59198 2.4137-1.0448 3.2947c-0.18636 0.36255-0.31924 0.79729-0.31924 0.79729s0.5126-0.30596 0.69612-0.66164c0.36352-0.70452 0.66796-3.4304 0.66796-3.4304z" fill="url(#a)" stroke-width=".068501"/>
<path d="m3.6969 3.6647 1.1453 3.4578-0.55775 0.94367z" fill-opacity=".096618" stroke-width=".068501"/>
<path d="m7.9308 3.2501c-0.39466 1.898-2.8928 3.1465-4.2669 4.3353l0.15411 1.6952h2.2264c1.3257-0.85895 2.7347-4.0688 2.9698-5.5481z" fill="#9400ef" stroke-width=".10208"/>
<rect x="2.0212" y="1.852" width="8.6996" height="8.6996" fill="none"/>
<path d="m7.6397 3.1207 0.4191 0.18637c-0.9028 2.5389-2.274 2.2455-4.3677 4.5781l-0.056464-0.59189c1.3505-1.7313 3.4178-2.0634 4.0051-4.1726z" fill="#ffc300"/>
<path d="m8.882 3.6728 0.3889 0.17284c-0.15518 1.0587-1.2215 4.4187-2.7186 5.4373h-0.8911c1.6581-0.98689 2.8073-3.6897 3.2208-5.6101z" fill="#ffc300"/>
</g>
</svg>
